{"header":{"keySignatures":[{"key":"Eb","scale":"minor","ticks":0}],"meta":[],"name":"","ppq":1024,"tempos":[{"bpm":170.0000850000425,"ticks":0},{"bpm":170.0000850000425,"ticks":0},{"bpm":169.97985738689965,"ticks":0},{"bpm":169.97985738689965,"ticks":6144},{"bpm":168.98361985444876,"ticks":6400},{"bpm":167.98770330011843,"ticks":6656},{"bpm":166.99183688237375,"ticks":6912},{"bpm":166.4641353020492,"ticks":7168},{"bpm":165.4679433437762,"ticks":7424},{"bpm":164.47233164200952,"ticks":7680},{"bpm":163.4761570025012,"ticks":7936},{"bpm":169.97985738689965,"ticks":8192},{"bpm":169.97985738689965,"ticks":8448},{"bpm":169.97985738689965,"ticks":47104},{"bpm":169.45323090826932,"ticks":47360},{"bpm":168.98361985444876,"ticks":47616},{"bpm":168.45699012280514,"ticks":47872},{"bpm":167.98770330011843,"ticks":48128},{"bpm":167.46024214751014,"ticks":48384},{"bpm":166.99183688237375,"ticks":48640},{"bpm":166.4641353020492,"ticks":48896},{"bpm":169.97985738689965,"ticks":49152},{"bpm":169.97985738689965,"ticks":129024},{"bpm":169.45323090826932,"ticks":129280},{"bpm":168.98361985444876,"ticks":129536},{"bpm":168.45699012280514,"ticks":129792},{"bpm":167.98770330011843,"ticks":130048},{"bpm":167.46024214751014,"ticks":130304},{"bpm":166.99183688237375,"ticks":130560},{"bpm":166.4641353020492,"ticks":130816},{"bpm":169.97985738689965,"ticks":131072},{"bpm":169.97985738689965,"ticks":133120},{"bpm":168.98361985444876,"ticks":133376},{"bpm":167.98770330011843,"ticks":133632},{"bpm":166.99183688237375,"ticks":133888},{"bpm":166.4641353020492,"ticks":134144},{"bpm":165.4679433437762,"ticks":134400},{"bpm":164.47233164200952,"ticks":134656},{"bpm":163.4761570025012,"ticks":134912},{"bpm":169.97985738689965,"ticks":135424},{"bpm":169.97985738689965,"ticks":145408},{"bpm":168.98361985444876,"ticks":145664},{"bpm":167.98770330011843,"ticks":145920},{"bpm":166.99183688237375,"ticks":146176},{"bpm":166.4641353020492,"ticks":146432},{"bpm":165.4679433437762,"ticks":146688},{"bpm":164.47233164200952,"ticks":146944},{"bpm":163.4761570025012,"ticks":147200},{"bpm":169.97985738689965,"ticks":147712},{"bpm":169.97985738689965,"ticks":194560},{"bpm":169.45323090826932,"ticks":194816},{"bpm":168.98361985444876,"ticks":195072},{"bpm":168.45699012280514,"ticks":195328},{"bpm":167.98770330011843,"ticks":195584},{"bpm":167.46024214751014,"ticks":195840},{"bpm":166.99183688237375,"ticks":196096},{"bpm":166.4641353020492,"ticks":196352},{"bpm":169.97985738689965,"ticks":196608},{"bpm":169.97985738689965,"ticks":262144},{"bpm":169.97985738689965,"ticks":262400},{"bpm":169.97985738689965,"ticks":301056},{"bpm":169.45323090826932,"ticks":301312},{"bpm":168.98361985444876,"ticks":301568},{"bpm":168.45699012280514,"ticks":301824},{"bpm":167.98770330011843,"ticks":302080},{"bpm":167.46024214751014,"ticks":302336},{"bpm":166.99183688237375,"ticks":302592},{"bpm":166.4641353020492,"ticks":302848},{"bpm":169.97985738689965,"ticks":303104},{"bpm":169.97985738689965,"ticks":382976},{"bpm":169.45323090826932,"ticks":383232},{"bpm":168.98361985444876,"ticks":383488},{"bpm":168.45699012280514,"ticks":383744},{"bpm":167.98770330011843,"ticks":384000},{"bpm":167.46024214751014,"ticks":384256},{"bpm":166.99183688237375,"ticks":384512},{"bpm":166.4641353020492,"ticks":384768},{"bpm":169.97985738689965,"ticks":385024},{"bpm":169.97985738689965,"ticks":387072},{"bpm":168.98361985444876,"ticks":387328},{"bpm":167.98770330011843,"ticks":387584},{"bpm":166.99183688237375,"ticks":387840},{"bpm":166.4641353020492,"ticks":388096},{"bpm":165.4679433437762,"ticks":388352},{"bpm":164.47233164200952,"ticks":388608},{"bpm":163.4761570025012,"ticks":388864},{"bpm":169.97985738689965,"ticks":389376},{"bpm":169.97985738689965,"ticks":399360},{"bpm":168.98361985444876,"ticks":399616},{"bpm":167.98770330011843,"ticks":399872},{"bpm":166.99183688237375,"ticks":400128},{"bpm":166.4641353020492,"ticks":400384},{"bpm":165.4679433437762,"ticks":400640},{"bpm":164.47233164200952,"ticks":400896},{"bpm":163.4761570025012,"ticks":401152},{"bpm":169.97985738689965,"ticks":401664},{"bpm":169.97985738689965,"ticks":448512},{"bpm":169.45323090826932,"ticks":448768},{"bpm":168.98361985444876,"ticks":449024},{"bpm":168.45699012280514,"ticks":449280},{"bpm":167.98770330011843,"ticks":449536},{"bpm":167.46024214751014,"ticks":449792},{"bpm":166.99183688237375,"ticks":450048},{"bpm":166.4641353020492,"ticks":450304},{"bpm":169.97985738689965,"ticks":450560}],"timeSignatures":[{"ticks":0,"timeSignature":[4,4],"measures":0}]},"tracks":[{"channel":0,"controlChanges":{"7":[{"number":7,"ticks":0,"time":0,"value":0.8031496062992126},{"number":7,"ticks":0,"time":0,"value":0.8661417322834646},{"number":7,"ticks":10,"time":0.003447099609375,"value":0.8031496062992126},{"number":7,"ticks":1981,"time":0.6828704326171875,"value":0.8661417322834646}]},"pitchBends":[],"instrument":{"family":"piano","number":0,"name":"acoustic grand piano"},"name":"","notes":[{"duration":0.09341639941406249,"durationTicks":271,"midi":42,"name":"F#2","ticks":10,"time":0.003447099609375,"velocity":0.4881889763779528},{"duration":0.08031742089843749,"durationTicks":233,"midi":43,"name":"G2","ticks":297,"time":0.1023788583984375,"velocity":0.49606299212598426},{"duration":0.08031742089843749,"durationTicks":233,"midi":44,"name":"G#2","ticks":546,"time":0.188211638671875,"velocity":0.5118110236220472},{"duration":0.08376452050781247,"durationTicks":243,"midi":45,"name":"A2","ticks":795,"time":0.2740444189453125,"velocity":0.5196850393700787},{"duration":0.08341981054687497,"durationTicks":242,"midi":46,"name":"A#2","ticks":1054,"time":0.363324298828125,"velocity":0.5354330708661418},{"duration":0.07962800097656253,"durationTicks":231,"midi":47,"name":"B2","ticks":1312,"time":0.45225946875,"velocity":0.5433070866141733},{"duration":0.07997271093750002,"durationTicks":232,"midi":48,"name":"C3","ticks":1559,"time":0.5374028291015625,"velocity":0.5590551181102362},{"duration":0.08479865039062495,"durationTicks":246,"midi":49,"name":"C#3","ticks":1807,"time":0.6228908994140625,"velocity":0.5669291338582677},{"duration":0.08514336035156245,"durationTicks":247,"midi":62,"name":"D4","ticks":2069,"time":0.7132049091796875,"velocity":0.6377952755905512},{"duration":0.08514336035156245,"durationTicks":247,"midi":50,"name":"D3","ticks":2069,"time":0.7132049091796875,"velocity":0.5826771653543307},{"duration":0.07962800097656253,"durationTicks":231,"midi":63,"name":"D#4","ticks":2332,"time":0.80386362890625,"velocity":0.6614173228346457},{"duration":0.07962800097656253,"durationTicks":231,"midi":51,"name":"D#3","ticks":2332,"time":0.80386362890625,"velocity":0.5984251968503937},{"duration":0.07997271093749991,"durationTicks":232,"midi":64,"name":"E4","ticks":2579,"time":0.8890069892578125,"velocity":0.6771653543307087},{"duration":0.07997271093749991,"durationTicks":232,"midi":52,"name":"E3","ticks":2579,"time":0.8890069892578125,"velocity":0.6062992125984252},{"duration":0.08307510058593748,"durationTicks":241,"midi":65,"name":"F4","ticks":2827,"time":0.9744950595703125,"velocity":0.6929133858267716},{"duration":0.08307510058593748,"durationTicks":241,"midi":53,"name":"F3","ticks":2827,"time":0.9744950595703125,"velocity":0.6220472440944882},{"duration":0.08307510058593737,"durationTicks":241,"midi":66,"name":"F#4","ticks":3084,"time":1.06308551953125,"velocity":0.7165354330708661},{"duration":0.08307510058593737,"durationTicks":241,"midi":54,"name":"F#3","ticks":3084,"time":1.06308551953125,"velocity":0.6299212598425197},{"duration":0.07997271093750014,"durationTicks":232,"midi":67,"name":"G4","ticks":3341,"time":1.1516759794921874,"velocity":0.7322834645669292},{"duration":0.07997271093750014,"durationTicks":232,"midi":55,"name":"G3","ticks":3341,"time":1.1516759794921874,"velocity":0.6456692913385826},{"duration":0.07997271093750014,"durationTicks":232,"midi":68,"name":"G#4","ticks":3589,"time":1.2371640498046874,"velocity":0.7559055118110236},{"duration":0.07997271093750014,"durationTicks":232,"midi":56,"name":"G#3","ticks":3589,"time":1.2371640498046874,"velocity":0.6535433070866141},{"duration":0.08376452050781258,"durationTicks":243,"midi":69,"name":"A4","ticks":3837,"time":1.3226521201171875,"velocity":0.7716535433070866},{"duration":0.08376452050781258,"durationTicks":243,"midi":57,"name":"A3","ticks":3837,"time":1.3226521201171875,"velocity":0.6692913385826772},{"duration":0.1864880888671876,"durationTicks":541,"midi":67,"name":"G4","ticks":4100,"time":1.41331083984375,"velocity":0.7716535433070866},{"duration":0.1864880888671876,"durationTicks":541,"midi":70,"name":"A#4","ticks":4100,"time":1.41331083984375,"velocity":0.8818897637795275},{"duration":0.17614679003906253,"durationTicks":511,"midi":46,"name":"A#2","ticks":4100,"time":1.41331083984375,"velocity":0.9606299212598425},{"duration":0.17614679003906253,"durationTicks":511,"midi":55,"name":"G3","ticks":4100,"time":1.41331083984375,"velocity":0.9606299212598425},{"duration":0.1864880888671876,"durationTicks":541,"midi":58,"name":"A#3","ticks":4100,"time":1.41331083984375,"velocity":1},{"duration":0.16442665136718748,"durationTicks":477,"midi":62,"name":"D4","ticks":4642,"time":1.600143638671875,"velocity":0.7322834645669292},{"duration":0.17476795019531233,"durationTicks":507,"midi":67,"name":"G4","ticks":4642,"time":1.600143638671875,"velocity":0.84251968503937},{"duration":0.16442665136718748,"durationTicks":477,"midi":43,"name":"G2","ticks":4642,"time":1.600143638671875,"velocity":0.9212598425196851},{"duration":0.16442665136718748,"durationTicks":477,"midi":50,"name":"D3","ticks":4642,"time":1.600143638671875,"velocity":0.9212598425196851},{"duration":0.17476795019531233,"durationTicks":507,"midi":55,"name":"G3","ticks":4642,"time":1.600143638671875,"velocity":1},{"duration":0.17545737011718732,"durationTicks":509,"midi":67,"name":"G4","ticks":5655,"time":1.9493348291015624,"velocity":0.7322834645669292},{"duration":0.17545737011718732,"durationTicks":509,"midi":70,"name":"A#4","ticks":5655,"time":1.9493348291015624,"velocity":0.84251968503937},{"duration":0.16511607128906247,"durationTicks":479,"midi":46,"name":"A#2","ticks":5655,"time":1.9493348291015624,"velocity":0.9212598425196851},{"duration":0.16511607128906247,"durationTicks":479,"midi":55,"name":"G3","ticks":5655,"time":1.9493348291015624,"velocity":0.9212598425196851},{"duration":0.17545737011718732,"durationTicks":509,"midi":58,"name":"A#3","ticks":5655,"time":1.9493348291015624,"velocity":1},{"duration":0.16561193457031242,"durationTicks":479,"midi":62,"name":"D4","ticks":6165,"time":2.1251369091796874,"velocity":0.7559055118110236},{"duration":0.17605120214843772,"durationTicks":509,"midi":67,"name":"G4","ticks":6165,"time":2.1251369091796874,"velocity":0.8661417322834646},{"duration":0.16561193457031242,"durationTicks":479,"midi":43,"name":"G2","ticks":6165,"time":2.1251369091796874,"velocity":0.9448818897637795},{"duration":0.16561193457031242,"durationTicks":479,"midi":50,"name":"D3","ticks":6165,"time":2.1251369091796874,"velocity":0.9448818897637795},{"duration":0.17605120214843772,"durationTicks":509,"midi":55,"name":"G3","ticks":6165,"time":2.1251369091796874,"velocity":1},{"duration":0.17796262890625014,"durationTicks":504,"midi":67,"name":"G4","ticks":7180,"time":2.4782506328125002,"velocity":0.7401574803149606},{"duration":0.17796262890625014,"durationTicks":504,"midi":70,"name":"A#4","ticks":7180,"time":2.4782506328125002,"velocity":0.8503937007874016},{"duration":0.16733077343750002,"durationTicks":474,"midi":46,"name":"A#2","ticks":7180,"time":2.4782506328125002,"velocity":0.9291338582677166},{"duration":0.16733077343750002,"durationTicks":474,"midi":55,"name":"G3","ticks":7180,"time":2.4782506328125002,"velocity":0.9291338582677166},{"duration":0.17796262890625014,"durationTicks":504,"midi":58,"name":"A#3","ticks":7180,"time":2.4782506328125002,"velocity":1},{"duration":0.17006484667968724,"durationTicks":476,"midi":62,"name":"D4","ticks":7685,"time":2.656569514648438,"velocity":0.7322834645669292},{"duration":0.17006484667968724,"durationTicks":476,"midi":67,"name":"G4","ticks":7685,"time":2.656569514648438,"velocity":0.84251968503937},{"duration":0.17006484667968724,"durationTicks":476,"midi":43,"name":"G2","ticks":7685,"time":2.656569514648438,"velocity":0.9212598425196851},{"duration":0.17006484667968724,"durationTicks":476,"midi":50,"name":"D3","ticks":7685,"time":2.656569514648438,"velocity":0.9212598425196851},{"duration":0.1808175615234373,"durationTicks":506,"midi":55,"name":"G3","ticks":7685,"time":2.656569514648438,"velocity":1},{"duration":0.1864880888671876,"durationTicks":541,"midi":48,"name":"C3","ticks":8196,"time":2.83912433984375,"velocity":0.7322834645669292},{"duration":0.16442665136718748,"durationTicks":477,"midi":48,"name":"C3","ticks":8738,"time":3.025957138671875,"velocity":0.6929133858267716},{"duration":0.16339252148437522,"durationTicks":474,"midi":43,"name":"G2","ticks":9246,"time":3.201069798828125,"velocity":0.7007874015748031},{"duration":0.16511607128906247,"durationTicks":479,"midi":46,"name":"A#2","ticks":9751,"time":3.3751483291015627,"velocity":0.6929133858267716},{"duration":0.17545737011718732,"durationTicks":509,"midi":48,"name":"C3","ticks":10261,"time":3.5509504091796877,"velocity":0.7165354330708661},{"duration":0.16339252148437522,"durationTicks":474,"midi":48,"name":"C3","ticks":10771,"time":3.7267524892578123,"velocity":0.6929133858267716},{"duration":0.16339252148437522,"durationTicks":474,"midi":43,"name":"G2","ticks":11276,"time":3.90083101953125,"velocity":0.7007874015748031},{"duration":0.1640819414062502,"durationTicks":476,"midi":46,"name":"A#2","ticks":11781,"time":4.074909549804687,"velocity":0.6929133858267716},{"duration":0.18648808886718804,"durationTicks":541,"midi":48,"name":"C3","ticks":12292,"time":4.25105633984375,"velocity":0.7322834645669292},{"duration":0.16442665136718748,"durationTicks":477,"midi":48,"name":"C3","ticks":12834,"time":4.437889138671875,"velocity":0.6929133858267716},{"duration":0.16339252148437478,"durationTicks":474,"midi":43,"name":"G2","ticks":13342,"time":4.613001798828125,"velocity":0.7007874015748031},{"duration":0.16511607128906203,"durationTicks":479,"midi":46,"name":"A#2","ticks":13847,"time":4.7870803291015624,"velocity":0.6929133858267716},{"duration":0.17545737011718643,"durationTicks":509,"midi":48,"name":"C3","ticks":14357,"time":4.962882409179688,"velocity":0.7165354330708661},{"duration":0.16339252148437478,"durationTicks":474,"midi":48,"name":"C3","ticks":14867,"time":5.1386844892578125,"velocity":0.6929133858267716},{"duration":0.16339252148437566,"durationTicks":474,"midi":43,"name":"G2","ticks":15372,"time":5.31276301953125,"velocity":0.7007874015748031},{"duration":0.1640819414062502,"durationTicks":476,"midi":46,"name":"A#2","ticks":15877,"time":5.486841549804687,"velocity":0.6929133858267716},{"duration":0.17614679003906275,"durationTicks":511,"midi":63,"name":"D#4","ticks":16388,"time":5.66298833984375,"velocity":0.7322834645669292},{"duration":0.18648808886718804,"durationTicks":541,"midi":48,"name":"C3","ticks":16388,"time":5.66298833984375,"velocity":0.7322834645669292},{"duration":0.06894199218750074,"durationTicks":200,"midi":60,"name":"C4","ticks":16930,"time":5.849821138671874,"velocity":0.6929133858267716},{"duration":0.16442665136718837,"durationTicks":477,"midi":48,"name":"C3","ticks":16930,"time":5.849821138671874,"velocity":0.6929133858267716},{"duration":0.16339252148437566,"durationTicks":474,"midi":43,"name":"G2","ticks":17438,"time":6.024933798828124,"velocity":0.7007874015748031},{"duration":0.16511607128906203,"durationTicks":479,"midi":46,"name":"A#2","ticks":17943,"time":6.199012329101563,"velocity":0.6929133858267716},{"duration":0.17545737011718643,"durationTicks":509,"midi":48,"name":"C3","ticks":18453,"time":6.374814409179688,"velocity":0.7165354330708661},{"duration":0.16339252148437478,"durationTicks":474,"midi":58,"name":"A#3","ticks":18963,"time":6.550616489257813,"velocity":0.6929133858267716},{"duration":0.16339252148437478,"durationTicks":474,"midi":48,"name":"C3","ticks":18963,"time":6.550616489257813,"velocity":0.6929133858267716},{"duration":0.06790786230468804,"durationTicks":197,"midi":60,"name":"C4","ticks":19468,"time":6.72469501953125,"velocity":0.7007874015748031},{"duration":0.16339252148437478,"durationTicks":474,"midi":43,"name":"G2","ticks":19468,"time":6.72469501953125,"velocity":0.7007874015748031},{"duration":0.3522935800781255,"durationTicks":1022,"midi":63,"name":"D#4","ticks":19973,"time":6.898773549804687,"velocity":0.6929133858267716},{"duration":0.1640819414062502,"durationTicks":476,"midi":46,"name":"A#2","ticks":19973,"time":6.898773549804687,"velocity":0.6929133858267716},{"duration":0.18648808886718715,"durationTicks":541,"midi":48,"name":"C3","ticks":20484,"time":7.07492033984375,"velocity":0.7322834645669292},{"duration":0.16442665136718748,"durationTicks":477,"midi":60,"name":"C4","ticks":21026,"time":7.2617531386718746,"velocity":0.6929133858267716},{"duration":0.16442665136718748,"durationTicks":477,"midi":48,"name":"C3","ticks":21026,"time":7.2617531386718746,"velocity":0.6929133858267716},{"duration":0.16339252148437566,"durationTicks":474,"midi":43,"name":"G2","ticks":21534,"time":7.436865798828125,"velocity":0.7007874015748031},{"duration":0.16511607128906203,"durationTicks":479,"midi":46,"name":"A#2","ticks":22039,"time":7.610944329101563,"velocity":0.6929133858267716},{"duration":0.17545737011718732,"durationTicks":509,"midi":48,"name":"C3","ticks":22549,"time":7.786746409179687,"velocity":0.7165354330708661},{"duration":0.16339252148437655,"durationTicks":474,"midi":65,"name":"F4","ticks":23059,"time":7.962548489257812,"velocity":0.6929133858267716},{"duration":0.16339252148437655,"durationTicks":474,"midi":48,"name":"C3","ticks":23059,"time":7.962548489257812,"velocity":0.6929133858267716},{"duration":0.34850177050781284,"durationTicks":1011,"midi":67,"name":"G4","ticks":23564,"time":8.13662701953125,"velocity":0.7007874015748031},{"duration":0.16339252148437566,"durationTicks":474,"midi":43,"name":"G2","ticks":23564,"time":8.13662701953125,"velocity":0.7007874015748031},{"duration":0.1744232402343755,"durationTicks":506,"midi":46,"name":"A#2","ticks":24069,"time":8.310705549804688,"velocity":0.6929133858267716},{"duration":0.09548465917968585,"durationTicks":277,"midi":63,"name":"D#4","ticks":24580,"time":8.48685233984375,"velocity":0.7322834645669292},{"duration":0.18648808886718626,"durationTicks":541,"midi":46,"name":"A#2","ticks":24580,"time":8.48685233984375,"velocity":0.7322834645669292},{"duration":0.08031742089843874,"durationTicks":233,"midi":62,"name":"D4","ticks":24873,"time":8.587852358398436,"velocity":0.6929133858267716},{"duration":0.1644266513671866,"durationTicks":477,"midi":60,"name":"C4","ticks":25122,"time":8.673685138671875,"velocity":0.6929133858267716},{"duration":0.1644266513671866,"durationTicks":477,"midi":46,"name":"A#2","ticks":25122,"time":8.673685138671875,"velocity":0.6929133858267716},{"duration":0.1633925214843739,"durationTicks":474,"midi":41,"name":"F2","ticks":25630,"time":8.848797798828125,"velocity":0.7007874015748031},{"duration":0.16511607128906292,"durationTicks":479,"midi":44,"name":"G#2","ticks":26135,"time":9.022876329101562,"velocity":0.6929133858267716},{"duration":0.17545737011718643,"durationTicks":509,"midi":46,"name":"A#2","ticks":26645,"time":9.198678409179688,"velocity":0.7165354330708661},{"duration":0.1633925214843739,"durationTicks":474,"midi":55,"name":"G3","ticks":27155,"time":9.374480489257813,"velocity":0.6929133858267716},{"duration":0.1633925214843739,"durationTicks":474,"midi":46,"name":"A#2","ticks":27155,"time":9.374480489257813,"velocity":0.6929133858267716},{"duration":0.16339252148437566,"durationTicks":474,"midi":63,"name":"D#4","ticks":27660,"time":9.54855901953125,"velocity":0.7007874015748031},{"duration":0.16339252148437566,"durationTicks":474,"midi":41,"name":"F2","ticks":27660,"time":9.54855901953125,"velocity":0.7007874015748031},{"duration":0.3522935800781255,"durationTicks":1022,"midi":60,"name":"C4","ticks":28165,"time":9.722637549804688,"velocity":0.6929133858267716},{"duration":0.16408194140624843,"durationTicks":476,"midi":44,"name":"G#2","ticks":28165,"time":9.722637549804688,"velocity":0.6929133858267716},{"duration":0.18648808886718626,"durationTicks":541,"midi":46,"name":"A#2","ticks":28676,"time":9.89878433984375,"velocity":0.7322834645669292},{"duration":0.1644266513671866,"durationTicks":477,"midi":58,"name":"A#3","ticks":29218,"time":10.085617138671875,"velocity":0.6929133858267716},{"duration":0.1644266513671866,"durationTicks":477,"midi":46,"name":"A#2","ticks":29218,"time":10.085617138671875,"velocity":0.6929133858267716},{"duration":0.34953590039062554,"durationTicks":1014,"midi":60,"name":"C4","ticks":29726,"time":10.260729798828125,"velocity":0.7007874015748031},{"duration":0.1633925214843739,"durationTicks":474,"midi":41,"name":"F2","ticks":29726,"time":10.260729798828125,"velocity":0.7007874015748031},{"duration":0.16511607128906292,"durationTicks":479,"midi":44,"name":"G#2","ticks":30231,"time":10.434808329101562,"velocity":0.6929133858267716},{"duration":0.16511607128906114,"durationTicks":479,"midi":58,"name":"A#3","ticks":30741,"time":10.610610409179689,"velocity":0.7165354330708661},{"duration":0.17545737011718643,"durationTicks":509,"midi":46,"name":"A#2","ticks":30741,"time":10.610610409179689,"velocity":0.7165354330708661},{"duration":0.3478123505859365,"durationTicks":1009,"midi":60,"name":"C4","ticks":31251,"time":10.786412489257813,"velocity":0.6929133858267716},{"duration":0.16339252148437566,"durationTicks":474,"midi":46,"name":"A#2","ticks":31251,"time":10.786412489257813,"velocity":0.6929133858267716},{"duration":0.16339252148437566,"durationTicks":474,"midi":41,"name":"F2","ticks":31756,"time":10.96049101953125,"velocity":0.7007874015748031},{"duration":0.16408194140624843,"durationTicks":476,"midi":58,"name":"A#3","ticks":32261,"time":11.134569549804688,"velocity":0.6929133858267716},{"duration":0.1744232402343755,"durationTicks":506,"midi":44,"name":"G#2","ticks":32261,"time":11.134569549804688,"velocity":0.6929133858267716},{"duration":0.17614679003906275,"durationTicks":511,"midi":65,"name":"F4","ticks":32772,"time":11.31071633984375,"velocity":0.7322834645669292},{"duration":0.18648808886718626,"durationTicks":541,"midi":44,"name":"G#2","ticks":32772,"time":11.31071633984375,"velocity":0.7322834645669292},{"duration":0.06894199218750074,"durationTicks":200,"midi":63,"name":"D#4","ticks":33314,"time":11.497549138671875,"velocity":0.6929133858267716},{"duration":0.1644266513671866,"durationTicks":477,"midi":44,"name":"G#2","ticks":33314,"time":11.497549138671875,"velocity":0.6929133858267716},{"duration":0.16339252148437566,"durationTicks":474,"midi":39,"name":"D#2","ticks":33822,"time":11.672661798828123,"velocity":0.6929133858267716},{"duration":0.16511607128906292,"durationTicks":479,"midi":42,"name":"F#2","ticks":34327,"time":11.84674032910156,"velocity":0.6929133858267716},{"duration":0.17545737011718643,"durationTicks":509,"midi":44,"name":"G#2","ticks":34837,"time":12.022542409179689,"velocity":0.7165354330708661},{"duration":0.1633925214843721,"durationTicks":474,"midi":65,"name":"F4","ticks":35347,"time":12.198344489257813,"velocity":0.6929133858267716},{"duration":0.1633925214843721,"durationTicks":474,"midi":44,"name":"G#2","ticks":35347,"time":12.198344489257813,"velocity":0.6929133858267716},{"duration":0.06790786230468626,"durationTicks":197,"midi":63,"name":"D#4","ticks":35852,"time":12.37242301953125,"velocity":0.7007874015748031},{"duration":0.16339252148437566,"durationTicks":474,"midi":39,"name":"D#2","ticks":35852,"time":12.37242301953125,"velocity":0.6929133858267716},{"duration":0.16408194140624843,"durationTicks":476,"midi":42,"name":"F#2","ticks":36357,"time":12.546501549804688,"velocity":0.6929133858267716},{"duration":0.17614679003906275,"durationTicks":511,"midi":60,"name":"C4","ticks":36868,"time":12.72264833984375,"velocity":0.7322834645669292},{"duration":0.18648808886718626,"durationTicks":541,"midi":44,"name":"G#2","ticks":36868,"time":12.72264833984375,"velocity":0.7322834645669292},{"duration":0.1644266513671866,"durationTicks":477,"midi":63,"name":"D#4","ticks":37410,"time":12.909481138671875,"velocity":0.6929133858267716},{"duration":0.1644266513671866,"durationTicks":477,"midi":44,"name":"G#2","ticks":37410,"time":12.909481138671875,"velocity":0.6929133858267716},{"duration":0.16339252148437566,"durationTicks":474,"midi":39,"name":"D#2","ticks":37918,"time":13.084593798828124,"velocity":0.6929133858267716},{"duration":0.16511607128906292,"durationTicks":479,"midi":60,"name":"C4","ticks":38423,"time":13.258672329101561,"velocity":0.6929133858267716},{"duration":0.16511607128906292,"durationTicks":479,"midi":42,"name":"F#2","ticks":38423,"time":13.258672329101561,"velocity":0.6929133858267716},{"duration":0.16511607128905936,"durationTicks":479,"midi":63,"name":"D#4","ticks":38933,"time":13.434474409179689,"velocity":0.7165354330708661},{"duration":0.17545737011718643,"durationTicks":509,"midi":44,"name":"G#2","ticks":38933,"time":13.434474409179689,"velocity":0.7165354330708661},{"duration":0.1633925214843721,"durationTicks":474,"midi":65,"name":"F4","ticks":39443,"time":13.610276489257814,"velocity":0.6929133858267716},{"duration":0.1633925214843721,"durationTicks":474,"midi":44,"name":"G#2","ticks":39443,"time":13.610276489257814,"velocity":0.6929133858267716},{"duration":0.1633925214843721,"durationTicks":474,"midi":66,"name":"F#4","ticks":39948,"time":13.784355019531251,"velocity":0.7007874015748031},{"duration":0.1633925214843721,"durationTicks":474,"midi":39,"name":"D#2","ticks":39948,"time":13.784355019531251,"velocity":0.6929133858267716},{"duration":0.16408194140624843,"durationTicks":476,"midi":67,"name":"G4","ticks":40453,"time":13.958433549804688,"velocity":0.6929133858267716},{"duration":0.16408194140624843,"durationTicks":476,"midi":42,"name":"F#2","ticks":40453,"time":13.958433549804688,"velocity":0.6929133858267716},{"duration":0.17614679003906275,"durationTicks":511,"midi":70,"name":"A#4","ticks":40964,"time":14.134580339843751,"velocity":0.7322834645669292},{"duration":0.18648808886718626,"durationTicks":541,"midi":43,"name":"G2","ticks":40964,"time":14.134580339843751,"velocity":0.7322834645669292},{"duration":0.1644266513671866,"durationTicks":477,"midi":67,"name":"G4","ticks":41506,"time":14.321413138671875,"velocity":0.6929133858267716},{"duration":0.1644266513671866,"durationTicks":477,"midi":43,"name":"G2","ticks":41506,"time":14.321413138671875,"velocity":0.6929133858267716},{"duration":0.06790786230468981,"durationTicks":197,"midi":58,"name":"A#3","ticks":42014,"time":14.496525798828124,"velocity":0.7007874015748031},{"duration":0.16339252148437566,"durationTicks":474,"midi":38,"name":"D2","ticks":42014,"time":14.496525798828124,"velocity":0.6929133858267716},{"duration":0.06963141210937707,"durationTicks":202,"midi":55,"name":"G3","ticks":42519,"time":14.670604329101561,"velocity":0.6929133858267716},{"duration":0.16511607128906292,"durationTicks":479,"midi":41,"name":"F2","ticks":42519,"time":14.670604329101561,"velocity":0.6929133858267716},{"duration":0.06963141210937707,"durationTicks":202,"midi":82,"name":"A#5","ticks":43029,"time":14.846406409179686,"velocity":0.7165354330708661},{"duration":0.17545737011718998,"durationTicks":509,"midi":43,"name":"G2","ticks":43029,"time":14.846406409179686,"velocity":0.7165354330708661},{"duration":0.06790786230468626,"durationTicks":197,"midi":79,"name":"G5","ticks":43539,"time":15.022208489257814,"velocity":0.6929133858267716},{"duration":0.1633925214843721,"durationTicks":474,"midi":43,"name":"G2","ticks":43539,"time":15.022208489257814,"velocity":0.6929133858267716},{"duration":0.1633925214843721,"durationTicks":474,"midi":70,"name":"A#4","ticks":44044,"time":15.196287019531251,"velocity":0.7007874015748031},{"duration":0.1633925214843721,"durationTicks":474,"midi":38,"name":"D2","ticks":44044,"time":15.196287019531251,"velocity":0.6929133858267716},{"duration":0.16408194140624843,"durationTicks":476,"midi":67,"name":"G4","ticks":44549,"time":15.370365549804688,"velocity":0.6929133858267716},{"duration":0.16408194140624843,"durationTicks":476,"midi":41,"name":"F2","ticks":44549,"time":15.370365549804688,"velocity":0.6929133858267716},{"duration":0.08066213085937335,"durationTicks":234,"midi":58,"name":"A#3","ticks":45060,"time":15.546512339843751,"velocity":0.7322834645669292},{"duration":0.18648808886718626,"durationTicks":541,"midi":43,"name":"G2","ticks":45060,"time":15.546512339843751,"velocity":0.7322834645669292},{"duration":0.06894199218750074,"durationTicks":200,"midi":55,"name":"G3","ticks":45602,"time":15.733345138671876,"velocity":0.6929133858267716},{"duration":0.1644266513671866,"durationTicks":477,"midi":43,"name":"G2","ticks":45602,"time":15.733345138671876,"velocity":0.6929133858267716},{"duration":0.06790786230468981,"durationTicks":197,"midi":82,"name":"A#5","ticks":46110,"time":15.908457798828124,"velocity":0.7007874015748031},{"duration":0.16339252148437566,"durationTicks":474,"midi":38,"name":"D2","ticks":46110,"time":15.908457798828124,"velocity":0.6929133858267716},{"duration":0.06963141210937707,"durationTicks":202,"midi":79,"name":"G5","ticks":46615,"time":16.08253632910156,"velocity":0.6929133858267716},{"duration":0.16511607128906292,"durationTicks":479,"midi":41,"name":"F2","ticks":46615,"time":16.08253632910156,"velocity":0.6929133858267716},{"duration":0.16537746582030977,"durationTicks":479,"midi":70,"name":"A#4","ticks":47125,"time":16.258338409179686,"velocity":0.7165354330708661},{"duration":0.1757682001953107,"durationTicks":509,"midi":43,"name":"G2","ticks":47125,"time":16.258338409179686,"velocity":0.7165354330708661},{"duration":0.1646127011718761,"durationTicks":474,"midi":67,"name":"G4","ticks":47635,"time":16.434453351562496,"velocity":0.6929133858267716},{"duration":0.1646127011718761,"durationTicks":474,"midi":43,"name":"G2","ticks":47635,"time":16.434453351562496,"velocity":0.6929133858267716},{"duration":0.1655828671875028,"durationTicks":474,"midi":58,"name":"A#3","ticks":48140,"time":16.609860324218744,"velocity":0.7007874015748031},{"duration":0.1655828671875028,"durationTicks":474,"midi":38,"name":"D2","ticks":48140,"time":16.609860324218744,"velocity":0.6929133858267716},{"duration":0.16726816308593584,"durationTicks":476,"midi":59,"name":"B3","ticks":48645,"time":16.78629488964843,"velocity":0.6929133858267716},{"duration":0.16726816308593584,"durationTicks":476,"midi":41,"name":"F2","ticks":48645,"time":16.78629488964843,"velocity":0.6929133858267716},{"duration":0.17614679003906275,"durationTicks":511,"midi":63,"name":"D#4","ticks":49156,"time":16.965853589843743,"velocity":0.7322834645669292},{"duration":0.18648808886718982,"durationTicks":541,"midi":48,"name":"C3","ticks":49156,"time":16.965853589843743,"velocity":0.7322834645669292},{"duration":0.06894199218750074,"durationTicks":200,"midi":60,"name":"C4","ticks":49698,"time":17.152686388671867,"velocity":0.6929133858267716},{"duration":0.16442665136719015,"durationTicks":477,"midi":48,"name":"C3","ticks":49698,"time":17.152686388671867,"velocity":0.6929133858267716},{"duration":0.16339252148437566,"durationTicks":474,"midi":43,"name":"G2","ticks":50206,"time":17.32779904882812,"velocity":0.7007874015748031},{"duration":0.16511607128906292,"durationTicks":479,"midi":46,"name":"A#2","ticks":50711,"time":17.501877579101556,"velocity":0.6929133858267716},{"duration":0.17545737011718643,"durationTicks":509,"midi":48,"name":"C3","ticks":51221,"time":17.67767965917968,"velocity":0.7165354330708661},{"duration":0.16339252148437566,"durationTicks":474,"midi":58,"name":"A#3","ticks":51731,"time":17.853481739257806,"velocity":0.6929133858267716},{"duration":0.16339252148437566,"durationTicks":474,"midi":48,"name":"C3","ticks":51731,"time":17.853481739257806,"velocity":0.6929133858267716},{"duration":0.06790786230468981,"durationTicks":197,"midi":60,"name":"C4","ticks":52236,"time":18.027560269531243,"velocity":0.7007874015748031},{"duration":0.16339252148437566,"durationTicks":474,"midi":43,"name":"G2","ticks":52236,"time":18.027560269531243,"velocity":0.7007874015748031},{"duration":0.3522935800781255,"durationTicks":1022,"midi":63,"name":"D#4","ticks":52741,"time":18.20163879980468,"velocity":0.6929133858267716},{"duration":0.16408194140625199,"durationTicks":476,"midi":46,"name":"A#2","ticks":52741,"time":18.20163879980468,"velocity":0.6929133858267716},{"duration":0.18648808886718982,"durationTicks":541,"midi":48,"name":"C3","ticks":53252,"time":18.377785589843743,"velocity":0.7322834645669292},{"duration":0.16442665136719015,"durationTicks":477,"midi":60,"name":"C4","ticks":53794,"time":18.564618388671867,"velocity":0.6929133858267716},{"duration":0.16442665136719015,"durationTicks":477,"midi":48,"name":"C3","ticks":53794,"time":18.564618388671867,"velocity":0.6929133858267716},{"duration":0.16339252148437566,"durationTicks":474,"midi":43,"name":"G2","ticks":54302,"time":18.73973104882812,"velocity":0.7007874015748031},{"duration":0.16511607128906292,"durationTicks":479,"midi":46,"name":"A#2","ticks":54807,"time":18.913809579101557,"velocity":0.6929133858267716},{"duration":0.17545737011718643,"durationTicks":509,"midi":48,"name":"C3","ticks":55317,"time":19.08961165917968,"velocity":0.7165354330708661},{"duration":0.16339252148437566,"durationTicks":474,"midi":65,"name":"F4","ticks":55827,"time":19.265413739257806,"velocity":0.6929133858267716},{"duration":0.16339252148437566,"durationTicks":474,"midi":48,"name":"C3","ticks":55827,"time":19.265413739257806,"velocity":0.6929133858267716},{"duration":0.34850177050781284,"durationTicks":1011,"midi":67,"name":"G4","ticks":56332,"time":19.439492269531243,"velocity":0.7007874015748031},{"duration":0.16339252148437566,"durationTicks":474,"midi":43,"name":"G2","ticks":56332,"time":19.439492269531243,"velocity":0.7007874015748031},{"duration":0.1744232402343755,"durationTicks":506,"midi":46,"name":"A#2","ticks":56837,"time":19.61357079980468,"velocity":0.6929133858267716},{"duration":0.0954846591796894,"durationTicks":277,"midi":63,"name":"D#4","ticks":57348,"time":19.789717589843743,"velocity":0.7322834645669292},{"duration":0.18648808886718982,"durationTicks":541,"midi":46,"name":"A#2","ticks":57348,"time":19.789717589843743,"velocity":0.7322834645669292},{"duration":0.08031742089843519,"durationTicks":233,"midi":62,"name":"D4","ticks":57641,"time":19.890717608398433,"velocity":0.6929133858267716},{"duration":0.1644266513671866,"durationTicks":477,"midi":60,"name":"C4","ticks":57890,"time":19.976550388671868,"velocity":0.6929133858267716},{"duration":0.1644266513671866,"durationTicks":477,"midi":46,"name":"A#2","ticks":57890,"time":19.976550388671868,"velocity":0.6929133858267716},{"duration":0.16339252148437566,"durationTicks":474,"midi":41,"name":"F2","ticks":58398,"time":20.15166304882812,"velocity":0.7007874015748031},{"duration":0.16511607128906292,"durationTicks":479,"midi":44,"name":"G#2","ticks":58903,"time":20.325741579101557,"velocity":0.6929133858267716},{"duration":0.17545737011718643,"durationTicks":509,"midi":46,"name":"A#2","ticks":59413,"time":20.50154365917968,"velocity":0.7165354330708661},{"duration":0.16339252148437566,"durationTicks":474,"midi":55,"name":"G3","ticks":59923,"time":20.677345739257806,"velocity":0.6929133858267716},{"duration":0.16339252148437566,"durationTicks":474,"midi":46,"name":"A#2","ticks":59923,"time":20.677345739257806,"velocity":0.6929133858267716},{"duration":0.16339252148437566,"durationTicks":474,"midi":63,"name":"D#4","ticks":60428,"time":20.851424269531243,"velocity":0.7007874015748031},{"duration":0.16339252148437566,"durationTicks":474,"midi":41,"name":"F2","ticks":60428,"time":20.851424269531243,"velocity":0.7007874015748031},{"duration":0.3522935800781255,"durationTicks":1022,"midi":60,"name":"C4","ticks":60933,"time":21.02550279980468,"velocity":0.6929133858267716},{"duration":0.16408194140624843,"durationTicks":476,"midi":44,"name":"G#2","ticks":60933,"time":21.02550279980468,"velocity":0.6929133858267716},{"duration":0.18648808886718982,"durationTicks":541,"midi":46,"name":"A#2","ticks":61444,"time":21.201649589843743,"velocity":0.7322834645669292},{"duration":0.1644266513671866,"durationTicks":477,"midi":58,"name":"A#3","ticks":61986,"time":21.388482388671868,"velocity":0.6929133858267716},{"duration":0.1644266513671866,"durationTicks":477,"midi":46,"name":"A#2","ticks":61986,"time":21.388482388671868,"velocity":0.6929133858267716},{"duration":0.34953590039062377,"durationTicks":1014,"midi":60,"name":"C4","ticks":62494,"time":21.56359504882812,"velocity":0.7007874015748031},{"duration":0.16339252148437566,"durationTicks":474,"midi":41,"name":"F2","ticks":62494,"time":21.56359504882812,"velocity":0.7007874015748031},{"duration":0.16511607128906292,"durationTicks":479,"midi":44,"name":"G#2","ticks":62999,"time":21.737673579101557,"velocity":0.6929133858267716},{"duration":0.16511607128906292,"durationTicks":479,"midi":58,"name":"A#3","ticks":63509,"time":21.91347565917968,"velocity":0.7165354330708661},{"duration":0.17545737011718643,"durationTicks":509,"midi":46,"name":"A#2","ticks":63509,"time":21.91347565917968,"velocity":0.7165354330708661},{"duration":0.3478123505859365,"durationTicks":1009,"midi":60,"name":"C4","ticks":64019,"time":22.089277739257806,"velocity":0.6929133858267716},{"duration":0.16339252148437566,"durationTicks":474,"midi":46,"name":"A#2","ticks":64019,"time":22.089277739257806,"velocity":0.6929133858267716},{"duration":0.16339252148437566,"durationTicks":474,"midi":41,"name":"F2","ticks":64524,"time":22.263356269531243,"velocity":0.7007874015748031},{"duration":0.16408194140624843,"durationTicks":476,"midi":58,"name":"A#3","ticks":65029,"time":22.43743479980468,"velocity":0.6929133858267716},{"duration":0.1744232402343755,"durationTicks":506,"midi":44,"name":"G#2","ticks":65029,"time":22.43743479980468,"velocity":0.6929133858267716},{"duration":0.17614679003906275,"durationTicks":511,"midi":65,"name":"F4","ticks":65540,"time":22.613581589843744,"velocity":0.7322834645669292},{"duration":0.18648808886718626,"durationTicks":541,"midi":44,"name":"G#2","ticks":65540,"time":22.613581589843744,"velocity":0.7322834645669292},{"duration":0.06894199218750074,"durationTicks":200,"midi":63,"name":"D#4","ticks":66082,"time":22.800414388671868,"velocity":0.6929133858267716},{"duration":0.1644266513671866,"durationTicks":477,"midi":44,"name":"G#2","ticks":66082,"time":22.800414388671868,"velocity":0.6929133858267716},{"duration":0.16339252148437566,"durationTicks":474,"midi":39,"name":"D#2","ticks":66590,"time":22.97552704882812,"velocity":0.6929133858267716},{"duration":0.16511607128905936,"durationTicks":479,"midi":42,"name":"F#2","ticks":67095,"time":23.149605579101557,"velocity":0.6929133858267716},{"duration":0.17545737011718643,"durationTicks":509,"midi":44,"name":"G#2","ticks":67605,"time":23.32540765917968,"velocity":0.7165354330708661},{"duration":0.16339252148437566,"durationTicks":474,"midi":65,"name":"F4","ticks":68115,"time":23.501209739257806,"velocity":0.6929133858267716},{"duration":0.16339252148437566,"durationTicks":474,"midi":44,"name":"G#2","ticks":68115,"time":23.501209739257806,"velocity":0.6929133858267716},{"duration":0.06790786230468626,"durationTicks":197,"midi":63,"name":"D#4","ticks":68620,"time":23.675288269531244,"velocity":0.7007874015748031},{"duration":0.16339252148437566,"durationTicks":474,"midi":39,"name":"D#2","ticks":68620,"time":23.675288269531244,"velocity":0.6929133858267716},{"duration":0.16408194140624843,"durationTicks":476,"midi":42,"name":"F#2","ticks":69125,"time":23.84936679980468,"velocity":0.6929133858267716},{"duration":0.17614679003906275,"durationTicks":511,"midi":60,"name":"C4","ticks":69636,"time":24.025513589843744,"velocity":0.7322834645669292},{"duration":0.18648808886718626,"durationTicks":541,"midi":44,"name":"G#2","ticks":69636,"time":24.025513589843744,"velocity":0.7322834645669292},{"duration":0.1644266513671866,"durationTicks":477,"midi":63,"name":"D#4","ticks":70178,"time":24.212346388671868,"velocity":0.6929133858267716},{"duration":0.1644266513671866,"durationTicks":477,"midi":44,"name":"G#2","ticks":70178,"time":24.212346388671868,"velocity":0.6929133858267716},{"duration":0.16339252148437566,"durationTicks":474,"midi":39,"name":"D#2","ticks":70686,"time":24.38745904882812,"velocity":0.6929133858267716},{"duration":0.16511607128905936,"durationTicks":479,"midi":60,"name":"C4","ticks":71191,"time":24.561537579101557,"velocity":0.6929133858267716},{"duration":0.16511607128905936,"durationTicks":479,"midi":42,"name":"F#2","ticks":71191,"time":24.561537579101557,"velocity":0.6929133858267716},{"duration":0.16511607128906292,"durationTicks":479,"midi":63,"name":"D#4","ticks":71701,"time":24.737339659179682,"velocity":0.7165354330708661},{"duration":0.17545737011718643,"durationTicks":509,"midi":44,"name":"G#2","ticks":71701,"time":24.737339659179682,"velocity":0.7165354330708661},{"duration":0.1633925214843721,"durationTicks":474,"midi":65,"name":"F4","ticks":72211,"time":24.913141739257807,"velocity":0.6929133858267716},{"duration":0.1633925214843721,"durationTicks":474,"midi":44,"name":"G#2","ticks":72211,"time":24.913141739257807,"velocity":0.6929133858267716},{"duration":0.16339252148437566,"durationTicks":474,"midi":66,"name":"F#4","ticks":72716,"time":25.087220269531244,"velocity":0.7007874015748031},{"duration":0.16339252148437566,"durationTicks":474,"midi":39,"name":"D#2","ticks":72716,"time":25.087220269531244,"velocity":0.6929133858267716},{"duration":0.16408194140624843,"durationTicks":476,"midi":67,"name":"G4","ticks":73221,"time":25.26129879980468,"velocity":0.6929133858267716},{"duration":0.16408194140624843,"durationTicks":476,"midi":42,"name":"F#2","ticks":73221,"time":25.26129879980468,"velocity":0.6929133858267716},{"duration":0.17614679003906275,"durationTicks":511,"midi":70,"name":"A#4","ticks":73732,"time":25.437445589843744,"velocity":0.7322834645669292},{"duration":0.18648808886718626,"durationTicks":541,"midi":43,"name":"G2","ticks":73732,"time":25.437445589843744,"velocity":0.7322834645669292},{"duration":0.1644266513671866,"durationTicks":477,"midi":67,"name":"G4","ticks":74274,"time":25.62427838867187,"velocity":0.6929133858267716},{"duration":0.1644266513671866,"durationTicks":477,"midi":43,"name":"G2","ticks":74274,"time":25.62427838867187,"velocity":0.6929133858267716},{"duration":0.06790786230468626,"durationTicks":197,"midi":58,"name":"A#3","ticks":74782,"time":25.79939104882812,"velocity":0.7007874015748031},{"duration":0.16339252148437566,"durationTicks":474,"midi":38,"name":"D2","ticks":74782,"time":25.79939104882812,"velocity":0.6929133858267716},{"duration":0.06963141210937707,"durationTicks":202,"midi":55,"name":"G3","ticks":75287,"time":25.973469579101554,"velocity":0.6929133858267716},{"duration":0.16511607128906292,"durationTicks":479,"midi":41,"name":"F2","ticks":75287,"time":25.973469579101554,"velocity":0.6929133858267716},{"duration":0.06963141210937351,"durationTicks":202,"midi":82,"name":"A#5","ticks":75797,"time":26.149271659179682,"velocity":0.7165354330708661},{"duration":0.17545737011718643,"durationTicks":509,"midi":43,"name":"G2","ticks":75797,"time":26.149271659179682,"velocity":0.7165354330708661},{"duration":0.06790786230468626,"durationTicks":197,"midi":79,"name":"G5","ticks":76307,"time":26.325073739257807,"velocity":0.6929133858267716},{"duration":0.1633925214843721,"durationTicks":474,"midi":43,"name":"G2","ticks":76307,"time":26.325073739257807,"velocity":0.6929133858267716},{"duration":0.16339252148437566,"durationTicks":474,"midi":70,"name":"A#4","ticks":76812,"time":26.499152269531244,"velocity":0.7007874015748031},{"duration":0.16339252148437566,"durationTicks":474,"midi":38,"name":"D2","ticks":76812,"time":26.499152269531244,"velocity":0.6929133858267716},{"duration":0.16408194140624843,"durationTicks":476,"midi":67,"name":"G4","ticks":77317,"time":26.67323079980468,"velocity":0.6929133858267716},{"duration":0.16408194140624843,"durationTicks":476,"midi":41,"name":"F2","ticks":77317,"time":26.67323079980468,"velocity":0.6929133858267716},{"duration":0.0806621308593769,"durationTicks":234,"midi":58,"name":"A#3","ticks":77828,"time":26.849377589843744,"velocity":0.7322834645669292},{"duration":0.18648808886718626,"durationTicks":541,"midi":43,"name":"G2","ticks":77828,"time":26.849377589843744,"velocity":0.7322834645669292},{"duration":0.06894199218750074,"durationTicks":200,"midi":55,"name":"G3","ticks":78370,"time":27.03621038867187,"velocity":0.6929133858267716},{"duration":0.1644266513671866,"durationTicks":477,"midi":43,"name":"G2","ticks":78370,"time":27.03621038867187,"velocity":0.6929133858267716},{"duration":0.06790786230468626,"durationTicks":197,"midi":82,"name":"A#5","ticks":78878,"time":27.21132304882812,"velocity":0.7007874015748031},{"duration":0.16339252148437566,"durationTicks":474,"midi":38,"name":"D2","ticks":78878,"time":27.21132304882812,"velocity":0.6929133858267716},{"duration":0.06963141210937707,"durationTicks":202,"midi":79,"name":"G5","ticks":79383,"time":27.385401579101554,"velocity":0.6929133858267716},{"duration":0.16511607128906292,"durationTicks":479,"midi":41,"name":"F2","ticks":79383,"time":27.385401579101554,"velocity":0.6929133858267716},{"duration":0.16511607128906292,"durationTicks":479,"midi":70,"name":"A#4","ticks":79893,"time":27.561203659179682,"velocity":0.7165354330708661},{"duration":0.17545737011718643,"durationTicks":509,"midi":43,"name":"G2","ticks":79893,"time":27.561203659179682,"velocity":0.7165354330708661},{"duration":0.16339252148437566,"durationTicks":474,"midi":67,"name":"G4","ticks":80403,"time":27.737005739257803,"velocity":0.6929133858267716},{"duration":0.16339252148437566,"durationTicks":474,"midi":43,"name":"G2","ticks":80403,"time":27.737005739257803,"velocity":0.6929133858267716},{"duration":0.16339252148437566,"durationTicks":474,"midi":58,"name":"A#3","ticks":80908,"time":27.911084269531244,"velocity":0.7007874015748031},{"duration":0.16339252148437566,"durationTicks":474,"midi":38,"name":"D2","ticks":80908,"time":27.911084269531244,"velocity":0.6929133858267716},{"duration":0.16408194140624843,"durationTicks":476,"midi":59,"name":"B3","ticks":81413,"time":28.08516279980468,"velocity":0.6929133858267716},{"duration":0.16408194140624843,"durationTicks":476,"midi":41,"name":"F2","ticks":81413,"time":28.08516279980468,"velocity":0.6929133858267716},{"duration":0.08066213085937335,"durationTicks":234,"midi":60,"name":"C4","ticks":81924,"time":28.261309589843744,"velocity":0.7322834645669292},{"duration":0.18648808886718626,"durationTicks":541,"midi":44,"name":"G#2","ticks":81924,"time":28.261309589843744,"velocity":0.7322834645669292},{"duration":0.06894199218749719,"durationTicks":200,"midi":60,"name":"C4","ticks":82466,"time":28.44814238867187,"velocity":0.6929133858267716},{"duration":0.1644266513671866,"durationTicks":477,"midi":44,"name":"G#2","ticks":82466,"time":28.44814238867187,"velocity":0.6929133858267716},{"duration":0.06790786230468626,"durationTicks":197,"midi":60,"name":"C4","ticks":82974,"time":28.62325504882812,"velocity":0.7007874015748031},{"duration":0.1633925214843721,"durationTicks":474,"midi":56,"name":"G#3","ticks":82974,"time":28.62325504882812,"velocity":0.7007874015748031},{"duration":0.06963141210937707,"durationTicks":202,"midi":62,"name":"D4","ticks":83479,"time":28.797333579101554,"velocity":0.6929133858267716},{"duration":0.17545737011718643,"durationTicks":509,"midi":46,"name":"A#2","ticks":83479,"time":28.797333579101554,"velocity":0.6929133858267716},{"duration":0.06963141210937351,"durationTicks":202,"midi":63,"name":"D#4","ticks":83989,"time":28.973135659179682,"velocity":0.7165354330708661},{"duration":0.17545737011718643,"durationTicks":509,"midi":46,"name":"A#2","ticks":83989,"time":28.973135659179682,"velocity":0.7165354330708661},{"duration":0.06790786230468981,"durationTicks":197,"midi":63,"name":"D#4","ticks":84499,"time":29.148937739257804,"velocity":0.6929133858267716},{"duration":0.16339252148437566,"durationTicks":474,"midi":46,"name":"A#2","ticks":84499,"time":29.148937739257804,"velocity":0.6929133858267716},{"duration":0.06790786230468626,"durationTicks":197,"midi":62,"name":"D4","ticks":85004,"time":29.323016269531244,"velocity":0.7007874015748031},{"duration":0.16339252148437566,"durationTicks":474,"midi":58,"name":"A#3","ticks":85004,"time":29.323016269531244,"velocity":0.7007874015748031},{"duration":0.06859728222655903,"durationTicks":199,"midi":60,"name":"C4","ticks":85509,"time":29.49709479980468,"velocity":0.6929133858267716},{"duration":0.17442324023437195,"durationTicks":506,"midi":48,"name":"C3","ticks":85509,"time":29.49709479980468,"velocity":0.6929133858267716},{"duration":0.17614679003906275,"durationTicks":511,"midi":58,"name":"A#3","ticks":86020,"time":29.67324158984374,"velocity":0.7322834645669292},{"duration":0.18648808886718982,"durationTicks":541,"midi":48,"name":"C3","ticks":86020,"time":29.67324158984374,"velocity":0.7322834645669292},{"duration":0.06894199218749719,"durationTicks":200,"midi":60,"name":"C4","ticks":86562,"time":29.86007438867187,"velocity":0.6929133858267716},{"duration":0.1644266513671866,"durationTicks":477,"midi":48,"name":"C3","ticks":86562,"time":29.86007438867187,"velocity":0.6929133858267716},{"duration":0.1633925214843721,"durationTicks":474,"midi":60,"name":"C4","ticks":87070,"time":30.03518704882812,"velocity":0.7007874015748031},{"duration":0.8741844609374994,"durationTicks":2536,"midi":55,"name":"G3","ticks":87575,"time":30.209265579101555,"velocity":0.6929133858267716},{"duration":0.17545737011718643,"durationTicks":509,"midi":48,"name":"C3","ticks":87575,"time":30.209265579101555,"velocity":0.6929133858267716},{"duration":0.17545737011718643,"durationTicks":509,"midi":48,"name":"C3","ticks":88085,"time":30.385067659179683,"velocity":0.7165354330708661},{"duration":0.16339252148437566,"durationTicks":474,"midi":48,"name":"C3","ticks":88595,"time":30.560869739257804,"velocity":0.6929133858267716},{"duration":0.16339252148437566,"durationTicks":474,"midi":60,"name":"C4","ticks":89100,"time":30.734948269531245,"velocity":0.7007874015748031},{"duration":0.16408194140625199,"durationTicks":476,"midi":58,"name":"A#3","ticks":89605,"time":30.90902679980468,"velocity":0.6929133858267716},{"duration":0.0806621308593769,"durationTicks":234,"midi":60,"name":"C4","ticks":90116,"time":31.08517358984374,"velocity":0.7322834645669292},{"duration":0.18648808886718982,"durationTicks":541,"midi":44,"name":"G#2","ticks":90116,"time":31.08517358984374,"velocity":0.7322834645669292},{"duration":0.06894199218749719,"durationTicks":200,"midi":60,"name":"C4","ticks":90658,"time":31.27200638867187,"velocity":0.6929133858267716},{"duration":0.1644266513671866,"durationTicks":477,"midi":44,"name":"G#2","ticks":90658,"time":31.27200638867187,"velocity":0.6929133858267716},{"duration":0.06790786230468626,"durationTicks":197,"midi":60,"name":"C4","ticks":91166,"time":31.44711904882812,"velocity":0.7007874015748031},{"duration":0.1633925214843721,"durationTicks":474,"midi":56,"name":"G#3","ticks":91166,"time":31.44711904882812,"velocity":0.7007874015748031},{"duration":0.06963141210937351,"durationTicks":202,"midi":62,"name":"D4","ticks":91671,"time":31.621197579101555,"velocity":0.6929133858267716},{"duration":0.17545737011718643,"durationTicks":509,"midi":46,"name":"A#2","ticks":91671,"time":31.621197579101555,"velocity":0.6929133858267716},{"duration":0.06963141210937351,"durationTicks":202,"midi":63,"name":"D#4","ticks":92181,"time":31.796999659179683,"velocity":0.7165354330708661},{"duration":0.17545737011718643,"durationTicks":509,"midi":46,"name":"A#2","ticks":92181,"time":31.796999659179683,"velocity":0.7165354330708661},{"duration":0.06790786230469337,"durationTicks":197,"midi":63,"name":"D#4","ticks":92691,"time":31.972801739257804,"velocity":0.6929133858267716},{"duration":0.16339252148437566,"durationTicks":474,"midi":46,"name":"A#2","ticks":92691,"time":31.972801739257804,"velocity":0.6929133858267716},{"duration":0.06790786230468626,"durationTicks":197,"midi":65,"name":"F4","ticks":93196,"time":32.146880269531245,"velocity":0.7007874015748031},{"duration":0.16339252148437566,"durationTicks":474,"midi":58,"name":"A#3","ticks":93196,"time":32.146880269531245,"velocity":0.7007874015748031},{"duration":0.06859728222656258,"durationTicks":199,"midi":63,"name":"D#4","ticks":93701,"time":32.32095879980468,"velocity":0.6929133858267716},{"duration":0.1744232402343755,"durationTicks":506,"midi":48,"name":"C3","ticks":93701,"time":32.32095879980468,"velocity":0.6929133858267716},{"duration":0.17614679003906275,"durationTicks":511,"midi":65,"name":"F4","ticks":94212,"time":32.49710558984374,"velocity":0.7322834645669292},{"duration":0.18648808886719337,"durationTicks":541,"midi":48,"name":"C3","ticks":94212,"time":32.49710558984374,"velocity":0.7322834645669292},{"duration":0.06894199218749719,"durationTicks":200,"midi":67,"name":"G4","ticks":94754,"time":32.68393838867187,"velocity":0.6929133858267716},{"duration":0.1644266513671866,"durationTicks":477,"midi":48,"name":"C3","ticks":94754,"time":32.68393838867187,"velocity":0.6929133858267716},{"duration":0.16339252148436856,"durationTicks":474,"midi":60,"name":"C4","ticks":95262,"time":32.85905104882812,"velocity":0.7007874015748031},{"duration":0.6994165107421892,"durationTicks":2029,"midi":67,"name":"G4","ticks":95767,"time":33.033129579101555,"velocity":0.6929133858267716},{"duration":0.17545737011718643,"durationTicks":509,"midi":48,"name":"C3","ticks":95767,"time":33.033129579101555,"velocity":0.6929133858267716},{"duration":0.17545737011718643,"durationTicks":509,"midi":48,"name":"C3","ticks":96277,"time":33.20893165917968,"velocity":0.7165354330708661},{"duration":0.16339252148437566,"durationTicks":474,"midi":48,"name":"C3","ticks":96787,"time":33.384733739257804,"velocity":0.6929133858267716},{"duration":0.16339252148436856,"durationTicks":474,"midi":60,"name":"C4","ticks":97292,"time":33.558812269531245,"velocity":0.7007874015748031},{"duration":0.07997271093749703,"durationTicks":232,"midi":63,"name":"D#4","ticks":97797,"time":33.73289079980468,"velocity":0.6929133858267716},{"duration":0.16408194140625199,"durationTicks":476,"midi":58,"name":"A#3","ticks":97797,"time":33.73289079980468,"velocity":0.6929133858267716},{"duration":0.08376452050781324,"durationTicks":243,"midi":62,"name":"D4","ticks":98045,"time":33.81837887011718,"velocity":0.6929133858267716},{"duration":0.08066213085936624,"durationTicks":234,"midi":60,"name":"C4","ticks":98308,"time":33.90903758984375,"velocity":0.7322834645669292},{"duration":0.18648808886717916,"durationTicks":541,"midi":44,"name":"G#2","ticks":98308,"time":33.90903758984375,"velocity":0.7322834645669292},{"duration":0.06894199218749719,"durationTicks":200,"midi":60,"name":"C4","ticks":98850,"time":34.09587038867187,"velocity":0.6929133858267716},{"duration":0.1644266513671866,"durationTicks":477,"midi":44,"name":"G#2","ticks":98850,"time":34.09587038867187,"velocity":0.6929133858267716},{"duration":0.06790786230469337,"durationTicks":197,"midi":60,"name":"C4","ticks":99358,"time":34.270983048828114,"velocity":0.7007874015748031},{"duration":0.16339252148438277,"durationTicks":474,"midi":56,"name":"G#3","ticks":99358,"time":34.270983048828114,"velocity":0.7007874015748031},{"duration":0.06963141210938062,"durationTicks":202,"midi":62,"name":"D4","ticks":99863,"time":34.445061579101555,"velocity":0.6929133858267716},{"duration":0.17545737011718643,"durationTicks":509,"midi":46,"name":"A#2","ticks":99863,"time":34.445061579101555,"velocity":0.6929133858267716},{"duration":0.06963141210938062,"durationTicks":202,"midi":63,"name":"D#4","ticks":100373,"time":34.620863659179676,"velocity":0.7165354330708661},{"duration":0.17545737011719353,"durationTicks":509,"midi":46,"name":"A#2","ticks":100373,"time":34.620863659179676,"velocity":0.7165354330708661},{"duration":0.06790786230469337,"durationTicks":197,"midi":63,"name":"D#4","ticks":100883,"time":34.796665739257804,"velocity":0.6929133858267716},{"duration":0.16339252148437566,"durationTicks":474,"midi":46,"name":"A#2","ticks":100883,"time":34.796665739257804,"velocity":0.6929133858267716},{"duration":0.06790786230469337,"durationTicks":197,"midi":62,"name":"D4","ticks":101388,"time":34.97074426953124,"velocity":0.7007874015748031},{"duration":0.16339252148438277,"durationTicks":474,"midi":58,"name":"A#3","ticks":101388,"time":34.97074426953124,"velocity":0.7007874015748031},{"duration":0.06859728222655548,"durationTicks":199,"midi":60,"name":"C4","ticks":101893,"time":35.144822799804686,"velocity":0.6929133858267716},{"duration":0.1744232402343684,"durationTicks":506,"midi":48,"name":"C3","ticks":101893,"time":35.144822799804686,"velocity":0.6929133858267716},{"duration":0.17614679003906275,"durationTicks":511,"midi":58,"name":"A#3","ticks":102404,"time":35.32096958984374,"velocity":0.7322834645669292},{"duration":0.18648808886719337,"durationTicks":541,"midi":48,"name":"C3","ticks":102404,"time":35.32096958984374,"velocity":0.7322834645669292},{"duration":0.06894199218749719,"durationTicks":200,"midi":60,"name":"C4","ticks":102946,"time":35.50780238867187,"velocity":0.6929133858267716},{"duration":0.1644266513671866,"durationTicks":477,"midi":48,"name":"C3","ticks":102946,"time":35.50780238867187,"velocity":0.6929133858267716},{"duration":0.16339252148436856,"durationTicks":474,"midi":60,"name":"C4","ticks":103454,"time":35.68291504882812,"velocity":0.7007874015748031},{"duration":0.6994165107421892,"durationTicks":2029,"midi":55,"name":"G3","ticks":103959,"time":35.856993579101555,"velocity":0.6929133858267716},{"duration":0.17545737011718643,"durationTicks":509,"midi":48,"name":"C3","ticks":103959,"time":35.856993579101555,"velocity":0.6929133858267716},{"duration":0.17545737011718643,"durationTicks":509,"midi":48,"name":"C3","ticks":104469,"time":36.03279565917968,"velocity":0.7165354330708661},{"duration":0.16339252148437566,"durationTicks":474,"midi":48,"name":"C3","ticks":104979,"time":36.208597739257804,"velocity":0.6929133858267716},{"duration":0.16339252148436856,"durationTicks":474,"midi":60,"name":"C4","ticks":105484,"time":36.382676269531245,"velocity":0.7007874015748031},{"duration":0.07997271093749703,"durationTicks":232,"midi":55,"name":"G3","ticks":105989,"time":36.55675479980468,"velocity":0.6929133858267716},{"duration":0.16408194140625199,"durationTicks":476,"midi":58,"name":"A#3","ticks":105989,"time":36.55675479980468,"velocity":0.6929133858267716},{"duration":0.08376452050781324,"durationTicks":243,"midi":58,"name":"A#3","ticks":106237,"time":36.64224287011718,"velocity":0.6929133858267716},{"duration":0.08066213085937335,"durationTicks":234,"midi":60,"name":"C4","ticks":106500,"time":36.73290158984374,"velocity":0.7322834645669292},{"duration":0.18648808886718626,"durationTicks":541,"midi":44,"name":"G#2","ticks":106500,"time":36.73290158984374,"velocity":0.7322834645669292},{"duration":0.06894199218749719,"durationTicks":200,"midi":60,"name":"C4","ticks":107042,"time":36.91973438867187,"velocity":0.6929133858267716},{"duration":0.1644266513671866,"durationTicks":477,"midi":44,"name":"G#2","ticks":107042,"time":36.91973438867187,"velocity":0.6929133858267716},{"duration":0.06790786230469337,"durationTicks":197,"midi":60,"name":"C4","ticks":107550,"time":37.094847048828115,"velocity":0.7007874015748031},{"duration":0.16339252148438277,"durationTicks":474,"midi":56,"name":"G#3","ticks":107550,"time":37.094847048828115,"velocity":0.7007874015748031},{"duration":0.06963141210937351,"durationTicks":202,"midi":62,"name":"D4","ticks":108055,"time":37.268925579101555,"velocity":0.6929133858267716},{"duration":0.17545737011718643,"durationTicks":509,"midi":46,"name":"A#2","ticks":108055,"time":37.268925579101555,"velocity":0.6929133858267716},{"duration":0.06963141210938062,"durationTicks":202,"midi":60,"name":"C4","ticks":108565,"time":37.44472765917968,"velocity":0.7165354330708661},{"duration":0.17545737011718643,"durationTicks":509,"midi":46,"name":"A#2","ticks":108565,"time":37.44472765917968,"velocity":0.7165354330708661},{"duration":0.06790786230469337,"durationTicks":197,"midi":60,"name":"C4","ticks":109075,"time":37.620529739257805,"velocity":0.6929133858267716},{"duration":0.16339252148437566,"durationTicks":474,"midi":46,"name":"A#2","ticks":109075,"time":37.620529739257805,"velocity":0.6929133858267716},{"duration":0.06790786230469337,"durationTicks":197,"midi":58,"name":"A#3","ticks":109580,"time":37.79460826953124,"velocity":0.7007874015748031},{"duration":0.16339252148438277,"durationTicks":474,"midi":58,"name":"A#3","ticks":109580,"time":37.79460826953124,"velocity":0.7007874015748031},{"duration":0.06859728222656258,"durationTicks":199,"midi":55,"name":"G3","ticks":110085,"time":37.96868679980468,"velocity":0.6929133858267716},{"duration":0.1744232402343755,"durationTicks":506,"midi":48,"name":"C3","ticks":110085,"time":37.96868679980468,"velocity":0.6929133858267716},{"duration":0.18648808886719337,"durationTicks":541,"midi":48,"name":"C3","ticks":110596,"time":38.14483358984374,"velocity":0.6692913385826772},{"duration":0.18648808886719337,"durationTicks":541,"midi":53,"name":"F3","ticks":110596,"time":38.14483358984374,"velocity":0.7795275590551181},{"duration":0.0689419921875043,"durationTicks":200,"midi":48,"name":"C3","ticks":111138,"time":38.33166638867186,"velocity":0.6299212598425197},{"duration":0.0689419921875043,"durationTicks":200,"midi":55,"name":"G3","ticks":111138,"time":38.33166638867186,"velocity":0.7401574803149606},{"duration":0.16339252148436856,"durationTicks":474,"midi":60,"name":"C4","ticks":111646,"time":38.50677904882812,"velocity":0.7007874015748031},{"duration":0.08341981054687153,"durationTicks":242,"midi":51,"name":"D#3","ticks":111646,"time":38.50677904882812,"velocity":0.7007874015748031},{"duration":0.07962800097656952,"durationTicks":231,"midi":50,"name":"D3","ticks":111904,"time":38.59571421874999,"velocity":0.6929133858267716},{"duration":0.17545737011718643,"durationTicks":509,"midi":48,"name":"C3","ticks":112151,"time":38.680857579101556,"velocity":0.6929133858267716},{"duration":0.17545737011718643,"durationTicks":509,"midi":48,"name":"C3","ticks":112661,"time":38.856659659179684,"velocity":0.7165354330708661},{"duration":0.16339252148437566,"durationTicks":474,"midi":48,"name":"C3","ticks":113171,"time":39.032461739257805,"velocity":0.6929133858267716},{"duration":0.16339252148436856,"durationTicks":474,"midi":60,"name":"C4","ticks":113676,"time":39.206540269531246,"velocity":0.7007874015748031},{"duration":0.16408194140625199,"durationTicks":476,"midi":58,"name":"A#3","ticks":114181,"time":39.38061879980468,"velocity":0.6929133858267716},{"duration":0.535679279296879,"durationTicks":1554,"midi":62,"name":"D4","ticks":114692,"time":39.55676558984374,"velocity":0.7322834645669292},{"duration":0.18648808886718626,"durationTicks":541,"midi":46,"name":"A#2","ticks":114692,"time":39.55676558984374,"velocity":0.7322834645669292},{"duration":0.1644266513671866,"durationTicks":477,"midi":46,"name":"A#2","ticks":115234,"time":39.74359838867187,"velocity":0.6929133858267716},{"duration":0.16339252148438277,"durationTicks":474,"midi":58,"name":"A#3","ticks":115742,"time":39.918711048828115,"velocity":0.7007874015748031},{"duration":0.07997271093750413,"durationTicks":232,"midi":60,"name":"C4","ticks":116247,"time":40.092789579101556,"velocity":0.6929133858267716},{"duration":0.17545737011718643,"durationTicks":509,"midi":46,"name":"A#2","ticks":116247,"time":40.092789579101556,"velocity":0.6929133858267716},{"duration":0.08479865039062418,"durationTicks":246,"midi":62,"name":"D4","ticks":116495,"time":40.178277649414056,"velocity":0.6929133858267716},{"duration":0.3495359003906273,"durationTicks":1014,"midi":58,"name":"A#3","ticks":116757,"time":40.26859165917968,"velocity":0.7165354330708661},{"duration":0.17545737011718643,"durationTicks":509,"midi":46,"name":"A#2","ticks":116757,"time":40.26859165917968,"velocity":0.7165354330708661},{"duration":0.16339252148437566,"durationTicks":474,"midi":46,"name":"A#2","ticks":117267,"time":40.444393739257805,"velocity":0.6929133858267716},{"duration":0.2592218906249997,"durationTicks":752,"midi":69,"name":"A4","ticks":117772,"time":40.61847226953124,"velocity":0.7007874015748031},{"duration":0.16339252148438277,"durationTicks":474,"midi":58,"name":"A#3","ticks":117772,"time":40.61847226953124,"velocity":0.7007874015748031},{"duration":0.16408194140625199,"durationTicks":476,"midi":46,"name":"A#2","ticks":118277,"time":40.79255079980468,"velocity":0.6929133858267716},{"duration":0.08376452050781324,"durationTicks":243,"midi":65,"name":"F4","ticks":118525,"time":40.87803887011718,"velocity":0.6929133858267716},{"duration":0.2723208691406285,"durationTicks":790,"midi":63,"name":"D#4","ticks":118788,"time":40.96869758984374,"velocity":0.7322834645669292},{"duration":0.18648808886719337,"durationTicks":541,"midi":44,"name":"G#2","ticks":118788,"time":40.96869758984374,"velocity":0.7322834645669292},{"duration":0.1644266513671937,"durationTicks":477,"midi":44,"name":"G#2","ticks":119330,"time":41.15553038867186,"velocity":0.6929133858267716},{"duration":0.08376452050781324,"durationTicks":243,"midi":65,"name":"F4","ticks":119579,"time":41.241363168945306,"velocity":0.6929133858267716},{"duration":0.6956247011718659,"durationTicks":2018,"midi":67,"name":"G4","ticks":119838,"time":41.33064304882812,"velocity":0.7007874015748031},{"duration":0.16339252148436856,"durationTicks":474,"midi":56,"name":"G#3","ticks":119838,"time":41.33064304882812,"velocity":0.7007874015748031},{"duration":0.17545737011718643,"durationTicks":509,"midi":44,"name":"G#2","ticks":120343,"time":41.504721579101556,"velocity":0.6929133858267716},{"duration":0.17545737011718643,"durationTicks":509,"midi":44,"name":"G#2","ticks":120853,"time":41.680523659179684,"velocity":0.7165354330708661},{"duration":0.16339252148437566,"durationTicks":474,"midi":44,"name":"G#2","ticks":121363,"time":41.856325739257805,"velocity":0.6929133858267716},{"duration":0.16339252148436856,"durationTicks":474,"midi":68,"name":"G#4","ticks":121868,"time":42.030404269531246,"velocity":0.7007874015748031},{"duration":0.16339252148436856,"durationTicks":474,"midi":56,"name":"G#3","ticks":121868,"time":42.030404269531246,"velocity":0.7007874015748031},{"duration":0.07997271093749703,"durationTicks":232,"midi":60,"name":"C4","ticks":122373,"time":42.20448279980468,"velocity":0.6929133858267716},{"duration":0.16408194140625199,"durationTicks":476,"midi":44,"name":"G#2","ticks":122373,"time":42.20448279980468,"velocity":0.6929133858267716},{"duration":0.08376452050781324,"durationTicks":243,"midi":61,"name":"C#4","ticks":122621,"time":42.28997087011718,"velocity":0.6929133858267716},{"duration":0.535679279296879,"durationTicks":1554,"midi":62,"name":"D4","ticks":122884,"time":42.38062958984374,"velocity":0.7322834645669292},{"duration":0.18648808886718626,"durationTicks":541,"midi":46,"name":"A#2","ticks":122884,"time":42.38062958984374,"velocity":0.7322834645669292},{"duration":0.1644266513671866,"durationTicks":477,"midi":46,"name":"A#2","ticks":123426,"time":42.56746238867187,"velocity":0.6929133858267716},{"duration":0.16339252148438277,"durationTicks":474,"midi":58,"name":"A#3","ticks":123934,"time":42.742575048828115,"velocity":0.7007874015748031},{"duration":0.07997271093750413,"durationTicks":232,"midi":60,"name":"C4","ticks":124439,"time":42.916653579101556,"velocity":0.6929133858267716},{"duration":0.17545737011718643,"durationTicks":509,"midi":46,"name":"A#2","ticks":124439,"time":42.916653579101556,"velocity":0.6929133858267716},{"duration":0.08479865039062418,"durationTicks":246,"midi":62,"name":"D4","ticks":124687,"time":43.00214164941406,"velocity":0.6929133858267716},{"duration":0.26094544042969403,"durationTicks":757,"midi":58,"name":"A#3","ticks":124949,"time":43.09245565917968,"velocity":0.7165354330708661},{"duration":0.17545737011718643,"durationTicks":509,"midi":46,"name":"A#2","ticks":124949,"time":43.09245565917968,"velocity":0.7165354330708661},{"duration":0.16339252148437566,"durationTicks":474,"midi":46,"name":"A#2","ticks":125459,"time":43.268257739257805,"velocity":0.6929133858267716},{"duration":0.26232428027343957,"durationTicks":761,"midi":69,"name":"A4","ticks":125707,"time":43.353745809570306,"velocity":0.6929133858267716},{"duration":0.16339252148438277,"durationTicks":474,"midi":58,"name":"A#3","ticks":125964,"time":43.44233626953124,"velocity":0.7007874015748031},{"duration":0.16408194140625199,"durationTicks":476,"midi":65,"name":"F4","ticks":126469,"time":43.61641479980468,"velocity":0.6929133858267716},{"duration":0.16408194140625199,"durationTicks":476,"midi":46,"name":"A#2","ticks":126469,"time":43.61641479980468,"velocity":0.6929133858267716},{"duration":0.9735971718749994,"durationTicks":2822,"midi":72,"name":"C5","ticks":126980,"time":43.79256158984374,"velocity":0.7322834645669292},{"duration":0.18648808886718626,"durationTicks":541,"midi":48,"name":"C3","ticks":126980,"time":43.79256158984374,"velocity":0.7322834645669292},{"duration":0.1644266513671937,"durationTicks":477,"midi":48,"name":"C3","ticks":127522,"time":43.979394388671864,"velocity":0.6929133858267716},{"duration":0.16339252148436856,"durationTicks":474,"midi":60,"name":"C4","ticks":128030,"time":44.15450704882812,"velocity":0.7007874015748031},{"duration":0.17545737011718643,"durationTicks":509,"midi":48,"name":"C3","ticks":128535,"time":44.328585579101556,"velocity":0.6929133858267716},{"duration":0.17576820019530714,"durationTicks":509,"midi":48,"name":"C3","ticks":129045,"time":44.504387659179685,"velocity":0.7165354330708661},{"duration":0.1646127011718761,"durationTicks":474,"midi":48,"name":"C3","ticks":129555,"time":44.680502601562495,"velocity":0.6929133858267716},{"duration":0.2654866738281285,"durationTicks":761,"midi":63,"name":"D#4","ticks":129803,"time":44.76650658789062,"velocity":0.6929133858267716},{"duration":0.1655828671874957,"durationTicks":474,"midi":60,"name":"C4","ticks":130060,"time":44.85590957421875,"velocity":0.7007874015748031},{"duration":0.16726816308593584,"durationTicks":476,"midi":67,"name":"G4","ticks":130565,"time":45.03234413964844,"velocity":0.6929133858267716},{"duration":0.16726816308593584,"durationTicks":476,"midi":48,"name":"C3","ticks":130565,"time":45.03234413964844,"velocity":0.6929133858267716},{"duration":0.5356792792968719,"durationTicks":1554,"midi":72,"name":"C5","ticks":131076,"time":45.211902839843745,"velocity":0.7322834645669292},{"duration":0.18648808886718626,"durationTicks":541,"midi":41,"name":"F2","ticks":131076,"time":45.211902839843745,"velocity":0.7322834645669292},{"duration":0.1644266513671866,"durationTicks":477,"midi":41,"name":"F2","ticks":131618,"time":45.398735638671866,"velocity":0.6929133858267716},{"duration":0.16339252148437566,"durationTicks":474,"midi":53,"name":"F3","ticks":132126,"time":45.57384829882812,"velocity":0.7007874015748031},{"duration":0.07997271093750413,"durationTicks":232,"midi":70,"name":"A#4","ticks":132631,"time":45.74792682910155,"velocity":0.6929133858267716},{"duration":0.17545737011718643,"durationTicks":509,"midi":46,"name":"A#2","ticks":132631,"time":45.74792682910155,"velocity":0.6929133858267716},{"duration":0.08479865039062418,"durationTicks":246,"midi":68,"name":"G#4","ticks":132879,"time":45.83341489941405,"velocity":0.6929133858267716},{"duration":0.2625738701171798,"durationTicks":757,"midi":67,"name":"G4","ticks":133141,"time":45.92372890917968,"velocity":0.7165354330708661},{"duration":0.17605120214843595,"durationTicks":509,"midi":46,"name":"A#2","ticks":133141,"time":45.92372890917968,"velocity":0.7165354330708661},{"duration":0.16582316015625054,"durationTicks":474,"midi":46,"name":"A#2","ticks":133651,"time":46.10012890917967,"velocity":0.6929133858267716},{"duration":0.2681516044921821,"durationTicks":761,"midi":65,"name":"F4","ticks":133899,"time":46.18665365722655,"velocity":0.6929133858267716},{"duration":0.1673307734374987,"durationTicks":474,"midi":58,"name":"A#3","ticks":134156,"time":46.27684263281248,"velocity":0.7007874015748031},{"duration":0.17006484667968635,"durationTicks":476,"midi":67,"name":"G4","ticks":134661,"time":46.45516151464842,"velocity":0.6929133858267716},{"duration":0.17006484667968635,"durationTicks":476,"midi":46,"name":"A#2","ticks":134661,"time":46.45516151464842,"velocity":0.6929133858267716},{"duration":0.5391351738281216,"durationTicks":1554,"midi":70,"name":"A#4","ticks":135172,"time":46.63777119531248,"velocity":0.7322834645669292},{"duration":0.189943983398436,"durationTicks":541,"midi":39,"name":"D#2","ticks":135172,"time":46.63777119531248,"velocity":0.7244094488188977},{"duration":0.1644266513671866,"durationTicks":477,"midi":39,"name":"D#2","ticks":135714,"time":46.82805988867185,"velocity":0.6850393700787402},{"duration":0.16339252148437566,"durationTicks":474,"midi":51,"name":"D#3","ticks":136222,"time":47.003172548828104,"velocity":0.7007874015748031},{"duration":0.07997271093750413,"durationTicks":232,"midi":68,"name":"G#4","ticks":136727,"time":47.17725107910154,"velocity":0.6929133858267716},{"duration":0.16511607128906292,"durationTicks":479,"midi":46,"name":"A#2","ticks":136727,"time":47.17725107910154,"velocity":0.6929133858267716},{"duration":0.08479865039062418,"durationTicks":246,"midi":67,"name":"G4","ticks":136975,"time":47.26273914941404,"velocity":0.6929133858267716},{"duration":0.2609454404296869,"durationTicks":757,"midi":65,"name":"F4","ticks":137237,"time":47.353053159179666,"velocity":0.7165354330708661},{"duration":0.17545737011718643,"durationTicks":509,"midi":44,"name":"G#2","ticks":137237,"time":47.353053159179666,"velocity":0.7165354330708661},{"duration":0.16339252148437566,"durationTicks":474,"midi":44,"name":"G#2","ticks":137747,"time":47.52885523925779,"velocity":0.6929133858267716},{"duration":0.26232428027343957,"durationTicks":761,"midi":63,"name":"D#4","ticks":137995,"time":47.61434330957029,"velocity":0.6929133858267716},{"duration":0.16339252148437566,"durationTicks":474,"midi":56,"name":"G#3","ticks":138252,"time":47.70293376953123,"velocity":0.7007874015748031},{"duration":0.16408194140625199,"durationTicks":476,"midi":65,"name":"F4","ticks":138757,"time":47.87701229980466,"velocity":0.6929133858267716},{"duration":0.16408194140625199,"durationTicks":476,"midi":44,"name":"G#2","ticks":138757,"time":47.87701229980466,"velocity":0.6929133858267716},{"duration":0.2723208691406285,"durationTicks":790,"midi":62,"name":"D4","ticks":139268,"time":48.053159089843724,"velocity":0.7322834645669292},{"duration":0.18648808886719337,"durationTicks":541,"midi":43,"name":"G2","ticks":139268,"time":48.053159089843724,"velocity":0.7322834645669292},{"duration":0.1644266513671866,"durationTicks":477,"midi":43,"name":"G2","ticks":139810,"time":48.23999188867185,"velocity":0.6929133858267716},{"duration":0.088935169921875,"durationTicks":258,"midi":67,"name":"G4","ticks":140059,"time":48.32582466894529,"velocity":0.6929133858267716},{"duration":1.0482629912109331,"durationTicks":3041,"midi":67,"name":"G4","ticks":140318,"time":48.415104548828104,"velocity":0.6929133858267716},{"duration":0.16339252148437566,"durationTicks":474,"midi":55,"name":"G3","ticks":140318,"time":48.415104548828104,"velocity":0.7007874015748031},{"duration":0.17545737011718643,"durationTicks":509,"midi":43,"name":"G2","ticks":140823,"time":48.58918307910154,"velocity":0.6929133858267716},{"duration":0.17545737011718643,"durationTicks":509,"midi":43,"name":"G2","ticks":141333,"time":48.764985159179666,"velocity":0.7165354330708661},{"duration":0.16339252148437566,"durationTicks":474,"midi":43,"name":"G2","ticks":141843,"time":48.94078723925779,"velocity":0.6929133858267716},{"duration":0.16339252148437566,"durationTicks":474,"midi":55,"name":"G3","ticks":142348,"time":49.11486576953123,"velocity":0.7007874015748031},{"duration":0.16408194140625199,"durationTicks":476,"midi":43,"name":"G2","ticks":142853,"time":49.28894429980466,"velocity":0.6929133858267716},{"duration":0.18648808886719337,"durationTicks":541,"midi":67,"name":"G4","ticks":143364,"time":49.465091089843725,"velocity":0.7716535433070866},{"duration":0.18648808886719337,"durationTicks":541,"midi":70,"name":"A#4","ticks":143364,"time":49.465091089843725,"velocity":0.8818897637795275},{"duration":0.17614679003906275,"durationTicks":511,"midi":46,"name":"A#2","ticks":143364,"time":49.465091089843725,"velocity":0.7716535433070866},{"duration":0.17614679003906275,"durationTicks":511,"midi":55,"name":"G3","ticks":143364,"time":49.465091089843725,"velocity":0.7716535433070866},{"duration":0.18648808886719337,"durationTicks":541,"midi":58,"name":"A#3","ticks":143364,"time":49.465091089843725,"velocity":0.8818897637795275},{"duration":0.1644266513671866,"durationTicks":477,"midi":62,"name":"D4","ticks":143906,"time":49.65192388867185,"velocity":0.7322834645669292},{"duration":0.1747679501953101,"durationTicks":507,"midi":67,"name":"G4","ticks":143906,"time":49.65192388867185,"velocity":0.84251968503937},{"duration":0.1644266513671866,"durationTicks":477,"midi":43,"name":"G2","ticks":143906,"time":49.65192388867185,"velocity":0.7322834645669292},{"duration":0.1644266513671866,"durationTicks":477,"midi":50,"name":"D3","ticks":143906,"time":49.65192388867185,"velocity":0.7322834645669292},{"duration":0.1747679501953101,"durationTicks":507,"midi":55,"name":"G3","ticks":143906,"time":49.65192388867185,"velocity":0.84251968503937},{"duration":0.17545737011718643,"durationTicks":509,"midi":67,"name":"G4","ticks":144919,"time":50.00111507910154,"velocity":0.7322834645669292},{"duration":0.17545737011718643,"durationTicks":509,"midi":70,"name":"A#4","ticks":144919,"time":50.00111507910154,"velocity":0.84251968503937},{"duration":0.16511607128906292,"durationTicks":479,"midi":46,"name":"A#2","ticks":144919,"time":50.00111507910154,"velocity":0.7322834645669292},{"duration":0.16511607128906292,"durationTicks":479,"midi":55,"name":"G3","ticks":144919,"time":50.00111507910154,"velocity":0.7322834645669292},{"duration":0.17545737011718643,"durationTicks":509,"midi":58,"name":"A#3","ticks":144919,"time":50.00111507910154,"velocity":0.84251968503937},{"duration":0.16561193457030754,"durationTicks":479,"midi":62,"name":"D4","ticks":145429,"time":50.176917159179666,"velocity":0.7559055118110236},{"duration":0.17605120214843595,"durationTicks":509,"midi":67,"name":"G4","ticks":145429,"time":50.176917159179666,"velocity":0.8661417322834646},{"duration":0.16561193457030754,"durationTicks":479,"midi":43,"name":"G2","ticks":145429,"time":50.176917159179666,"velocity":0.7559055118110236},{"duration":0.16561193457030754,"durationTicks":479,"midi":50,"name":"D3","ticks":145429,"time":50.176917159179666,"velocity":0.7559055118110236},{"duration":0.17605120214843595,"durationTicks":509,"midi":55,"name":"G3","ticks":145429,"time":50.176917159179666,"velocity":0.8661417322834646},{"duration":0.1779626289062506,"durationTicks":504,"midi":67,"name":"G4","ticks":146444,"time":50.53003088281247,"velocity":0.7401574803149606},{"duration":0.1779626289062506,"durationTicks":504,"midi":70,"name":"A#4","ticks":146444,"time":50.53003088281247,"velocity":0.8503937007874016},{"duration":0.1673307734374987,"durationTicks":474,"midi":46,"name":"A#2","ticks":146444,"time":50.53003088281247,"velocity":0.7401574803149606},{"duration":0.1673307734374987,"durationTicks":474,"midi":55,"name":"G3","ticks":146444,"time":50.53003088281247,"velocity":0.7401574803149606},{"duration":0.1779626289062506,"durationTicks":504,"midi":58,"name":"A#3","ticks":146444,"time":50.53003088281247,"velocity":0.8503937007874016},{"duration":0.17006484667968635,"durationTicks":476,"midi":62,"name":"D4","ticks":146949,"time":50.7083497646484,"velocity":0.7322834645669292},{"duration":0.17006484667968635,"durationTicks":476,"midi":67,"name":"G4","ticks":146949,"time":50.7083497646484,"velocity":0.84251968503937},{"duration":0.17006484667968635,"durationTicks":476,"midi":43,"name":"G2","ticks":146949,"time":50.7083497646484,"velocity":0.7322834645669292},{"duration":0.17006484667968635,"durationTicks":476,"midi":50,"name":"D3","ticks":146949,"time":50.7083497646484,"velocity":0.7322834645669292},{"duration":0.18081756152344042,"durationTicks":506,"midi":55,"name":"G3","ticks":146949,"time":50.7083497646484,"velocity":0.84251968503937},{"duration":0.189943983398436,"durationTicks":541,"midi":48,"name":"C3","ticks":147460,"time":50.89095944531247,"velocity":0.6299212598425197},{"duration":0.1644266513671866,"durationTicks":477,"midi":48,"name":"C3","ticks":148002,"time":51.08124813867184,"velocity":0.5905511811023622},{"duration":0.16339252148437566,"durationTicks":474,"midi":43,"name":"G2","ticks":148510,"time":51.25636079882809,"velocity":0.5984251968503937},{"duration":0.16511607128906292,"durationTicks":479,"midi":46,"name":"A#2","ticks":149015,"time":51.430439329101524,"velocity":0.5905511811023622},{"duration":0.17545737011718643,"durationTicks":509,"midi":48,"name":"C3","ticks":149525,"time":51.60624140917965,"velocity":0.6141732283464567},{"duration":0.16339252148437566,"durationTicks":474,"midi":48,"name":"C3","ticks":150035,"time":51.782043489257774,"velocity":0.5905511811023622},{"duration":0.16339252148437566,"durationTicks":474,"midi":43,"name":"G2","ticks":150540,"time":51.956122019531215,"velocity":0.5984251968503937},{"duration":0.16408194140625199,"durationTicks":476,"midi":46,"name":"A#2","ticks":151045,"time":52.13020054980465,"velocity":0.5905511811023622},{"duration":0.18648808886719337,"durationTicks":541,"midi":48,"name":"C3","ticks":151556,"time":52.30634733984371,"velocity":0.6299212598425197},{"duration":0.1644266513671866,"durationTicks":477,"midi":48,"name":"C3","ticks":152098,"time":52.49318013867184,"velocity":0.5905511811023622},{"duration":0.16339252148437566,"durationTicks":474,"midi":43,"name":"G2","ticks":152606,"time":52.66829279882809,"velocity":0.5984251968503937},{"duration":0.16511607128906292,"durationTicks":479,"midi":46,"name":"A#2","ticks":153111,"time":52.842371329101525,"velocity":0.5905511811023622},{"duration":0.11892493652343461,"durationTicks":345,"midi":48,"name":"C3","ticks":153621,"time":53.01817340917965,"velocity":0.5196850393700787},{"duration":0.11306486718749653,"durationTicks":328,"midi":48,"name":"C3","ticks":153967,"time":53.13744305566403,"velocity":0.49606299212598426},{"duration":0.0461911347656212,"durationTicks":134,"midi":48,"name":"C3","ticks":154296,"time":53.25085263281247,"velocity":0.49606299212598426},{"duration":0.16339252148437566,"durationTicks":474,"midi":43,"name":"G2","ticks":154636,"time":53.368054019531215,"velocity":0.5984251968503937},{"duration":0.16408194140625199,"durationTicks":476,"midi":46,"name":"A#2","ticks":155141,"time":53.54213254980465,"velocity":0.5905511811023622},{"duration":0.18648808886719337,"durationTicks":541,"midi":48,"name":"C3","ticks":155652,"time":53.71827933984371,"velocity":0.6299212598425197},{"duration":0.1644266513671866,"durationTicks":477,"midi":48,"name":"C3","ticks":156194,"time":53.90511213867184,"velocity":0.5905511811023622},{"duration":0.16339252148437566,"durationTicks":474,"midi":43,"name":"G2","ticks":156702,"time":54.08022479882809,"velocity":0.5984251968503937},{"duration":0.16511607128906292,"durationTicks":479,"midi":46,"name":"A#2","ticks":157207,"time":54.254303329101525,"velocity":0.5905511811023622},{"duration":0.17545737011718643,"durationTicks":509,"midi":48,"name":"C3","ticks":157717,"time":54.43010540917965,"velocity":0.6141732283464567},{"duration":0.16339252148437566,"durationTicks":474,"midi":48,"name":"C3","ticks":158227,"time":54.605907489257774,"velocity":0.5905511811023622},{"duration":0.16339252148437566,"durationTicks":474,"midi":43,"name":"G2","ticks":158732,"time":54.779986019531215,"velocity":0.5984251968503937},{"duration":0.16408194140625199,"durationTicks":476,"midi":46,"name":"A#2","ticks":159237,"time":54.95406454980465,"velocity":0.5905511811023622},{"duration":0.18648808886719337,"durationTicks":541,"midi":48,"name":"C3","ticks":159748,"time":55.13021133984371,"velocity":0.6299212598425197},{"duration":0.1644266513671866,"durationTicks":477,"midi":48,"name":"C3","ticks":160290,"time":55.31704413867184,"velocity":0.5905511811023622},{"duration":0.16339252148437566,"durationTicks":474,"midi":43,"name":"G2","ticks":160798,"time":55.49215679882809,"velocity":0.5984251968503937},{"duration":0.16511607128906292,"durationTicks":479,"midi":46,"name":"A#2","ticks":161303,"time":55.666235329101525,"velocity":0.5905511811023622},{"duration":0.11892493652343461,"durationTicks":345,"midi":48,"name":"C3","ticks":161813,"time":55.84203740917965,"velocity":0.5196850393700787},{"duration":0.11306486718749653,"durationTicks":328,"midi":48,"name":"C3","ticks":162159,"time":55.96130705566403,"velocity":0.49606299212598426},{"duration":0.0461911347656212,"durationTicks":134,"midi":48,"name":"C3","ticks":162488,"time":56.07471663281247,"velocity":0.49606299212598426},{"duration":0.16339252148437566,"durationTicks":474,"midi":43,"name":"G2","ticks":162828,"time":56.191918019531215,"velocity":0.5984251968503937},{"duration":0.16408194140625199,"durationTicks":476,"midi":46,"name":"A#2","ticks":163333,"time":56.36599654980465,"velocity":0.5905511811023622},{"duration":0.17614679003906275,"durationTicks":511,"midi":63,"name":"D#4","ticks":163844,"time":56.54214333984371,"velocity":0.6299212598425197},{"duration":0.18648808886718626,"durationTicks":541,"midi":48,"name":"C3","ticks":163844,"time":56.54214333984371,"velocity":0.6299212598425197},{"duration":0.06894199218749719,"durationTicks":200,"midi":60,"name":"C4","ticks":164386,"time":56.72897613867184,"velocity":0.5905511811023622},{"duration":0.1644266513671866,"durationTicks":477,"midi":48,"name":"C3","ticks":164386,"time":56.72897613867184,"velocity":0.5905511811023622},{"duration":0.16339252148437566,"durationTicks":474,"midi":43,"name":"G2","ticks":164894,"time":56.90408879882809,"velocity":0.5984251968503937},{"duration":0.16511607128906292,"durationTicks":479,"midi":46,"name":"A#2","ticks":165399,"time":57.078167329101525,"velocity":0.5905511811023622},{"duration":0.17545737011718643,"durationTicks":509,"midi":48,"name":"C3","ticks":165909,"time":57.25396940917965,"velocity":0.6141732283464567},{"duration":0.16339252148437566,"durationTicks":474,"midi":58,"name":"A#3","ticks":166419,"time":57.429771489257774,"velocity":0.5905511811023622},{"duration":0.16339252148437566,"durationTicks":474,"midi":48,"name":"C3","ticks":166419,"time":57.429771489257774,"velocity":0.5905511811023622},{"duration":0.06790786230468626,"durationTicks":197,"midi":60,"name":"C4","ticks":166924,"time":57.603850019531215,"velocity":0.5984251968503937},{"duration":0.16339252148437566,"durationTicks":474,"midi":43,"name":"G2","ticks":166924,"time":57.603850019531215,"velocity":0.5984251968503937},{"duration":0.3522935800781255,"durationTicks":1022,"midi":63,"name":"D#4","ticks":167429,"time":57.77792854980465,"velocity":0.5905511811023622},{"duration":0.16408194140625199,"durationTicks":476,"midi":46,"name":"A#2","ticks":167429,"time":57.77792854980465,"velocity":0.5905511811023622},{"duration":0.18648808886719337,"durationTicks":541,"midi":48,"name":"C3","ticks":167940,"time":57.95407533984371,"velocity":0.6299212598425197},{"duration":0.1644266513671866,"durationTicks":477,"midi":60,"name":"C4","ticks":168482,"time":58.14090813867184,"velocity":0.5905511811023622},{"duration":0.1644266513671866,"durationTicks":477,"midi":48,"name":"C3","ticks":168482,"time":58.14090813867184,"velocity":0.5905511811023622},{"duration":0.16339252148436856,"durationTicks":474,"midi":43,"name":"G2","ticks":168990,"time":58.31602079882809,"velocity":0.5984251968503937},{"duration":0.16511607128906292,"durationTicks":479,"midi":46,"name":"A#2","ticks":169495,"time":58.490099329101525,"velocity":0.5905511811023622},{"duration":0.11892493652343461,"durationTicks":345,"midi":48,"name":"C3","ticks":170005,"time":58.665901409179654,"velocity":0.5196850393700787},{"duration":0.11306486718750364,"durationTicks":328,"midi":48,"name":"C3","ticks":170351,"time":58.78517105566402,"velocity":0.49606299212598426},{"duration":0.16339252148437566,"durationTicks":474,"midi":65,"name":"F4","ticks":170515,"time":58.841703489257775,"velocity":0.5905511811023622},{"duration":0.046191134765628306,"durationTicks":134,"midi":48,"name":"C3","ticks":170680,"time":58.89858063281246,"velocity":0.49606299212598426},{"duration":0.3485017705078093,"durationTicks":1011,"midi":67,"name":"G4","ticks":171020,"time":59.015782019531215,"velocity":0.5984251968503937},{"duration":0.16339252148437566,"durationTicks":474,"midi":43,"name":"G2","ticks":171020,"time":59.015782019531215,"velocity":0.5984251968503937},{"duration":0.1744232402343755,"durationTicks":506,"midi":46,"name":"A#2","ticks":171525,"time":59.18986054980465,"velocity":0.5905511811023622},{"duration":0.0954846591796894,"durationTicks":277,"midi":63,"name":"D#4","ticks":172036,"time":59.36600733984371,"velocity":0.6299212598425197},{"duration":0.18648808886718626,"durationTicks":541,"midi":46,"name":"A#2","ticks":172036,"time":59.36600733984371,"velocity":0.6299212598425197},{"duration":0.08031742089843164,"durationTicks":233,"midi":62,"name":"D4","ticks":172329,"time":59.467007358398405,"velocity":0.5905511811023622},{"duration":0.1644266513671866,"durationTicks":477,"midi":60,"name":"C4","ticks":172578,"time":59.55284013867184,"velocity":0.5905511811023622},{"duration":0.1644266513671866,"durationTicks":477,"midi":46,"name":"A#2","ticks":172578,"time":59.55284013867184,"velocity":0.5905511811023622},{"duration":0.16339252148438277,"durationTicks":474,"midi":41,"name":"F2","ticks":173086,"time":59.727952798828085,"velocity":0.5984251968503937},{"duration":0.16511607128906292,"durationTicks":479,"midi":44,"name":"G#2","ticks":173591,"time":59.902031329101526,"velocity":0.5905511811023622},{"duration":0.17545737011718643,"durationTicks":509,"midi":46,"name":"A#2","ticks":174101,"time":60.077833409179654,"velocity":0.6141732283464567},{"duration":0.16339252148437566,"durationTicks":474,"midi":55,"name":"G3","ticks":174611,"time":60.253635489257775,"velocity":0.5905511811023622},{"duration":0.16339252148437566,"durationTicks":474,"midi":46,"name":"A#2","ticks":174611,"time":60.253635489257775,"velocity":0.5905511811023622},{"duration":0.16339252148437566,"durationTicks":474,"midi":63,"name":"D#4","ticks":175116,"time":60.427714019531216,"velocity":0.5984251968503937},{"duration":0.16339252148437566,"durationTicks":474,"midi":41,"name":"F2","ticks":175116,"time":60.427714019531216,"velocity":0.5984251968503937},{"duration":0.3522935800781255,"durationTicks":1022,"midi":60,"name":"C4","ticks":175621,"time":60.60179254980465,"velocity":0.5905511811023622},{"duration":0.16408194140625199,"durationTicks":476,"midi":44,"name":"G#2","ticks":175621,"time":60.60179254980465,"velocity":0.5905511811023622},{"duration":0.18648808886719337,"durationTicks":541,"midi":46,"name":"A#2","ticks":176132,"time":60.77793933984371,"velocity":0.6299212598425197},{"duration":0.1644266513671866,"durationTicks":477,"midi":58,"name":"A#3","ticks":176674,"time":60.96477213867184,"velocity":0.5905511811023622},{"duration":0.1644266513671866,"durationTicks":477,"midi":46,"name":"A#2","ticks":176674,"time":60.96477213867184,"velocity":0.5905511811023622},{"duration":0.3495359003906202,"durationTicks":1014,"midi":60,"name":"C4","ticks":177182,"time":61.13988479882809,"velocity":0.5984251968503937},{"duration":0.16339252148436856,"durationTicks":474,"midi":41,"name":"F2","ticks":177182,"time":61.13988479882809,"velocity":0.5984251968503937},{"duration":0.16511607128906292,"durationTicks":479,"midi":44,"name":"G#2","ticks":177687,"time":61.313963329101526,"velocity":0.5905511811023622},{"duration":0.16511607128906292,"durationTicks":479,"midi":58,"name":"A#3","ticks":178197,"time":61.489765409179654,"velocity":0.6141732283464567},{"duration":0.11892493652343461,"durationTicks":345,"midi":46,"name":"A#2","ticks":178197,"time":61.489765409179654,"velocity":0.5196850393700787},{"duration":0.11306486718750364,"durationTicks":328,"midi":46,"name":"A#2","ticks":178543,"time":61.60903505566402,"velocity":0.49606299212598426},{"duration":0.34781235058594007,"durationTicks":1009,"midi":60,"name":"C4","ticks":178707,"time":61.665567489257775,"velocity":0.5905511811023622},{"duration":0.046191134765628306,"durationTicks":134,"midi":46,"name":"A#2","ticks":178872,"time":61.72244463281246,"velocity":0.49606299212598426},{"duration":0.16339252148436856,"durationTicks":474,"midi":41,"name":"F2","ticks":179212,"time":61.839646019531216,"velocity":0.5984251968503937},{"duration":0.16408194140625199,"durationTicks":476,"midi":58,"name":"A#3","ticks":179717,"time":62.01372454980465,"velocity":0.5905511811023622},{"duration":0.1744232402343755,"durationTicks":506,"midi":44,"name":"G#2","ticks":179717,"time":62.01372454980465,"velocity":0.5905511811023622},{"duration":0.17614679003906275,"durationTicks":511,"midi":65,"name":"F4","ticks":180228,"time":62.18987133984371,"velocity":0.6299212598425197},{"duration":0.18648808886718626,"durationTicks":541,"midi":44,"name":"G#2","ticks":180228,"time":62.18987133984371,"velocity":0.6299212598425197},{"duration":0.06894199218749719,"durationTicks":200,"midi":63,"name":"D#4","ticks":180770,"time":62.37670413867184,"velocity":0.5905511811023622},{"duration":0.1644266513671866,"durationTicks":477,"midi":44,"name":"G#2","ticks":180770,"time":62.37670413867184,"velocity":0.5905511811023622},{"duration":0.16339252148438277,"durationTicks":474,"midi":39,"name":"D#2","ticks":181278,"time":62.551816798828085,"velocity":0.5905511811023622},{"duration":0.16511607128906292,"durationTicks":479,"midi":42,"name":"F#2","ticks":181783,"time":62.725895329101526,"velocity":0.5905511811023622},{"duration":0.17545737011719353,"durationTicks":509,"midi":44,"name":"G#2","ticks":182293,"time":62.90169740917965,"velocity":0.6141732283464567},{"duration":0.16339252148437566,"durationTicks":474,"midi":65,"name":"F4","ticks":182803,"time":63.077499489257775,"velocity":0.5905511811023622},{"duration":0.16339252148437566,"durationTicks":474,"midi":44,"name":"G#2","ticks":182803,"time":63.077499489257775,"velocity":0.5905511811023622},{"duration":0.06790786230468626,"durationTicks":197,"midi":63,"name":"D#4","ticks":183308,"time":63.251578019531216,"velocity":0.5984251968503937},{"duration":0.16339252148437566,"durationTicks":474,"midi":39,"name":"D#2","ticks":183308,"time":63.251578019531216,"velocity":0.5905511811023622},{"duration":0.16408194140625199,"durationTicks":476,"midi":42,"name":"F#2","ticks":183813,"time":63.42565654980465,"velocity":0.5905511811023622},{"duration":0.17614679003906275,"durationTicks":511,"midi":60,"name":"C4","ticks":184324,"time":63.60180333984371,"velocity":0.6299212598425197},{"duration":0.18648808886718626,"durationTicks":541,"midi":44,"name":"G#2","ticks":184324,"time":63.60180333984371,"velocity":0.6299212598425197},{"duration":0.1644266513671866,"durationTicks":477,"midi":63,"name":"D#4","ticks":184866,"time":63.78863613867184,"velocity":0.5905511811023622},{"duration":0.1644266513671866,"durationTicks":477,"midi":44,"name":"G#2","ticks":184866,"time":63.78863613867184,"velocity":0.5905511811023622},{"duration":0.16339252148436856,"durationTicks":474,"midi":39,"name":"D#2","ticks":185374,"time":63.96374879882809,"velocity":0.5905511811023622},{"duration":0.16511607128906292,"durationTicks":479,"midi":60,"name":"C4","ticks":185879,"time":64.13782732910153,"velocity":0.5905511811023622},{"duration":0.16511607128906292,"durationTicks":479,"midi":43,"name":"G2","ticks":185879,"time":64.13782732910153,"velocity":0.5905511811023622},{"duration":0.16511607128906292,"durationTicks":479,"midi":63,"name":"D#4","ticks":186389,"time":64.31362940917965,"velocity":0.6141732283464567},{"duration":0.11892493652344172,"durationTicks":345,"midi":44,"name":"G#2","ticks":186389,"time":64.31362940917965,"velocity":0.5196850393700787},{"duration":0.11306486718750364,"durationTicks":328,"midi":44,"name":"G#2","ticks":186735,"time":64.43289905566402,"velocity":0.49606299212598426},{"duration":0.16339252148436856,"durationTicks":474,"midi":65,"name":"F4","ticks":186899,"time":64.48943148925778,"velocity":0.5905511811023622},{"duration":0.0461911347656212,"durationTicks":134,"midi":44,"name":"G#2","ticks":187064,"time":64.54630863281247,"velocity":0.49606299212598426},{"duration":0.16339252148436856,"durationTicks":474,"midi":66,"name":"F#4","ticks":187404,"time":64.66351001953122,"velocity":0.5984251968503937},{"duration":0.16339252148436856,"durationTicks":474,"midi":39,"name":"D#2","ticks":187404,"time":64.66351001953122,"velocity":0.5905511811023622},{"duration":0.16408194140625199,"durationTicks":476,"midi":67,"name":"G4","ticks":187909,"time":64.83758854980465,"velocity":0.5905511811023622},{"duration":0.1744232402343755,"durationTicks":506,"midi":43,"name":"G2","ticks":187909,"time":64.83758854980465,"velocity":0.5905511811023622},{"duration":0.17614679003905565,"durationTicks":511,"midi":70,"name":"A#4","ticks":188420,"time":65.01373533984372,"velocity":0.6299212598425197},{"duration":0.18648808886717916,"durationTicks":541,"midi":43,"name":"G2","ticks":188420,"time":65.01373533984372,"velocity":0.6299212598425197},{"duration":0.1644266513671795,"durationTicks":477,"midi":67,"name":"G4","ticks":188962,"time":65.20056813867184,"velocity":0.5905511811023622},{"duration":0.1644266513671795,"durationTicks":477,"midi":43,"name":"G2","ticks":188962,"time":65.20056813867184,"velocity":0.5905511811023622},{"duration":0.16339252148438277,"durationTicks":474,"midi":38,"name":"D2","ticks":189470,"time":65.37568079882809,"velocity":0.5905511811023622},{"duration":0.1651160712890487,"durationTicks":479,"midi":41,"name":"F2","ticks":189975,"time":65.54975932910153,"velocity":0.6062992125984252},{"duration":0.06963141210937351,"durationTicks":202,"midi":58,"name":"A#3","ticks":190485,"time":65.72556140917965,"velocity":0.6141732283464567},{"duration":0.17545737011718643,"durationTicks":509,"midi":43,"name":"G2","ticks":190485,"time":65.72556140917965,"velocity":0.6141732283464567},{"duration":0.06790786230469337,"durationTicks":197,"midi":55,"name":"G3","ticks":190995,"time":65.90136348925778,"velocity":0.6141732283464567},{"duration":0.16339252148436856,"durationTicks":474,"midi":43,"name":"G2","ticks":190995,"time":65.90136348925778,"velocity":0.6141732283464567},{"duration":0.16339252148438277,"durationTicks":474,"midi":70,"name":"A#4","ticks":191500,"time":66.07544201953121,"velocity":0.6220472440944882},{"duration":0.16339252148438277,"durationTicks":474,"midi":38,"name":"D2","ticks":191500,"time":66.07544201953121,"velocity":0.6141732283464567},{"duration":0.16408194140623777,"durationTicks":476,"midi":67,"name":"G4","ticks":192005,"time":66.24952054980466,"velocity":0.6299212598425197},{"duration":0.16408194140623777,"durationTicks":476,"midi":41,"name":"F2","ticks":192005,"time":66.24952054980466,"velocity":0.6299212598425197},{"duration":0.18648808886719337,"durationTicks":541,"midi":43,"name":"G2","ticks":192516,"time":66.42566733984371,"velocity":0.6377952755905512},{"duration":0.0689419921875043,"durationTicks":200,"midi":58,"name":"A#3","ticks":193058,"time":66.61250013867183,"velocity":0.6456692913385826},{"duration":0.1644266513671937,"durationTicks":477,"midi":43,"name":"G2","ticks":193058,"time":66.61250013867183,"velocity":0.6456692913385826},{"duration":0.06790786230467916,"durationTicks":197,"midi":55,"name":"G3","ticks":193566,"time":66.78761279882809,"velocity":0.6535433070866141},{"duration":0.16339252148436856,"durationTicks":474,"midi":38,"name":"D2","ticks":193566,"time":66.78761279882809,"velocity":0.6456692913385826},{"duration":0.16511607128906292,"durationTicks":479,"midi":41,"name":"F2","ticks":194071,"time":66.96169132910153,"velocity":0.6535433070866141},{"duration":0.16537746582031332,"durationTicks":479,"midi":70,"name":"A#4","ticks":194581,"time":67.13749340917965,"velocity":0.6614173228346457},{"duration":0.1190427783203063,"durationTicks":345,"midi":43,"name":"G2","ticks":194581,"time":67.13749340917965,"velocity":0.5669291338582677},{"duration":0.11359210156250299,"durationTicks":328,"midi":43,"name":"G2","ticks":194927,"time":67.25688196874997,"velocity":0.5748031496062992},{"duration":0.1646127011718761,"durationTicks":474,"midi":67,"name":"G4","ticks":195091,"time":67.31360835156246,"velocity":0.6692913385826772},{"duration":0.04653066015625029,"durationTicks":134,"midi":43,"name":"G2","ticks":195256,"time":67.37082081249997,"velocity":0.5748031496062992},{"duration":0.1655828671874957,"durationTicks":474,"midi":58,"name":"A#3","ticks":195596,"time":67.48901532421873,"velocity":0.6771653543307087},{"duration":0.1655828671874957,"durationTicks":474,"midi":38,"name":"D2","ticks":195596,"time":67.48901532421873,"velocity":0.6692913385826772},{"duration":0.16726816308593584,"durationTicks":476,"midi":59,"name":"B3","ticks":196101,"time":67.66544988964841,"velocity":0.6850393700787402},{"duration":0.16726816308593584,"durationTicks":476,"midi":41,"name":"F2","ticks":196101,"time":67.66544988964841,"velocity":0.6850393700787402},{"duration":2.822140450195306,"durationTicks":8187,"midi":67,"name":"G4","ticks":196612,"time":67.84500858984373,"velocity":0.6929133858267716},{"duration":0.17614679003905565,"durationTicks":511,"midi":63,"name":"D#4","ticks":196612,"time":67.84500858984373,"velocity":0.7322834645669292},{"duration":0.18648808886717916,"durationTicks":541,"midi":48,"name":"C3","ticks":196612,"time":67.84500858984373,"velocity":0.7322834645669292},{"duration":0.1644266513671937,"durationTicks":477,"midi":60,"name":"C4","ticks":197154,"time":68.03184138867185,"velocity":0.6929133858267716},{"duration":0.1644266513671937,"durationTicks":477,"midi":48,"name":"C3","ticks":197154,"time":68.03184138867185,"velocity":0.6929133858267716},{"duration":0.16339252148438277,"durationTicks":474,"midi":43,"name":"G2","ticks":197662,"time":68.2069540488281,"velocity":0.7007874015748031},{"duration":0.16511607128906292,"durationTicks":479,"midi":46,"name":"A#2","ticks":198167,"time":68.38103257910154,"velocity":0.6929133858267716},{"duration":0.17545737011718643,"durationTicks":509,"midi":48,"name":"C3","ticks":198677,"time":68.55683465917967,"velocity":0.7165354330708661},{"duration":0.16339252148438277,"durationTicks":474,"midi":58,"name":"A#3","ticks":199187,"time":68.73263673925779,"velocity":0.6929133858267716},{"duration":0.16339252148438277,"durationTicks":474,"midi":48,"name":"C3","ticks":199187,"time":68.73263673925779,"velocity":0.6929133858267716},{"duration":0.06790786230467916,"durationTicks":197,"midi":60,"name":"C4","ticks":199692,"time":68.90671526953123,"velocity":0.7007874015748031},{"duration":0.16339252148436856,"durationTicks":474,"midi":43,"name":"G2","ticks":199692,"time":68.90671526953123,"velocity":0.7007874015748031},{"duration":0.3522935800781255,"durationTicks":1022,"midi":63,"name":"D#4","ticks":200197,"time":69.08079379980467,"velocity":0.6929133858267716},{"duration":0.16408194140625199,"durationTicks":476,"midi":46,"name":"A#2","ticks":200197,"time":69.08079379980467,"velocity":0.6929133858267716},{"duration":0.18648808886719337,"durationTicks":541,"midi":48,"name":"C3","ticks":200708,"time":69.25694058984372,"velocity":0.7322834645669292},{"duration":0.1644266513671795,"durationTicks":477,"midi":60,"name":"C4","ticks":201250,"time":69.44377338867186,"velocity":0.6929133858267716},{"duration":0.1644266513671795,"durationTicks":477,"midi":48,"name":"C3","ticks":201250,"time":69.44377338867186,"velocity":0.6929133858267716},{"duration":0.16339252148436856,"durationTicks":474,"midi":43,"name":"G2","ticks":201758,"time":69.6188860488281,"velocity":0.7007874015748031},{"duration":0.16511607128906292,"durationTicks":479,"midi":46,"name":"A#2","ticks":202263,"time":69.79296457910154,"velocity":0.6929133858267716},{"duration":0.11892493652344172,"durationTicks":345,"midi":48,"name":"C3","ticks":202773,"time":69.96876665917966,"velocity":0.6220472440944882},{"duration":0.11306486718750364,"durationTicks":328,"midi":48,"name":"C3","ticks":203119,"time":70.08803630566403,"velocity":0.5984251968503937},{"duration":0.16339252148436856,"durationTicks":474,"midi":65,"name":"F4","ticks":203283,"time":70.14456873925779,"velocity":0.6929133858267716},{"duration":0.0461911347656212,"durationTicks":134,"midi":48,"name":"C3","ticks":203448,"time":70.20144588281248,"velocity":0.5984251968503937},{"duration":0.3485017705078093,"durationTicks":1011,"midi":67,"name":"G4","ticks":203788,"time":70.31864726953123,"velocity":0.7007874015748031},{"duration":0.16339252148438277,"durationTicks":474,"midi":43,"name":"G2","ticks":203788,"time":70.31864726953123,"velocity":0.7007874015748031},{"duration":0.1744232402343755,"durationTicks":506,"midi":46,"name":"A#2","ticks":204293,"time":70.49272579980466,"velocity":0.6929133858267716},{"duration":2.822140450195306,"durationTicks":8187,"midi":65,"name":"F4","ticks":204804,"time":70.66887258984373,"velocity":0.6929133858267716},{"duration":0.0954846591796894,"durationTicks":277,"midi":63,"name":"D#4","ticks":204804,"time":70.66887258984373,"velocity":0.7322834645669292},{"duration":0.18648808886717916,"durationTicks":541,"midi":46,"name":"A#2","ticks":204804,"time":70.66887258984373,"velocity":0.7322834645669292},{"duration":0.08031742089843874,"durationTicks":233,"midi":62,"name":"D4","ticks":205097,"time":70.76987260839842,"velocity":0.6929133858267716},{"duration":0.1644266513671937,"durationTicks":477,"midi":60,"name":"C4","ticks":205346,"time":70.85570538867185,"velocity":0.6929133858267716},{"duration":0.1644266513671937,"durationTicks":477,"midi":46,"name":"A#2","ticks":205346,"time":70.85570538867185,"velocity":0.6929133858267716},{"duration":0.16339252148438277,"durationTicks":474,"midi":41,"name":"F2","ticks":205854,"time":71.0308180488281,"velocity":0.7007874015748031},{"duration":0.16511607128906292,"durationTicks":479,"midi":44,"name":"G#2","ticks":206359,"time":71.20489657910154,"velocity":0.6929133858267716},{"duration":0.17545737011720064,"durationTicks":509,"midi":46,"name":"A#2","ticks":206869,"time":71.38069865917966,"velocity":0.7165354330708661},{"duration":0.16339252148438277,"durationTicks":474,"midi":55,"name":"G3","ticks":207379,"time":71.55650073925779,"velocity":0.6929133858267716},{"duration":0.16339252148438277,"durationTicks":474,"midi":46,"name":"A#2","ticks":207379,"time":71.55650073925779,"velocity":0.6929133858267716},{"duration":0.16339252148436856,"durationTicks":474,"midi":63,"name":"D#4","ticks":207884,"time":71.73057926953123,"velocity":0.7007874015748031},{"duration":0.16339252148436856,"durationTicks":474,"midi":41,"name":"F2","ticks":207884,"time":71.73057926953123,"velocity":0.7007874015748031},{"duration":0.3522935800781255,"durationTicks":1022,"midi":60,"name":"C4","ticks":208389,"time":71.90465779980467,"velocity":0.6929133858267716},{"duration":0.16408194140625199,"durationTicks":476,"midi":44,"name":"G#2","ticks":208389,"time":71.90465779980467,"velocity":0.6929133858267716},{"duration":0.18648808886719337,"durationTicks":541,"midi":46,"name":"A#2","ticks":208900,"time":72.08080458984372,"velocity":0.7322834645669292},{"duration":0.1644266513671795,"durationTicks":477,"midi":58,"name":"A#3","ticks":209442,"time":72.26763738867186,"velocity":0.6929133858267716},{"duration":0.1644266513671795,"durationTicks":477,"midi":46,"name":"A#2","ticks":209442,"time":72.26763738867186,"velocity":0.6929133858267716},{"duration":0.3495359003906202,"durationTicks":1014,"midi":60,"name":"C4","ticks":209950,"time":72.4427500488281,"velocity":0.7007874015748031},{"duration":0.16339252148436856,"durationTicks":474,"midi":41,"name":"F2","ticks":209950,"time":72.4427500488281,"velocity":0.7007874015748031},{"duration":0.16511607128906292,"durationTicks":479,"midi":44,"name":"G#2","ticks":210455,"time":72.61682857910154,"velocity":0.6929133858267716},{"duration":0.16511607128906292,"durationTicks":479,"midi":58,"name":"A#3","ticks":210965,"time":72.79263065917966,"velocity":0.7165354330708661},{"duration":0.11892493652344172,"durationTicks":345,"midi":46,"name":"A#2","ticks":210965,"time":72.79263065917966,"velocity":0.6220472440944882},{"duration":0.11306486718750364,"durationTicks":328,"midi":46,"name":"A#2","ticks":211311,"time":72.91190030566403,"velocity":0.5984251968503937},{"duration":0.34781235058594007,"durationTicks":1009,"midi":60,"name":"C4","ticks":211475,"time":72.96843273925779,"velocity":0.6929133858267716},{"duration":0.0461911347656212,"durationTicks":134,"midi":46,"name":"A#2","ticks":211640,"time":73.02530988281248,"velocity":0.5984251968503937},{"duration":0.16339252148436856,"durationTicks":474,"midi":41,"name":"F2","ticks":211980,"time":73.14251126953123,"velocity":0.7007874015748031},{"duration":0.16408194140625199,"durationTicks":476,"midi":58,"name":"A#3","ticks":212485,"time":73.31658979980466,"velocity":0.6929133858267716},{"duration":0.1744232402343755,"durationTicks":506,"midi":44,"name":"G#2","ticks":212485,"time":73.31658979980466,"velocity":0.6929133858267716},{"duration":2.123413359374993,"durationTicks":6160,"midi":67,"name":"G4","ticks":212996,"time":73.49273658984373,"velocity":0.6929133858267716},{"duration":0.17614679003905565,"durationTicks":511,"midi":65,"name":"F4","ticks":212996,"time":73.49273658984373,"velocity":0.7322834645669292},{"duration":0.18648808886717916,"durationTicks":541,"midi":44,"name":"G#2","ticks":212996,"time":73.49273658984373,"velocity":0.7322834645669292},{"duration":0.0689419921875043,"durationTicks":200,"midi":63,"name":"D#4","ticks":213538,"time":73.67956938867185,"velocity":0.6929133858267716},{"duration":0.1644266513671937,"durationTicks":477,"midi":44,"name":"G#2","ticks":213538,"time":73.67956938867185,"velocity":0.6929133858267716},{"duration":0.16339252148438277,"durationTicks":474,"midi":39,"name":"D#2","ticks":214046,"time":73.8546820488281,"velocity":0.6929133858267716},{"duration":0.16511607128906292,"durationTicks":479,"midi":42,"name":"F#2","ticks":214551,"time":74.02876057910154,"velocity":0.6929133858267716},{"duration":0.17545737011718643,"durationTicks":509,"midi":44,"name":"G#2","ticks":215061,"time":74.20456265917966,"velocity":0.7165354330708661},{"duration":0.16339252148438277,"durationTicks":474,"midi":65,"name":"F4","ticks":215571,"time":74.38036473925779,"velocity":0.6929133858267716},{"duration":0.16339252148438277,"durationTicks":474,"midi":44,"name":"G#2","ticks":215571,"time":74.38036473925779,"velocity":0.6929133858267716},{"duration":0.06790786230469337,"durationTicks":197,"midi":63,"name":"D#4","ticks":216076,"time":74.55444326953122,"velocity":0.7007874015748031},{"duration":0.16339252148438277,"durationTicks":474,"midi":39,"name":"D#2","ticks":216076,"time":74.55444326953122,"velocity":0.6929133858267716},{"duration":0.16408194140625199,"durationTicks":476,"midi":42,"name":"F#2","ticks":216581,"time":74.72852179980467,"velocity":0.6929133858267716},{"duration":0.17614679003906986,"durationTicks":511,"midi":60,"name":"C4","ticks":217092,"time":74.90466858984372,"velocity":0.7322834645669292},{"duration":0.18648808886719337,"durationTicks":541,"midi":44,"name":"G#2","ticks":217092,"time":74.90466858984372,"velocity":0.7322834645669292},{"duration":0.1644266513671937,"durationTicks":477,"midi":63,"name":"D#4","ticks":217634,"time":75.09150138867184,"velocity":0.6929133858267716},{"duration":0.1644266513671937,"durationTicks":477,"midi":44,"name":"G#2","ticks":217634,"time":75.09150138867184,"velocity":0.6929133858267716},{"duration":0.16339252148436856,"durationTicks":474,"midi":39,"name":"D#2","ticks":218142,"time":75.2666140488281,"velocity":0.6929133858267716},{"duration":0.16511607128906292,"durationTicks":479,"midi":60,"name":"C4","ticks":218647,"time":75.44069257910154,"velocity":0.6929133858267716},{"duration":0.16511607128906292,"durationTicks":479,"midi":43,"name":"G2","ticks":218647,"time":75.44069257910154,"velocity":0.6929133858267716},{"duration":0.16511607128906292,"durationTicks":479,"midi":63,"name":"D#4","ticks":219157,"time":75.61649465917966,"velocity":0.7165354330708661},{"duration":0.11892493652344172,"durationTicks":345,"midi":44,"name":"G#2","ticks":219157,"time":75.61649465917966,"velocity":0.6220472440944882},{"duration":0.11306486718750364,"durationTicks":328,"midi":44,"name":"G#2","ticks":219503,"time":75.73576430566403,"velocity":0.5984251968503937},{"duration":0.16339252148436856,"durationTicks":474,"midi":65,"name":"F4","ticks":219667,"time":75.7922967392578,"velocity":0.6929133858267716},{"duration":0.0461911347656212,"durationTicks":134,"midi":44,"name":"G#2","ticks":219832,"time":75.84917388281248,"velocity":0.5984251968503937},{"duration":0.16339252148436856,"durationTicks":474,"midi":66,"name":"F#4","ticks":220172,"time":75.96637526953123,"velocity":0.7007874015748031},{"duration":0.16339252148436856,"durationTicks":474,"midi":39,"name":"D#2","ticks":220172,"time":75.96637526953123,"velocity":0.6929133858267716},{"duration":0.16408194140625199,"durationTicks":476,"midi":67,"name":"G4","ticks":220677,"time":76.14045379980466,"velocity":0.6929133858267716},{"duration":0.1744232402343755,"durationTicks":506,"midi":43,"name":"G2","ticks":220677,"time":76.14045379980466,"velocity":0.6929133858267716},{"duration":0.17614679003905565,"durationTicks":511,"midi":70,"name":"A#4","ticks":221188,"time":76.31660058984373,"velocity":0.7322834645669292},{"duration":0.18648808886717916,"durationTicks":541,"midi":43,"name":"G2","ticks":221188,"time":76.31660058984373,"velocity":0.7322834645669292},{"duration":0.1644266513671937,"durationTicks":477,"midi":67,"name":"G4","ticks":221730,"time":76.50343338867185,"velocity":0.6929133858267716},{"duration":0.1644266513671937,"durationTicks":477,"midi":43,"name":"G2","ticks":221730,"time":76.50343338867185,"velocity":0.6929133858267716},{"duration":0.06790786230469337,"durationTicks":197,"midi":58,"name":"A#3","ticks":222238,"time":76.6785460488281,"velocity":0.7007874015748031},{"duration":0.16339252148438277,"durationTicks":474,"midi":38,"name":"D2","ticks":222238,"time":76.6785460488281,"velocity":0.6929133858267716},{"duration":0.06963141210937351,"durationTicks":202,"midi":55,"name":"G3","ticks":222743,"time":76.85262457910154,"velocity":0.6929133858267716},{"duration":0.16511607128906292,"durationTicks":479,"midi":41,"name":"F2","ticks":222743,"time":76.85262457910154,"velocity":0.6929133858267716},{"duration":0.06963141210938772,"durationTicks":202,"midi":82,"name":"A#5","ticks":223253,"time":77.02842665917966,"velocity":0.7165354330708661},{"duration":0.17545737011720064,"durationTicks":509,"midi":43,"name":"G2","ticks":223253,"time":77.02842665917966,"velocity":0.7165354330708661},{"duration":0.06790786230469337,"durationTicks":197,"midi":79,"name":"G5","ticks":223763,"time":77.20422873925779,"velocity":0.6929133858267716},{"duration":0.16339252148438277,"durationTicks":474,"midi":43,"name":"G2","ticks":223763,"time":77.20422873925779,"velocity":0.6929133858267716},{"duration":0.16339252148436856,"durationTicks":474,"midi":70,"name":"A#4","ticks":224268,"time":77.37830726953123,"velocity":0.7007874015748031},{"duration":0.16339252148436856,"durationTicks":474,"midi":38,"name":"D2","ticks":224268,"time":77.37830726953123,"velocity":0.6929133858267716},{"duration":0.16408194140625199,"durationTicks":476,"midi":67,"name":"G4","ticks":224773,"time":77.55238579980467,"velocity":0.6929133858267716},{"duration":0.16408194140625199,"durationTicks":476,"midi":41,"name":"F2","ticks":224773,"time":77.55238579980467,"velocity":0.6929133858267716},{"duration":0.08066213085938045,"durationTicks":234,"midi":58,"name":"A#3","ticks":225284,"time":77.72853258984372,"velocity":0.7322834645669292},{"duration":0.18648808886719337,"durationTicks":541,"midi":43,"name":"G2","ticks":225284,"time":77.72853258984372,"velocity":0.7322834645669292},{"duration":0.06894199218749009,"durationTicks":200,"midi":55,"name":"G3","ticks":225826,"time":77.91536538867186,"velocity":0.6929133858267716},{"duration":0.1644266513671795,"durationTicks":477,"midi":43,"name":"G2","ticks":225826,"time":77.91536538867186,"velocity":0.6929133858267716},{"duration":0.06790786230469337,"durationTicks":197,"midi":82,"name":"A#5","ticks":226334,"time":78.0904780488281,"velocity":0.7007874015748031},{"duration":0.16339252148436856,"durationTicks":474,"midi":38,"name":"D2","ticks":226334,"time":78.0904780488281,"velocity":0.6929133858267716},{"duration":0.06963141210937351,"durationTicks":202,"midi":79,"name":"G5","ticks":226839,"time":78.26455657910154,"velocity":0.6929133858267716},{"duration":0.16511607128906292,"durationTicks":479,"midi":41,"name":"F2","ticks":226839,"time":78.26455657910154,"velocity":0.6929133858267716},{"duration":0.16511607128906292,"durationTicks":479,"midi":70,"name":"A#4","ticks":227349,"time":78.44035865917967,"velocity":0.7165354330708661},{"duration":0.11892493652344172,"durationTicks":345,"midi":43,"name":"G2","ticks":227349,"time":78.44035865917967,"velocity":0.6220472440944882},{"duration":0.11306486718750364,"durationTicks":328,"midi":43,"name":"G2","ticks":227695,"time":78.55962830566403,"velocity":0.5984251968503937},{"duration":0.16339252148436856,"durationTicks":474,"midi":67,"name":"G4","ticks":227859,"time":78.6161607392578,"velocity":0.6929133858267716},{"duration":0.0461911347656212,"durationTicks":134,"midi":43,"name":"G2","ticks":228024,"time":78.67303788281248,"velocity":0.5984251968503937},{"duration":0.16339252148436856,"durationTicks":474,"midi":58,"name":"A#3","ticks":228364,"time":78.79023926953123,"velocity":0.7007874015748031},{"duration":0.16339252148436856,"durationTicks":474,"midi":38,"name":"D2","ticks":228364,"time":78.79023926953123,"velocity":0.6929133858267716},{"duration":0.16408194140625199,"durationTicks":476,"midi":59,"name":"B3","ticks":228869,"time":78.96431779980466,"velocity":0.6929133858267716},{"duration":0.16408194140625199,"durationTicks":476,"midi":41,"name":"F2","ticks":228869,"time":78.96431779980466,"velocity":0.6929133858267716},{"duration":0.18648808886717916,"durationTicks":541,"midi":60,"name":"C4","ticks":229380,"time":79.14046458984373,"velocity":0.6299212598425197},{"duration":0.711481359375,"durationTicks":2064,"midi":44,"name":"G#2","ticks":229380,"time":79.14046458984373,"velocity":0.6299212598425197},{"duration":0.1747679501953172,"durationTicks":507,"midi":60,"name":"C4","ticks":229922,"time":79.32729738867185,"velocity":0.5905511811023622},{"duration":0.16339252148438277,"durationTicks":474,"midi":60,"name":"C4","ticks":230430,"time":79.5024100488281,"velocity":0.5984251968503937},{"duration":0.16511607128906292,"durationTicks":479,"midi":62,"name":"D4","ticks":230935,"time":79.67648857910154,"velocity":0.5905511811023622},{"duration":0.17545737011718643,"durationTicks":509,"midi":63,"name":"D#4","ticks":231445,"time":79.85229065917966,"velocity":0.6141732283464567},{"duration":0.6983823808593854,"durationTicks":2026,"midi":46,"name":"A#2","ticks":231445,"time":79.85229065917966,"velocity":0.6141732283464567},{"duration":0.16339252148438277,"durationTicks":474,"midi":63,"name":"D#4","ticks":231955,"time":80.02809273925779,"velocity":0.5905511811023622},{"duration":0.16339252148438277,"durationTicks":474,"midi":62,"name":"D4","ticks":232460,"time":80.20217126953122,"velocity":0.5984251968503937},{"duration":0.16408194140623777,"durationTicks":476,"midi":60,"name":"C4","ticks":232965,"time":80.37624979980467,"velocity":0.5905511811023622},{"duration":0.17614679003906986,"durationTicks":511,"midi":58,"name":"A#3","ticks":233476,"time":80.55239658984372,"velocity":0.6299212598425197},{"duration":1.410208450195313,"durationTicks":4091,"midi":48,"name":"C3","ticks":233476,"time":80.55239658984372,"velocity":0.5905511811023622},{"duration":0.0689419921875043,"durationTicks":200,"midi":60,"name":"C4","ticks":234018,"time":80.73922938867184,"velocity":0.5905511811023622},{"duration":0.8638431621093758,"durationTicks":2506,"midi":55,"name":"G3","ticks":235031,"time":81.08842057910154,"velocity":0.5905511811023622},{"duration":0.18648808886717916,"durationTicks":541,"midi":60,"name":"C4","ticks":237572,"time":81.96432858984373,"velocity":0.6299212598425197},{"duration":0.711481359375,"durationTicks":2064,"midi":44,"name":"G#2","ticks":237572,"time":81.96432858984373,"velocity":0.6299212598425197},{"duration":0.1747679501953172,"durationTicks":507,"midi":60,"name":"C4","ticks":238114,"time":82.15116138867185,"velocity":0.5905511811023622},{"duration":0.16339252148438277,"durationTicks":474,"midi":60,"name":"C4","ticks":238622,"time":82.3262740488281,"velocity":0.5984251968503937},{"duration":0.16511607128906292,"durationTicks":479,"midi":62,"name":"D4","ticks":239127,"time":82.50035257910154,"velocity":0.5905511811023622},{"duration":0.17545737011718643,"durationTicks":509,"midi":63,"name":"D#4","ticks":239637,"time":82.67615465917966,"velocity":0.6141732283464567},{"duration":0.6983823808593854,"durationTicks":2026,"midi":46,"name":"A#2","ticks":239637,"time":82.67615465917966,"velocity":0.6141732283464567},{"duration":0.16339252148438277,"durationTicks":474,"midi":63,"name":"D#4","ticks":240147,"time":82.85195673925779,"velocity":0.5905511811023622},{"duration":0.16339252148438277,"durationTicks":474,"midi":65,"name":"F4","ticks":240652,"time":83.02603526953122,"velocity":0.5984251968503937},{"duration":0.16408194140625199,"durationTicks":476,"midi":63,"name":"D#4","ticks":241157,"time":83.20011379980467,"velocity":0.5905511811023622},{"duration":0.17614679003906986,"durationTicks":511,"midi":65,"name":"F4","ticks":241668,"time":83.37626058984372,"velocity":0.6299212598425197},{"duration":1.410208450195313,"durationTicks":4091,"midi":48,"name":"C3","ticks":241668,"time":83.37626058984372,"velocity":0.5905511811023622},{"duration":0.0689419921875043,"durationTicks":200,"midi":67,"name":"G4","ticks":242210,"time":83.56309338867185,"velocity":0.5905511811023622},{"duration":0.6994165107421964,"durationTicks":2029,"midi":67,"name":"G4","ticks":243223,"time":83.91228457910154,"velocity":0.5905511811023622},{"duration":0.07997271093749703,"durationTicks":232,"midi":63,"name":"D#4","ticks":245253,"time":84.61204579980466,"velocity":0.5905511811023622},{"duration":0.08376452050782746,"durationTicks":243,"midi":62,"name":"D4","ticks":245501,"time":84.69753387011716,"velocity":0.5905511811023622},{"duration":0.18648808886717916,"durationTicks":541,"midi":60,"name":"C4","ticks":245764,"time":84.78819258984373,"velocity":0.6299212598425197},{"duration":0.711481359375,"durationTicks":2064,"midi":44,"name":"G#2","ticks":245764,"time":84.78819258984373,"velocity":0.6299212598425197},{"duration":0.1747679501953172,"durationTicks":507,"midi":60,"name":"C4","ticks":246306,"time":84.97502538867185,"velocity":0.5905511811023622},{"duration":0.16339252148438277,"durationTicks":474,"midi":60,"name":"C4","ticks":246814,"time":85.1501380488281,"velocity":0.5984251968503937},{"duration":0.1651160712890487,"durationTicks":479,"midi":62,"name":"D4","ticks":247319,"time":85.32421657910155,"velocity":0.5905511811023622},{"duration":0.17545737011718643,"durationTicks":509,"midi":63,"name":"D#4","ticks":247829,"time":85.50001865917966,"velocity":0.6141732283464567},{"duration":0.6983823808593854,"durationTicks":2026,"midi":46,"name":"A#2","ticks":247829,"time":85.50001865917966,"velocity":0.6141732283464567},{"duration":0.16339252148436856,"durationTicks":474,"midi":63,"name":"D#4","ticks":248339,"time":85.67582073925779,"velocity":0.5905511811023622},{"duration":0.16339252148438277,"durationTicks":474,"midi":62,"name":"D4","ticks":248844,"time":85.84989926953122,"velocity":0.5984251968503937},{"duration":0.16408194140623777,"durationTicks":476,"midi":60,"name":"C4","ticks":249349,"time":86.02397779980467,"velocity":0.5905511811023622},{"duration":0.17614679003905565,"durationTicks":511,"midi":58,"name":"A#3","ticks":249860,"time":86.20012458984372,"velocity":0.6299212598425197},{"duration":1.410208450195313,"durationTicks":4091,"midi":48,"name":"C3","ticks":249860,"time":86.20012458984372,"velocity":0.5905511811023622},{"duration":0.0689419921875043,"durationTicks":200,"midi":60,"name":"C4","ticks":250402,"time":86.38695738867185,"velocity":0.5905511811023622},{"duration":0.6994165107421821,"durationTicks":2029,"midi":55,"name":"G3","ticks":251415,"time":86.73614857910154,"velocity":0.5905511811023622},{"duration":0.07997271093749703,"durationTicks":232,"midi":56,"name":"G#3","ticks":253445,"time":87.43590979980466,"velocity":0.6299212598425197},{"duration":0.08514336035156589,"durationTicks":247,"midi":68,"name":"G#4","ticks":253445,"time":87.43590979980466,"velocity":0.7401574803149606},{"duration":0.08376452050779903,"durationTicks":243,"midi":58,"name":"A#3","ticks":253693,"time":87.52139787011717,"velocity":0.6299212598425197},{"duration":0.0889351699218679,"durationTicks":258,"midi":70,"name":"A#4","ticks":253693,"time":87.52139787011717,"velocity":0.7401574803149606},{"duration":0.18648808886719337,"durationTicks":541,"midi":60,"name":"C4","ticks":253956,"time":87.61205658984372,"velocity":0.6692913385826772},{"duration":0.18648808886719337,"durationTicks":541,"midi":72,"name":"C5","ticks":253956,"time":87.61205658984372,"velocity":0.7795275590551181},{"duration":0.711481359375,"durationTicks":2064,"midi":44,"name":"G#2","ticks":253956,"time":87.61205658984372,"velocity":0.7322834645669292},{"duration":0.174767950195303,"durationTicks":507,"midi":60,"name":"C4","ticks":254498,"time":87.79888938867185,"velocity":0.6299212598425197},{"duration":0.174767950195303,"durationTicks":507,"midi":72,"name":"C5","ticks":254498,"time":87.79888938867185,"velocity":0.7086614173228346},{"duration":0.16339252148438277,"durationTicks":474,"midi":60,"name":"C4","ticks":255006,"time":87.9740020488281,"velocity":0.6377952755905512},{"duration":0.17373382031250628,"durationTicks":504,"midi":72,"name":"C5","ticks":255006,"time":87.9740020488281,"velocity":0.7480314960629921},{"duration":0.16511607128907713,"durationTicks":479,"midi":62,"name":"D4","ticks":255511,"time":88.14808057910153,"velocity":0.6299212598425197},{"duration":0.17545737011718643,"durationTicks":509,"midi":74,"name":"D5","ticks":255511,"time":88.14808057910153,"velocity":0.7401574803149606},{"duration":0.17545737011718643,"durationTicks":509,"midi":60,"name":"C4","ticks":256021,"time":88.32388265917966,"velocity":0.6535433070866141},{"duration":0.17545737011718643,"durationTicks":509,"midi":72,"name":"C5","ticks":256021,"time":88.32388265917966,"velocity":0.7637795275590551},{"duration":0.6983823808593712,"durationTicks":2026,"midi":46,"name":"A#2","ticks":256021,"time":88.32388265917966,"velocity":0.7165354330708661},{"duration":0.16339252148438277,"durationTicks":474,"midi":60,"name":"C4","ticks":256531,"time":88.49968473925779,"velocity":0.6299212598425197},{"duration":0.17373382031250628,"durationTicks":504,"midi":72,"name":"C5","ticks":256531,"time":88.49968473925779,"velocity":0.7401574803149606},{"duration":0.16339252148438277,"durationTicks":474,"midi":58,"name":"A#3","ticks":257036,"time":88.67376326953122,"velocity":0.6377952755905512},{"duration":0.17373382031250628,"durationTicks":504,"midi":70,"name":"A#4","ticks":257036,"time":88.67376326953122,"velocity":0.7480314960629921},{"duration":0.1640819414062662,"durationTicks":476,"midi":55,"name":"G3","ticks":257541,"time":88.84784179980466,"velocity":0.6299212598425197},{"duration":0.1744232402343755,"durationTicks":506,"midi":67,"name":"G4","ticks":257541,"time":88.84784179980466,"velocity":0.7401574803149606},{"duration":0.17614679003906986,"durationTicks":511,"midi":53,"name":"F3","ticks":258052,"time":89.02398858984373,"velocity":0.6692913385826772},{"duration":0.18648808886719337,"durationTicks":541,"midi":65,"name":"F4","ticks":258052,"time":89.02398858984373,"velocity":0.7795275590551181},{"duration":0.5356792792968719,"durationTicks":1554,"midi":48,"name":"C3","ticks":258052,"time":89.02398858984373,"velocity":0.7322834645669292},{"duration":0.1644266513671937,"durationTicks":477,"midi":55,"name":"G3","ticks":258594,"time":89.21082138867185,"velocity":0.6299212598425197},{"duration":0.1747679501953172,"durationTicks":507,"midi":67,"name":"G4","ticks":258594,"time":89.21082138867185,"velocity":0.7401574803149606},{"duration":0.1644266513671937,"durationTicks":477,"midi":55,"name":"G3","ticks":258594,"time":89.21082138867185,"velocity":0.6929133858267716},{"duration":0.08341981054687153,"durationTicks":242,"midi":51,"name":"D#3","ticks":259102,"time":89.3859340488281,"velocity":0.6377952755905512},{"duration":0.0885904599609404,"durationTicks":257,"midi":63,"name":"D#4","ticks":259102,"time":89.3859340488281,"velocity":0.7480314960629921},{"duration":0.08341981054687153,"durationTicks":242,"midi":51,"name":"D#3","ticks":259102,"time":89.3859340488281,"velocity":0.7007874015748031},{"duration":0.07962800097656952,"durationTicks":231,"midi":50,"name":"D3","ticks":259360,"time":89.47486921874997,"velocity":0.6299212598425197},{"duration":0.08479865039062418,"durationTicks":246,"midi":62,"name":"D4","ticks":259360,"time":89.47486921874997,"velocity":0.7401574803149606},{"duration":0.07962800097656952,"durationTicks":231,"midi":50,"name":"D3","ticks":259360,"time":89.47486921874997,"velocity":0.6929133858267716},{"duration":0.8741844609374994,"durationTicks":2536,"midi":60,"name":"C4","ticks":259607,"time":89.56001257910154,"velocity":0.6929133858267716},{"duration":0.8741844609374994,"durationTicks":2536,"midi":48,"name":"C3","ticks":259607,"time":89.56001257910154,"velocity":0.6929133858267716},{"duration":0.18648808886717916,"durationTicks":541,"midi":48,"name":"C3","ticks":262148,"time":90.43592058984373,"velocity":0.7322834645669292},{"duration":0.1644266513671937,"durationTicks":477,"midi":48,"name":"C3","ticks":262690,"time":90.62275338867185,"velocity":0.6929133858267716},{"duration":0.16339252148438277,"durationTicks":474,"midi":43,"name":"G2","ticks":263198,"time":90.7978660488281,"velocity":0.7007874015748031},{"duration":0.16511607128906292,"durationTicks":479,"midi":46,"name":"A#2","ticks":263703,"time":90.97194457910155,"velocity":0.6929133858267716},{"duration":0.17545737011718643,"durationTicks":509,"midi":48,"name":"C3","ticks":264213,"time":91.14774665917966,"velocity":0.7165354330708661},{"duration":0.16339252148438277,"durationTicks":474,"midi":48,"name":"C3","ticks":264723,"time":91.32354873925779,"velocity":0.6929133858267716},{"duration":0.16339252148438277,"durationTicks":474,"midi":43,"name":"G2","ticks":265228,"time":91.49762726953122,"velocity":0.7007874015748031},{"duration":0.16408194140625199,"durationTicks":476,"midi":46,"name":"A#2","ticks":265733,"time":91.67170579980467,"velocity":0.6929133858267716},{"duration":0.18648808886719337,"durationTicks":541,"midi":48,"name":"C3","ticks":266244,"time":91.84785258984373,"velocity":0.7322834645669292},{"duration":0.1644266513671937,"durationTicks":477,"midi":48,"name":"C3","ticks":266786,"time":92.03468538867185,"velocity":0.6929133858267716},{"duration":0.16339252148436856,"durationTicks":474,"midi":43,"name":"G2","ticks":267294,"time":92.2097980488281,"velocity":0.7007874015748031},{"duration":0.16511607128906292,"durationTicks":479,"midi":46,"name":"A#2","ticks":267799,"time":92.38387657910154,"velocity":0.6929133858267716},{"duration":0.17545737011718643,"durationTicks":509,"midi":48,"name":"C3","ticks":268309,"time":92.55967865917967,"velocity":0.7165354330708661},{"duration":0.16339252148436856,"durationTicks":474,"midi":48,"name":"C3","ticks":268819,"time":92.7354807392578,"velocity":0.6929133858267716},{"duration":0.16339252148436856,"durationTicks":474,"midi":43,"name":"G2","ticks":269324,"time":92.90955926953123,"velocity":0.7007874015748031},{"duration":0.16408194140625199,"durationTicks":476,"midi":46,"name":"A#2","ticks":269829,"time":93.08363779980466,"velocity":0.6929133858267716},{"duration":0.17614679003905565,"durationTicks":511,"midi":63,"name":"D#4","ticks":270340,"time":93.25978458984373,"velocity":0.7322834645669292},{"duration":0.18648808886717916,"durationTicks":541,"midi":48,"name":"C3","ticks":270340,"time":93.25978458984373,"velocity":0.7322834645669292},{"duration":0.0689419921875043,"durationTicks":200,"midi":60,"name":"C4","ticks":270882,"time":93.44661738867185,"velocity":0.6929133858267716},{"duration":0.1644266513671937,"durationTicks":477,"midi":48,"name":"C3","ticks":270882,"time":93.44661738867185,"velocity":0.6929133858267716},{"duration":0.16339252148438277,"durationTicks":474,"midi":43,"name":"G2","ticks":271390,"time":93.6217300488281,"velocity":0.7007874015748031},{"duration":0.16511607128906292,"durationTicks":479,"midi":46,"name":"A#2","ticks":271895,"time":93.79580857910155,"velocity":0.6929133858267716},{"duration":0.17545737011718643,"durationTicks":509,"midi":48,"name":"C3","ticks":272405,"time":93.97161065917966,"velocity":0.7165354330708661},{"duration":0.16339252148438277,"durationTicks":474,"midi":58,"name":"A#3","ticks":272915,"time":94.14741273925779,"velocity":0.6929133858267716},{"duration":0.16339252148438277,"durationTicks":474,"midi":48,"name":"C3","ticks":272915,"time":94.14741273925779,"velocity":0.6929133858267716},{"duration":0.06790786230469337,"durationTicks":197,"midi":60,"name":"C4","ticks":273420,"time":94.32149126953122,"velocity":0.7007874015748031},{"duration":0.16339252148438277,"durationTicks":474,"midi":43,"name":"G2","ticks":273420,"time":94.32149126953122,"velocity":0.7007874015748031},{"duration":0.3522935800781255,"durationTicks":1022,"midi":63,"name":"D#4","ticks":273925,"time":94.49556979980467,"velocity":0.6929133858267716},{"duration":0.16408194140625199,"durationTicks":476,"midi":46,"name":"A#2","ticks":273925,"time":94.49556979980467,"velocity":0.6929133858267716},{"duration":0.18648808886719337,"durationTicks":541,"midi":48,"name":"C3","ticks":274436,"time":94.67171658984373,"velocity":0.7322834645669292},{"duration":0.1644266513671937,"durationTicks":477,"midi":60,"name":"C4","ticks":274978,"time":94.85854938867185,"velocity":0.6929133858267716},{"duration":0.1644266513671937,"durationTicks":477,"midi":48,"name":"C3","ticks":274978,"time":94.85854938867185,"velocity":0.6929133858267716},{"duration":0.16339252148436856,"durationTicks":474,"midi":43,"name":"G2","ticks":275486,"time":95.0336620488281,"velocity":0.7007874015748031},{"duration":0.16511607128906292,"durationTicks":479,"midi":46,"name":"A#2","ticks":275991,"time":95.20774057910154,"velocity":0.6929133858267716},{"duration":0.17545737011718643,"durationTicks":509,"midi":48,"name":"C3","ticks":276501,"time":95.38354265917967,"velocity":0.7165354330708661},{"duration":0.16339252148436856,"durationTicks":474,"midi":65,"name":"F4","ticks":277011,"time":95.5593447392578,"velocity":0.6929133858267716},{"duration":0.16339252148436856,"durationTicks":474,"midi":48,"name":"C3","ticks":277011,"time":95.5593447392578,"velocity":0.6929133858267716},{"duration":0.3485017705078093,"durationTicks":1011,"midi":67,"name":"G4","ticks":277516,"time":95.73342326953123,"velocity":0.7007874015748031},{"duration":0.16339252148436856,"durationTicks":474,"midi":43,"name":"G2","ticks":277516,"time":95.73342326953123,"velocity":0.7007874015748031},{"duration":0.1744232402343755,"durationTicks":506,"midi":46,"name":"A#2","ticks":278021,"time":95.90750179980466,"velocity":0.6929133858267716},{"duration":0.09548465917967519,"durationTicks":277,"midi":63,"name":"D#4","ticks":278532,"time":96.08364858984373,"velocity":0.7322834645669292},{"duration":0.18648808886717916,"durationTicks":541,"midi":46,"name":"A#2","ticks":278532,"time":96.08364858984373,"velocity":0.7322834645669292},{"duration":0.08031742089843874,"durationTicks":233,"midi":62,"name":"D4","ticks":278825,"time":96.18464860839842,"velocity":0.6929133858267716},{"duration":0.1644266513671795,"durationTicks":477,"midi":60,"name":"C4","ticks":279074,"time":96.27048138867185,"velocity":0.6929133858267716},{"duration":0.1644266513671795,"durationTicks":477,"midi":46,"name":"A#2","ticks":279074,"time":96.27048138867185,"velocity":0.6929133858267716},{"duration":0.16339252148438277,"durationTicks":474,"midi":41,"name":"F2","ticks":279582,"time":96.4455940488281,"velocity":0.7007874015748031},{"duration":0.16511607128906292,"durationTicks":479,"midi":44,"name":"G#2","ticks":280087,"time":96.61967257910155,"velocity":0.6929133858267716},{"duration":0.17545737011718643,"durationTicks":509,"midi":46,"name":"A#2","ticks":280597,"time":96.79547465917966,"velocity":0.7165354330708661},{"duration":0.16339252148438277,"durationTicks":474,"midi":55,"name":"G3","ticks":281107,"time":96.97127673925779,"velocity":0.6929133858267716},{"duration":0.16339252148438277,"durationTicks":474,"midi":46,"name":"A#2","ticks":281107,"time":96.97127673925779,"velocity":0.6929133858267716},{"duration":0.16339252148438277,"durationTicks":474,"midi":63,"name":"D#4","ticks":281612,"time":97.14535526953122,"velocity":0.7007874015748031},{"duration":0.16339252148438277,"durationTicks":474,"midi":41,"name":"F2","ticks":281612,"time":97.14535526953122,"velocity":0.7007874015748031},{"duration":0.3522935800781255,"durationTicks":1022,"midi":60,"name":"C4","ticks":282117,"time":97.31943379980467,"velocity":0.6929133858267716},{"duration":0.16408194140623777,"durationTicks":476,"midi":44,"name":"G#2","ticks":282117,"time":97.31943379980467,"velocity":0.6929133858267716},{"duration":0.18648808886719337,"durationTicks":541,"midi":46,"name":"A#2","ticks":282628,"time":97.49558058984373,"velocity":0.7322834645669292},{"duration":0.1644266513671937,"durationTicks":477,"midi":58,"name":"A#3","ticks":283170,"time":97.68241338867185,"velocity":0.6929133858267716},{"duration":0.1644266513671937,"durationTicks":477,"midi":46,"name":"A#2","ticks":283170,"time":97.68241338867185,"velocity":0.6929133858267716},{"duration":0.3495359003906202,"durationTicks":1014,"midi":60,"name":"C4","ticks":283678,"time":97.8575260488281,"velocity":0.7007874015748031},{"duration":0.16339252148436856,"durationTicks":474,"midi":41,"name":"F2","ticks":283678,"time":97.8575260488281,"velocity":0.7007874015748031},{"duration":0.16511607128906292,"durationTicks":479,"midi":44,"name":"G#2","ticks":284183,"time":98.03160457910154,"velocity":0.6929133858267716},{"duration":0.16511607128906292,"durationTicks":479,"midi":58,"name":"A#3","ticks":284693,"time":98.20740665917967,"velocity":0.7165354330708661},{"duration":0.17545737011718643,"durationTicks":509,"midi":46,"name":"A#2","ticks":284693,"time":98.20740665917967,"velocity":0.7165354330708661},{"duration":0.34781235058592586,"durationTicks":1009,"midi":60,"name":"C4","ticks":285203,"time":98.3832087392578,"velocity":0.6929133858267716},{"duration":0.16339252148436856,"durationTicks":474,"midi":46,"name":"A#2","ticks":285203,"time":98.3832087392578,"velocity":0.6929133858267716},{"duration":0.16339252148436856,"durationTicks":474,"midi":41,"name":"F2","ticks":285708,"time":98.55728726953123,"velocity":0.7007874015748031},{"duration":0.16408194140625199,"durationTicks":476,"midi":58,"name":"A#3","ticks":286213,"time":98.73136579980466,"velocity":0.6929133858267716},{"duration":0.1744232402343755,"durationTicks":506,"midi":44,"name":"G#2","ticks":286213,"time":98.73136579980466,"velocity":0.6929133858267716},{"duration":0.17614679003905565,"durationTicks":511,"midi":65,"name":"F4","ticks":286724,"time":98.90751258984373,"velocity":0.7322834645669292},{"duration":0.18648808886717916,"durationTicks":541,"midi":44,"name":"G#2","ticks":286724,"time":98.90751258984373,"velocity":0.7322834645669292},{"duration":0.0689419921875043,"durationTicks":200,"midi":63,"name":"D#4","ticks":287266,"time":99.09434538867185,"velocity":0.6929133858267716},{"duration":0.1644266513671937,"durationTicks":477,"midi":44,"name":"G#2","ticks":287266,"time":99.09434538867185,"velocity":0.6929133858267716},{"duration":0.16339252148438277,"durationTicks":474,"midi":39,"name":"D#2","ticks":287774,"time":99.2694580488281,"velocity":0.6929133858267716},{"duration":0.16511607128907713,"durationTicks":479,"midi":42,"name":"F#2","ticks":288279,"time":99.44353657910153,"velocity":0.6929133858267716},{"duration":0.17545737011718643,"durationTicks":509,"midi":44,"name":"G#2","ticks":288789,"time":99.61933865917966,"velocity":0.7165354330708661},{"duration":0.16339252148438277,"durationTicks":474,"midi":65,"name":"F4","ticks":289299,"time":99.79514073925779,"velocity":0.6929133858267716},{"duration":0.16339252148438277,"durationTicks":474,"midi":44,"name":"G#2","ticks":289299,"time":99.79514073925779,"velocity":0.6929133858267716},{"duration":0.06790786230469337,"durationTicks":197,"midi":63,"name":"D#4","ticks":289804,"time":99.96921926953122,"velocity":0.7007874015748031},{"duration":0.16339252148438277,"durationTicks":474,"midi":39,"name":"D#2","ticks":289804,"time":99.96921926953122,"velocity":0.6929133858267716},{"duration":0.16408194140625199,"durationTicks":476,"midi":42,"name":"F#2","ticks":290309,"time":100.14329779980467,"velocity":0.6929133858267716},{"duration":0.17614679003906986,"durationTicks":511,"midi":60,"name":"C4","ticks":290820,"time":100.31944458984373,"velocity":0.7322834645669292},{"duration":0.18648808886719337,"durationTicks":541,"midi":44,"name":"G#2","ticks":290820,"time":100.31944458984373,"velocity":0.7322834645669292},{"duration":0.1644266513671937,"durationTicks":477,"midi":63,"name":"D#4","ticks":291362,"time":100.50627738867185,"velocity":0.6929133858267716},{"duration":0.1644266513671937,"durationTicks":477,"midi":44,"name":"G#2","ticks":291362,"time":100.50627738867185,"velocity":0.6929133858267716},{"duration":0.16339252148436856,"durationTicks":474,"midi":39,"name":"D#2","ticks":291870,"time":100.6813900488281,"velocity":0.6929133858267716},{"duration":0.16511607128906292,"durationTicks":479,"midi":60,"name":"C4","ticks":292375,"time":100.85546857910154,"velocity":0.6929133858267716},{"duration":0.16511607128906292,"durationTicks":479,"midi":42,"name":"F#2","ticks":292375,"time":100.85546857910154,"velocity":0.6929133858267716},{"duration":0.16511607128906292,"durationTicks":479,"midi":63,"name":"D#4","ticks":292885,"time":101.03127065917967,"velocity":0.7165354330708661},{"duration":0.17545737011718643,"durationTicks":509,"midi":44,"name":"G#2","ticks":292885,"time":101.03127065917967,"velocity":0.7165354330708661},{"duration":0.16339252148436856,"durationTicks":474,"midi":65,"name":"F4","ticks":293395,"time":101.2070727392578,"velocity":0.6929133858267716},{"duration":0.16339252148436856,"durationTicks":474,"midi":44,"name":"G#2","ticks":293395,"time":101.2070727392578,"velocity":0.6929133858267716},{"duration":0.16339252148436856,"durationTicks":474,"midi":66,"name":"F#4","ticks":293900,"time":101.38115126953123,"velocity":0.7007874015748031},{"duration":0.16339252148436856,"durationTicks":474,"midi":39,"name":"D#2","ticks":293900,"time":101.38115126953123,"velocity":0.6929133858267716},{"duration":0.16408194140625199,"durationTicks":476,"midi":67,"name":"G4","ticks":294405,"time":101.55522979980466,"velocity":0.6929133858267716},{"duration":0.16408194140625199,"durationTicks":476,"midi":42,"name":"F#2","ticks":294405,"time":101.55522979980466,"velocity":0.6929133858267716},{"duration":0.17614679003905565,"durationTicks":511,"midi":70,"name":"A#4","ticks":294916,"time":101.73137658984373,"velocity":0.7322834645669292},{"duration":0.18648808886717916,"durationTicks":541,"midi":43,"name":"G2","ticks":294916,"time":101.73137658984373,"velocity":0.7322834645669292},{"duration":0.1644266513671795,"durationTicks":477,"midi":67,"name":"G4","ticks":295458,"time":101.91820938867185,"velocity":0.6929133858267716},{"duration":0.1644266513671795,"durationTicks":477,"midi":43,"name":"G2","ticks":295458,"time":101.91820938867185,"velocity":0.6929133858267716},{"duration":0.06790786230469337,"durationTicks":197,"midi":58,"name":"A#3","ticks":295966,"time":102.0933220488281,"velocity":0.7007874015748031},{"duration":0.16339252148438277,"durationTicks":474,"midi":38,"name":"D2","ticks":295966,"time":102.0933220488281,"velocity":0.6929133858267716},{"duration":0.06963141210937351,"durationTicks":202,"midi":55,"name":"G3","ticks":296471,"time":102.26740057910155,"velocity":0.6929133858267716},{"duration":0.1651160712890487,"durationTicks":479,"midi":41,"name":"F2","ticks":296471,"time":102.26740057910155,"velocity":0.6929133858267716},{"duration":0.06963141210937351,"durationTicks":202,"midi":82,"name":"A#5","ticks":296981,"time":102.44320265917966,"velocity":0.7165354330708661},{"duration":0.17545737011718643,"durationTicks":509,"midi":43,"name":"G2","ticks":296981,"time":102.44320265917966,"velocity":0.7165354330708661},{"duration":0.06790786230469337,"durationTicks":197,"midi":79,"name":"G5","ticks":297491,"time":102.61900473925779,"velocity":0.6929133858267716},{"duration":0.16339252148436856,"durationTicks":474,"midi":43,"name":"G2","ticks":297491,"time":102.61900473925779,"velocity":0.6929133858267716},{"duration":0.16339252148438277,"durationTicks":474,"midi":70,"name":"A#4","ticks":297996,"time":102.79308326953122,"velocity":0.7007874015748031},{"duration":0.16339252148438277,"durationTicks":474,"midi":38,"name":"D2","ticks":297996,"time":102.79308326953122,"velocity":0.6929133858267716},{"duration":0.16408194140623777,"durationTicks":476,"midi":67,"name":"G4","ticks":298501,"time":102.96716179980467,"velocity":0.6929133858267716},{"duration":0.16408194140623777,"durationTicks":476,"midi":41,"name":"F2","ticks":298501,"time":102.96716179980467,"velocity":0.6929133858267716},{"duration":0.08066213085938045,"durationTicks":234,"midi":58,"name":"A#3","ticks":299012,"time":103.14330858984373,"velocity":0.7322834645669292},{"duration":0.18648808886719337,"durationTicks":541,"midi":43,"name":"G2","ticks":299012,"time":103.14330858984373,"velocity":0.7322834645669292},{"duration":0.0689419921875043,"durationTicks":200,"midi":55,"name":"G3","ticks":299554,"time":103.33014138867185,"velocity":0.6929133858267716},{"duration":0.1644266513671937,"durationTicks":477,"midi":43,"name":"G2","ticks":299554,"time":103.33014138867185,"velocity":0.6929133858267716},{"duration":0.06790786230467916,"durationTicks":197,"midi":82,"name":"A#5","ticks":300062,"time":103.5052540488281,"velocity":0.7007874015748031},{"duration":0.16339252148436856,"durationTicks":474,"midi":38,"name":"D2","ticks":300062,"time":103.5052540488281,"velocity":0.6929133858267716},{"duration":0.06963141210937351,"durationTicks":202,"midi":79,"name":"G5","ticks":300567,"time":103.67933257910154,"velocity":0.6929133858267716},{"duration":0.16511607128906292,"durationTicks":479,"midi":41,"name":"F2","ticks":300567,"time":103.67933257910154,"velocity":0.6929133858267716},{"duration":0.16537746582031332,"durationTicks":479,"midi":70,"name":"A#4","ticks":301077,"time":103.85513465917967,"velocity":0.7165354330708661},{"duration":0.17576820019530714,"durationTicks":509,"midi":43,"name":"G2","ticks":301077,"time":103.85513465917967,"velocity":0.7165354330708661},{"duration":0.1646127011718761,"durationTicks":474,"midi":67,"name":"G4","ticks":301587,"time":104.03124960156248,"velocity":0.6929133858267716},{"duration":0.1646127011718761,"durationTicks":474,"midi":43,"name":"G2","ticks":301587,"time":104.03124960156248,"velocity":0.6929133858267716},{"duration":0.1655828671874957,"durationTicks":474,"midi":58,"name":"A#3","ticks":302092,"time":104.20665657421874,"velocity":0.7007874015748031},{"duration":0.1655828671874957,"durationTicks":474,"midi":38,"name":"D2","ticks":302092,"time":104.20665657421874,"velocity":0.6929133858267716},{"duration":0.16726816308593584,"durationTicks":476,"midi":59,"name":"B3","ticks":302597,"time":104.38309113964843,"velocity":0.6929133858267716},{"duration":0.16726816308593584,"durationTicks":476,"midi":41,"name":"F2","ticks":302597,"time":104.38309113964843,"velocity":0.6929133858267716},{"duration":0.17614679003905565,"durationTicks":511,"midi":63,"name":"D#4","ticks":303108,"time":104.56264983984374,"velocity":0.7322834645669292},{"duration":0.18648808886717916,"durationTicks":541,"midi":48,"name":"C3","ticks":303108,"time":104.56264983984374,"velocity":0.7322834645669292},{"duration":0.0689419921875043,"durationTicks":200,"midi":60,"name":"C4","ticks":303650,"time":104.74948263867186,"velocity":0.6929133858267716},{"duration":0.1644266513671937,"durationTicks":477,"midi":48,"name":"C3","ticks":303650,"time":104.74948263867186,"velocity":0.6929133858267716},{"duration":0.16339252148438277,"durationTicks":474,"midi":43,"name":"G2","ticks":304158,"time":104.92459529882811,"velocity":0.7007874015748031},{"duration":0.16511607128906292,"durationTicks":479,"midi":46,"name":"A#2","ticks":304663,"time":105.09867382910156,"velocity":0.6929133858267716},{"duration":0.17545737011718643,"durationTicks":509,"midi":48,"name":"C3","ticks":305173,"time":105.27447590917969,"velocity":0.7165354330708661},{"duration":0.16339252148438277,"durationTicks":474,"midi":58,"name":"A#3","ticks":305683,"time":105.4502779892578,"velocity":0.6929133858267716},{"duration":0.16339252148438277,"durationTicks":474,"midi":48,"name":"C3","ticks":305683,"time":105.4502779892578,"velocity":0.6929133858267716},{"duration":0.06790786230467916,"durationTicks":197,"midi":60,"name":"C4","ticks":306188,"time":105.62435651953125,"velocity":0.7007874015748031},{"duration":0.16339252148436856,"durationTicks":474,"midi":43,"name":"G2","ticks":306188,"time":105.62435651953125,"velocity":0.7007874015748031},{"duration":0.3522935800781255,"durationTicks":1022,"midi":63,"name":"D#4","ticks":306693,"time":105.79843504980468,"velocity":0.6929133858267716},{"duration":0.16408194140625199,"durationTicks":476,"midi":46,"name":"A#2","ticks":306693,"time":105.79843504980468,"velocity":0.6929133858267716},{"duration":0.18648808886719337,"durationTicks":541,"midi":48,"name":"C3","ticks":307204,"time":105.97458183984374,"velocity":0.7322834645669292},{"duration":0.1644266513671795,"durationTicks":477,"midi":60,"name":"C4","ticks":307746,"time":106.16141463867187,"velocity":0.6929133858267716},{"duration":0.1644266513671795,"durationTicks":477,"midi":48,"name":"C3","ticks":307746,"time":106.16141463867187,"velocity":0.6929133858267716},{"duration":0.16339252148436856,"durationTicks":474,"midi":43,"name":"G2","ticks":308254,"time":106.33652729882812,"velocity":0.7007874015748031},{"duration":0.16511607128906292,"durationTicks":479,"midi":46,"name":"A#2","ticks":308759,"time":106.51060582910155,"velocity":0.6929133858267716},{"duration":0.17545737011718643,"durationTicks":509,"midi":48,"name":"C3","ticks":309269,"time":106.68640790917968,"velocity":0.7165354330708661},{"duration":0.16339252148436856,"durationTicks":474,"midi":65,"name":"F4","ticks":309779,"time":106.8622099892578,"velocity":0.6929133858267716},{"duration":0.16339252148436856,"durationTicks":474,"midi":48,"name":"C3","ticks":309779,"time":106.8622099892578,"velocity":0.6929133858267716},{"duration":0.3485017705078093,"durationTicks":1011,"midi":67,"name":"G4","ticks":310284,"time":107.03628851953124,"velocity":0.7007874015748031},{"duration":0.16339252148438277,"durationTicks":474,"midi":43,"name":"G2","ticks":310284,"time":107.03628851953124,"velocity":0.7007874015748031},{"duration":0.1744232402343755,"durationTicks":506,"midi":46,"name":"A#2","ticks":310789,"time":107.21036704980467,"velocity":0.6929133858267716},{"duration":0.0954846591796894,"durationTicks":277,"midi":63,"name":"D#4","ticks":311300,"time":107.38651383984374,"velocity":0.7322834645669292},{"duration":0.18648808886717916,"durationTicks":541,"midi":46,"name":"A#2","ticks":311300,"time":107.38651383984374,"velocity":0.7322834645669292},{"duration":0.08031742089843874,"durationTicks":233,"midi":62,"name":"D4","ticks":311593,"time":107.48751385839843,"velocity":0.6929133858267716},{"duration":0.1644266513671937,"durationTicks":477,"midi":60,"name":"C4","ticks":311842,"time":107.57334663867186,"velocity":0.6929133858267716},{"duration":0.1644266513671937,"durationTicks":477,"midi":46,"name":"A#2","ticks":311842,"time":107.57334663867186,"velocity":0.6929133858267716},{"duration":0.16339252148438277,"durationTicks":474,"midi":41,"name":"F2","ticks":312350,"time":107.74845929882811,"velocity":0.7007874015748031},{"duration":0.16511607128906292,"durationTicks":479,"midi":44,"name":"G#2","ticks":312855,"time":107.92253782910156,"velocity":0.6929133858267716},{"duration":0.17545737011720064,"durationTicks":509,"midi":46,"name":"A#2","ticks":313365,"time":108.09833990917967,"velocity":0.7165354330708661},{"duration":0.16339252148438277,"durationTicks":474,"midi":55,"name":"G3","ticks":313875,"time":108.2741419892578,"velocity":0.6929133858267716},{"duration":0.16339252148438277,"durationTicks":474,"midi":46,"name":"A#2","ticks":313875,"time":108.2741419892578,"velocity":0.6929133858267716},{"duration":0.16339252148436856,"durationTicks":474,"midi":63,"name":"D#4","ticks":314380,"time":108.44822051953125,"velocity":0.7007874015748031},{"duration":0.16339252148436856,"durationTicks":474,"midi":41,"name":"F2","ticks":314380,"time":108.44822051953125,"velocity":0.7007874015748031},{"duration":0.3522935800781255,"durationTicks":1022,"midi":60,"name":"C4","ticks":314885,"time":108.62229904980468,"velocity":0.6929133858267716},{"duration":0.16408194140625199,"durationTicks":476,"midi":44,"name":"G#2","ticks":314885,"time":108.62229904980468,"velocity":0.6929133858267716},{"duration":0.18648808886719337,"durationTicks":541,"midi":46,"name":"A#2","ticks":315396,"time":108.79844583984374,"velocity":0.7322834645669292},{"duration":0.1644266513671795,"durationTicks":477,"midi":58,"name":"A#3","ticks":315938,"time":108.98527863867187,"velocity":0.6929133858267716},{"duration":0.1644266513671795,"durationTicks":477,"midi":46,"name":"A#2","ticks":315938,"time":108.98527863867187,"velocity":0.6929133858267716},{"duration":0.3495359003906202,"durationTicks":1014,"midi":60,"name":"C4","ticks":316446,"time":109.16039129882812,"velocity":0.7007874015748031},{"duration":0.16339252148436856,"durationTicks":474,"midi":41,"name":"F2","ticks":316446,"time":109.16039129882812,"velocity":0.7007874015748031},{"duration":0.16511607128906292,"durationTicks":479,"midi":44,"name":"G#2","ticks":316951,"time":109.33446982910155,"velocity":0.6929133858267716},{"duration":0.16511607128906292,"durationTicks":479,"midi":58,"name":"A#3","ticks":317461,"time":109.51027190917968,"velocity":0.7165354330708661},{"duration":0.17545737011718643,"durationTicks":509,"midi":46,"name":"A#2","ticks":317461,"time":109.51027190917968,"velocity":0.7165354330708661},{"duration":0.34781235058594007,"durationTicks":1009,"midi":60,"name":"C4","ticks":317971,"time":109.6860739892578,"velocity":0.6929133858267716},{"duration":0.16339252148436856,"durationTicks":474,"midi":46,"name":"A#2","ticks":317971,"time":109.6860739892578,"velocity":0.6929133858267716},{"duration":0.16339252148436856,"durationTicks":474,"midi":41,"name":"F2","ticks":318476,"time":109.86015251953124,"velocity":0.7007874015748031},{"duration":0.16408194140625199,"durationTicks":476,"midi":58,"name":"A#3","ticks":318981,"time":110.03423104980467,"velocity":0.6929133858267716},{"duration":0.1744232402343755,"durationTicks":506,"midi":44,"name":"G#2","ticks":318981,"time":110.03423104980467,"velocity":0.6929133858267716},{"duration":0.17614679003905565,"durationTicks":511,"midi":65,"name":"F4","ticks":319492,"time":110.21037783984374,"velocity":0.7322834645669292},{"duration":0.18648808886717916,"durationTicks":541,"midi":44,"name":"G#2","ticks":319492,"time":110.21037783984374,"velocity":0.7322834645669292},{"duration":0.0689419921875043,"durationTicks":200,"midi":63,"name":"D#4","ticks":320034,"time":110.39721063867187,"velocity":0.6929133858267716},{"duration":0.1644266513671937,"durationTicks":477,"midi":44,"name":"G#2","ticks":320034,"time":110.39721063867187,"velocity":0.6929133858267716},{"duration":0.16339252148438277,"durationTicks":474,"midi":39,"name":"D#2","ticks":320542,"time":110.57232329882811,"velocity":0.6929133858267716},{"duration":0.16511607128906292,"durationTicks":479,"midi":42,"name":"F#2","ticks":321047,"time":110.74640182910156,"velocity":0.6929133858267716},{"duration":0.17545737011718643,"durationTicks":509,"midi":44,"name":"G#2","ticks":321557,"time":110.92220390917967,"velocity":0.7165354330708661},{"duration":0.16339252148438277,"durationTicks":474,"midi":65,"name":"F4","ticks":322067,"time":111.0980059892578,"velocity":0.6929133858267716},{"duration":0.16339252148438277,"durationTicks":474,"midi":44,"name":"G#2","ticks":322067,"time":111.0980059892578,"velocity":0.6929133858267716},{"duration":0.06790786230469337,"durationTicks":197,"midi":63,"name":"D#4","ticks":322572,"time":111.27208451953123,"velocity":0.7007874015748031},{"duration":0.16339252148438277,"durationTicks":474,"midi":39,"name":"D#2","ticks":322572,"time":111.27208451953123,"velocity":0.6929133858267716},{"duration":0.16408194140625199,"durationTicks":476,"midi":42,"name":"F#2","ticks":323077,"time":111.44616304980468,"velocity":0.6929133858267716},{"duration":0.17614679003906986,"durationTicks":511,"midi":60,"name":"C4","ticks":323588,"time":111.62230983984374,"velocity":0.7322834645669292},{"duration":0.18648808886719337,"durationTicks":541,"midi":44,"name":"G#2","ticks":323588,"time":111.62230983984374,"velocity":0.7322834645669292},{"duration":0.1644266513671937,"durationTicks":477,"midi":63,"name":"D#4","ticks":324130,"time":111.80914263867186,"velocity":0.6929133858267716},{"duration":0.1644266513671937,"durationTicks":477,"midi":44,"name":"G#2","ticks":324130,"time":111.80914263867186,"velocity":0.6929133858267716},{"duration":0.16339252148436856,"durationTicks":474,"midi":39,"name":"D#2","ticks":324638,"time":111.98425529882812,"velocity":0.6929133858267716},{"duration":0.16511607128906292,"durationTicks":479,"midi":60,"name":"C4","ticks":325143,"time":112.15833382910155,"velocity":0.6929133858267716},{"duration":0.16511607128906292,"durationTicks":479,"midi":42,"name":"F#2","ticks":325143,"time":112.15833382910155,"velocity":0.6929133858267716},{"duration":0.16511607128906292,"durationTicks":479,"midi":63,"name":"D#4","ticks":325653,"time":112.33413590917968,"velocity":0.7165354330708661},{"duration":0.17545737011718643,"durationTicks":509,"midi":44,"name":"G#2","ticks":325653,"time":112.33413590917968,"velocity":0.7165354330708661},{"duration":0.16339252148436856,"durationTicks":474,"midi":65,"name":"F4","ticks":326163,"time":112.5099379892578,"velocity":0.6929133858267716},{"duration":0.16339252148436856,"durationTicks":474,"midi":44,"name":"G#2","ticks":326163,"time":112.5099379892578,"velocity":0.6929133858267716},{"duration":0.16339252148436856,"durationTicks":474,"midi":66,"name":"F#4","ticks":326668,"time":112.68401651953124,"velocity":0.7007874015748031},{"duration":0.16339252148436856,"durationTicks":474,"midi":39,"name":"D#2","ticks":326668,"time":112.68401651953124,"velocity":0.6929133858267716},{"duration":0.16408194140625199,"durationTicks":476,"midi":67,"name":"G4","ticks":327173,"time":112.85809504980467,"velocity":0.6929133858267716},{"duration":0.16408194140625199,"durationTicks":476,"midi":42,"name":"F#2","ticks":327173,"time":112.85809504980467,"velocity":0.6929133858267716},{"duration":0.17614679003905565,"durationTicks":511,"midi":70,"name":"A#4","ticks":327684,"time":113.03424183984374,"velocity":0.7322834645669292},{"duration":0.18648808886717916,"durationTicks":541,"midi":43,"name":"G2","ticks":327684,"time":113.03424183984374,"velocity":0.7322834645669292},{"duration":0.1644266513671937,"durationTicks":477,"midi":67,"name":"G4","ticks":328226,"time":113.22107463867187,"velocity":0.6929133858267716},{"duration":0.1644266513671937,"durationTicks":477,"midi":43,"name":"G2","ticks":328226,"time":113.22107463867187,"velocity":0.6929133858267716},{"duration":0.06790786230469337,"durationTicks":197,"midi":58,"name":"A#3","ticks":328734,"time":113.39618729882811,"velocity":0.7007874015748031},{"duration":0.16339252148438277,"durationTicks":474,"midi":38,"name":"D2","ticks":328734,"time":113.39618729882811,"velocity":0.6929133858267716},{"duration":0.06963141210937351,"durationTicks":202,"midi":55,"name":"G3","ticks":329239,"time":113.57026582910156,"velocity":0.6929133858267716},{"duration":0.16511607128906292,"durationTicks":479,"midi":41,"name":"F2","ticks":329239,"time":113.57026582910156,"velocity":0.6929133858267716},{"duration":0.06963141210938772,"durationTicks":202,"midi":82,"name":"A#5","ticks":329749,"time":113.74606790917967,"velocity":0.7165354330708661},{"duration":0.17545737011720064,"durationTicks":509,"midi":43,"name":"G2","ticks":329749,"time":113.74606790917967,"velocity":0.7165354330708661},{"duration":0.06790786230469337,"durationTicks":197,"midi":79,"name":"G5","ticks":330259,"time":113.9218699892578,"velocity":0.6929133858267716},{"duration":0.16339252148438277,"durationTicks":474,"midi":43,"name":"G2","ticks":330259,"time":113.9218699892578,"velocity":0.6929133858267716},{"duration":0.16339252148436856,"durationTicks":474,"midi":70,"name":"A#4","ticks":330764,"time":114.09594851953125,"velocity":0.7007874015748031},{"duration":0.16339252148436856,"durationTicks":474,"midi":38,"name":"D2","ticks":330764,"time":114.09594851953125,"velocity":0.6929133858267716},{"duration":0.16408194140625199,"durationTicks":476,"midi":67,"name":"G4","ticks":331269,"time":114.27002704980468,"velocity":0.6929133858267716},{"duration":0.16408194140625199,"durationTicks":476,"midi":41,"name":"F2","ticks":331269,"time":114.27002704980468,"velocity":0.6929133858267716},{"duration":0.08066213085938045,"durationTicks":234,"midi":58,"name":"A#3","ticks":331780,"time":114.44617383984374,"velocity":0.7322834645669292},{"duration":0.18648808886719337,"durationTicks":541,"midi":43,"name":"G2","ticks":331780,"time":114.44617383984374,"velocity":0.7322834645669292},{"duration":0.06894199218749009,"durationTicks":200,"midi":55,"name":"G3","ticks":332322,"time":114.63300663867187,"velocity":0.6929133858267716},{"duration":0.1644266513671795,"durationTicks":477,"midi":43,"name":"G2","ticks":332322,"time":114.63300663867187,"velocity":0.6929133858267716},{"duration":0.06790786230469337,"durationTicks":197,"midi":82,"name":"A#5","ticks":332830,"time":114.80811929882812,"velocity":0.7007874015748031},{"duration":0.16339252148436856,"durationTicks":474,"midi":38,"name":"D2","ticks":332830,"time":114.80811929882812,"velocity":0.6929133858267716},{"duration":0.06963141210937351,"durationTicks":202,"midi":79,"name":"G5","ticks":333335,"time":114.98219782910155,"velocity":0.6929133858267716},{"duration":0.16511607128906292,"durationTicks":479,"midi":41,"name":"F2","ticks":333335,"time":114.98219782910155,"velocity":0.6929133858267716},{"duration":0.16511607128906292,"durationTicks":479,"midi":70,"name":"A#4","ticks":333845,"time":115.15799990917968,"velocity":0.7165354330708661},{"duration":0.17545737011718643,"durationTicks":509,"midi":43,"name":"G2","ticks":333845,"time":115.15799990917968,"velocity":0.7165354330708661},{"duration":0.16339252148436856,"durationTicks":474,"midi":67,"name":"G4","ticks":334355,"time":115.33380198925781,"velocity":0.6929133858267716},{"duration":0.16339252148436856,"durationTicks":474,"midi":43,"name":"G2","ticks":334355,"time":115.33380198925781,"velocity":0.6929133858267716},{"duration":0.16339252148436856,"durationTicks":474,"midi":58,"name":"A#3","ticks":334860,"time":115.50788051953124,"velocity":0.7007874015748031},{"duration":0.16339252148436856,"durationTicks":474,"midi":38,"name":"D2","ticks":334860,"time":115.50788051953124,"velocity":0.6929133858267716},{"duration":0.16408194140625199,"durationTicks":476,"midi":59,"name":"B3","ticks":335365,"time":115.68195904980468,"velocity":0.6929133858267716},{"duration":0.16408194140625199,"durationTicks":476,"midi":41,"name":"F2","ticks":335365,"time":115.68195904980468,"velocity":0.6929133858267716},{"duration":0.08066213085936624,"durationTicks":234,"midi":60,"name":"C4","ticks":335876,"time":115.85810583984374,"velocity":0.7322834645669292},{"duration":0.18648808886717916,"durationTicks":541,"midi":44,"name":"G#2","ticks":335876,"time":115.85810583984374,"velocity":0.7322834645669292},{"duration":0.0689419921875043,"durationTicks":200,"midi":60,"name":"C4","ticks":336418,"time":116.04493863867187,"velocity":0.6929133858267716},{"duration":0.1644266513671795,"durationTicks":477,"midi":44,"name":"G#2","ticks":336418,"time":116.04493863867187,"velocity":0.6929133858267716},{"duration":0.06790786230469337,"durationTicks":197,"midi":60,"name":"C4","ticks":336926,"time":116.22005129882811,"velocity":0.7007874015748031},{"duration":0.16339252148438277,"durationTicks":474,"midi":56,"name":"G#3","ticks":336926,"time":116.22005129882811,"velocity":0.7007874015748031},{"duration":0.06963141210937351,"durationTicks":202,"midi":62,"name":"D4","ticks":337431,"time":116.39412982910156,"velocity":0.6929133858267716},{"duration":0.17545737011718643,"durationTicks":509,"midi":46,"name":"A#2","ticks":337431,"time":116.39412982910156,"velocity":0.6929133858267716},{"duration":0.06963141210937351,"durationTicks":202,"midi":63,"name":"D#4","ticks":337941,"time":116.56993190917967,"velocity":0.7165354330708661},{"duration":0.17545737011718643,"durationTicks":509,"midi":46,"name":"A#2","ticks":337941,"time":116.56993190917967,"velocity":0.7165354330708661},{"duration":0.06790786230469337,"durationTicks":197,"midi":63,"name":"D#4","ticks":338451,"time":116.7457339892578,"velocity":0.6929133858267716},{"duration":0.16339252148438277,"durationTicks":474,"midi":46,"name":"A#2","ticks":338451,"time":116.7457339892578,"velocity":0.6929133858267716},{"duration":0.06790786230469337,"durationTicks":197,"midi":62,"name":"D4","ticks":338956,"time":116.91981251953123,"velocity":0.7007874015748031},{"duration":0.16339252148438277,"durationTicks":474,"midi":58,"name":"A#3","ticks":338956,"time":116.91981251953123,"velocity":0.7007874015748031},{"duration":0.06859728222656258,"durationTicks":199,"midi":60,"name":"C4","ticks":339461,"time":117.09389104980468,"velocity":0.6929133858267716},{"duration":0.1744232402343755,"durationTicks":506,"midi":48,"name":"C3","ticks":339461,"time":117.09389104980468,"velocity":0.6929133858267716},{"duration":0.17614679003906986,"durationTicks":511,"midi":58,"name":"A#3","ticks":339972,"time":117.27003783984374,"velocity":0.7322834645669292},{"duration":0.18648808886719337,"durationTicks":541,"midi":48,"name":"C3","ticks":339972,"time":117.27003783984374,"velocity":0.7322834645669292},{"duration":0.0689419921875043,"durationTicks":200,"midi":60,"name":"C4","ticks":340514,"time":117.45687063867186,"velocity":0.6929133858267716},{"duration":0.1644266513671937,"durationTicks":477,"midi":48,"name":"C3","ticks":340514,"time":117.45687063867186,"velocity":0.6929133858267716},{"duration":0.16339252148436856,"durationTicks":474,"midi":60,"name":"C4","ticks":341022,"time":117.63198329882812,"velocity":0.7007874015748031},{"duration":0.8741844609374994,"durationTicks":2536,"midi":55,"name":"G3","ticks":341527,"time":117.80606182910155,"velocity":0.6929133858267716},{"duration":0.17545737011718643,"durationTicks":509,"midi":48,"name":"C3","ticks":341527,"time":117.80606182910155,"velocity":0.6929133858267716},{"duration":0.17545737011718643,"durationTicks":509,"midi":48,"name":"C3","ticks":342037,"time":117.98186390917968,"velocity":0.7165354330708661},{"duration":0.16339252148436856,"durationTicks":474,"midi":48,"name":"C3","ticks":342547,"time":118.15766598925781,"velocity":0.6929133858267716},{"duration":0.16339252148436856,"durationTicks":474,"midi":60,"name":"C4","ticks":343052,"time":118.33174451953124,"velocity":0.7007874015748031},{"duration":0.16408194140625199,"durationTicks":476,"midi":58,"name":"A#3","ticks":343557,"time":118.50582304980468,"velocity":0.6929133858267716},{"duration":0.08066213085936624,"durationTicks":234,"midi":60,"name":"C4","ticks":344068,"time":118.68196983984375,"velocity":0.7322834645669292},{"duration":0.18648808886717916,"durationTicks":541,"midi":44,"name":"G#2","ticks":344068,"time":118.68196983984375,"velocity":0.7322834645669292},{"duration":0.0689419921875043,"durationTicks":200,"midi":60,"name":"C4","ticks":344610,"time":118.86880263867187,"velocity":0.6929133858267716},{"duration":0.1644266513671937,"durationTicks":477,"midi":44,"name":"G#2","ticks":344610,"time":118.86880263867187,"velocity":0.6929133858267716},{"duration":0.06790786230469337,"durationTicks":197,"midi":60,"name":"C4","ticks":345118,"time":119.04391529882811,"velocity":0.7007874015748031},{"duration":0.16339252148438277,"durationTicks":474,"midi":56,"name":"G#3","ticks":345118,"time":119.04391529882811,"velocity":0.7007874015748031},{"duration":0.06963141210937351,"durationTicks":202,"midi":62,"name":"D4","ticks":345623,"time":119.21799382910156,"velocity":0.6929133858267716},{"duration":0.17545737011718643,"durationTicks":509,"midi":46,"name":"A#2","ticks":345623,"time":119.21799382910156,"velocity":0.6929133858267716},{"duration":0.06963141210938772,"durationTicks":202,"midi":63,"name":"D#4","ticks":346133,"time":119.39379590917967,"velocity":0.7165354330708661},{"duration":0.17545737011718643,"durationTicks":509,"midi":46,"name":"A#2","ticks":346133,"time":119.39379590917967,"velocity":0.7165354330708661},{"duration":0.06790786230469337,"durationTicks":197,"midi":63,"name":"D#4","ticks":346643,"time":119.5695979892578,"velocity":0.6929133858267716},{"duration":0.16339252148438277,"durationTicks":474,"midi":46,"name":"A#2","ticks":346643,"time":119.5695979892578,"velocity":0.6929133858267716},{"duration":0.06790786230469337,"durationTicks":197,"midi":65,"name":"F4","ticks":347148,"time":119.74367651953123,"velocity":0.7007874015748031},{"duration":0.16339252148438277,"durationTicks":474,"midi":58,"name":"A#3","ticks":347148,"time":119.74367651953123,"velocity":0.7007874015748031},{"duration":0.06859728222656258,"durationTicks":199,"midi":63,"name":"D#4","ticks":347653,"time":119.91775504980468,"velocity":0.6929133858267716},{"duration":0.1744232402343755,"durationTicks":506,"midi":48,"name":"C3","ticks":347653,"time":119.91775504980468,"velocity":0.6929133858267716},{"duration":0.17614679003906986,"durationTicks":511,"midi":65,"name":"F4","ticks":348164,"time":120.09390183984374,"velocity":0.7322834645669292},{"duration":0.18648808886719337,"durationTicks":541,"midi":48,"name":"C3","ticks":348164,"time":120.09390183984374,"velocity":0.7322834645669292},{"duration":0.0689419921875043,"durationTicks":200,"midi":67,"name":"G4","ticks":348706,"time":120.28073463867186,"velocity":0.6929133858267716},{"duration":0.1644266513671937,"durationTicks":477,"midi":48,"name":"C3","ticks":348706,"time":120.28073463867186,"velocity":0.6929133858267716},{"duration":0.16339252148436856,"durationTicks":474,"midi":60,"name":"C4","ticks":349214,"time":120.45584729882812,"velocity":0.7007874015748031},{"duration":0.6994165107421964,"durationTicks":2029,"midi":67,"name":"G4","ticks":349719,"time":120.62992582910155,"velocity":0.6929133858267716},{"duration":0.17545737011718643,"durationTicks":509,"midi":48,"name":"C3","ticks":349719,"time":120.62992582910155,"velocity":0.6929133858267716},{"duration":0.17545737011718643,"durationTicks":509,"midi":48,"name":"C3","ticks":350229,"time":120.80572790917968,"velocity":0.7165354330708661},{"duration":0.16339252148436856,"durationTicks":474,"midi":48,"name":"C3","ticks":350739,"time":120.98152998925781,"velocity":0.6929133858267716},{"duration":0.16339252148436856,"durationTicks":474,"midi":60,"name":"C4","ticks":351244,"time":121.15560851953124,"velocity":0.7007874015748031},{"duration":0.07997271093749703,"durationTicks":232,"midi":63,"name":"D#4","ticks":351749,"time":121.32968704980468,"velocity":0.6929133858267716},{"duration":0.16408194140625199,"durationTicks":476,"midi":58,"name":"A#3","ticks":351749,"time":121.32968704980468,"velocity":0.6929133858267716},{"duration":0.08376452050782746,"durationTicks":243,"midi":62,"name":"D4","ticks":351997,"time":121.41517512011717,"velocity":0.6929133858267716},{"duration":0.08066213085936624,"durationTicks":234,"midi":60,"name":"C4","ticks":352260,"time":121.50583383984375,"velocity":0.7322834645669292},{"duration":0.18648808886717916,"durationTicks":541,"midi":44,"name":"G#2","ticks":352260,"time":121.50583383984375,"velocity":0.7322834645669292},{"duration":0.0689419921875043,"durationTicks":200,"midi":60,"name":"C4","ticks":352802,"time":121.69266663867187,"velocity":0.6929133858267716},{"duration":0.1644266513671795,"durationTicks":477,"midi":44,"name":"G#2","ticks":352802,"time":121.69266663867187,"velocity":0.6929133858267716},{"duration":0.06790786230469337,"durationTicks":197,"midi":60,"name":"C4","ticks":353310,"time":121.86777929882811,"velocity":0.7007874015748031},{"duration":0.16339252148438277,"durationTicks":474,"midi":56,"name":"G#3","ticks":353310,"time":121.86777929882811,"velocity":0.7007874015748031},{"duration":0.06963141210937351,"durationTicks":202,"midi":62,"name":"D4","ticks":353815,"time":122.04185782910156,"velocity":0.6929133858267716},{"duration":0.17545737011718643,"durationTicks":509,"midi":46,"name":"A#2","ticks":353815,"time":122.04185782910156,"velocity":0.6929133858267716},{"duration":0.06963141210937351,"durationTicks":202,"midi":63,"name":"D#4","ticks":354325,"time":122.21765990917967,"velocity":0.7165354330708661},{"duration":0.17545737011718643,"durationTicks":509,"midi":46,"name":"A#2","ticks":354325,"time":122.21765990917967,"velocity":0.7165354330708661},{"duration":0.06790786230469337,"durationTicks":197,"midi":63,"name":"D#4","ticks":354835,"time":122.3934619892578,"velocity":0.6929133858267716},{"duration":0.16339252148436856,"durationTicks":474,"midi":46,"name":"A#2","ticks":354835,"time":122.3934619892578,"velocity":0.6929133858267716},{"duration":0.06790786230469337,"durationTicks":197,"midi":62,"name":"D4","ticks":355340,"time":122.56754051953124,"velocity":0.7007874015748031},{"duration":0.16339252148438277,"durationTicks":474,"midi":58,"name":"A#3","ticks":355340,"time":122.56754051953124,"velocity":0.7007874015748031},{"duration":0.06859728222656258,"durationTicks":199,"midi":60,"name":"C4","ticks":355845,"time":122.74161904980468,"velocity":0.6929133858267716},{"duration":0.1744232402343755,"durationTicks":506,"midi":48,"name":"C3","ticks":355845,"time":122.74161904980468,"velocity":0.6929133858267716},{"duration":0.17614679003905565,"durationTicks":511,"midi":58,"name":"A#3","ticks":356356,"time":122.91776583984374,"velocity":0.7322834645669292},{"duration":0.18648808886719337,"durationTicks":541,"midi":48,"name":"C3","ticks":356356,"time":122.91776583984374,"velocity":0.7322834645669292},{"duration":0.0689419921875043,"durationTicks":200,"midi":60,"name":"C4","ticks":356898,"time":123.10459863867186,"velocity":0.6929133858267716},{"duration":0.1644266513671937,"durationTicks":477,"midi":48,"name":"C3","ticks":356898,"time":123.10459863867186,"velocity":0.6929133858267716},{"duration":0.16339252148436856,"durationTicks":474,"midi":60,"name":"C4","ticks":357406,"time":123.27971129882812,"velocity":0.7007874015748031},{"duration":0.6994165107421821,"durationTicks":2029,"midi":55,"name":"G3","ticks":357911,"time":123.45378982910155,"velocity":0.6929133858267716},{"duration":0.17545737011718643,"durationTicks":509,"midi":48,"name":"C3","ticks":357911,"time":123.45378982910155,"velocity":0.6929133858267716},{"duration":0.17545737011718643,"durationTicks":509,"midi":48,"name":"C3","ticks":358421,"time":123.62959190917968,"velocity":0.7165354330708661},{"duration":0.16339252148438277,"durationTicks":474,"midi":48,"name":"C3","ticks":358931,"time":123.8053939892578,"velocity":0.6929133858267716},{"duration":0.16339252148436856,"durationTicks":474,"midi":60,"name":"C4","ticks":359436,"time":123.97947251953124,"velocity":0.7007874015748031},{"duration":0.07997271093749703,"durationTicks":232,"midi":55,"name":"G3","ticks":359941,"time":124.15355104980468,"velocity":0.6929133858267716},{"duration":0.16408194140625199,"durationTicks":476,"midi":58,"name":"A#3","ticks":359941,"time":124.15355104980468,"velocity":0.6929133858267716},{"duration":0.08376452050779903,"durationTicks":243,"midi":58,"name":"A#3","ticks":360189,"time":124.23903912011718,"velocity":0.6929133858267716},{"duration":0.08066213085938045,"durationTicks":234,"midi":60,"name":"C4","ticks":360452,"time":124.32969783984373,"velocity":0.7322834645669292},{"duration":0.18648808886719337,"durationTicks":541,"midi":44,"name":"G#2","ticks":360452,"time":124.32969783984373,"velocity":0.7322834645669292},{"duration":0.06894199218749009,"durationTicks":200,"midi":60,"name":"C4","ticks":360994,"time":124.51653063867187,"velocity":0.6929133858267716},{"duration":0.1644266513671937,"durationTicks":477,"midi":44,"name":"G#2","ticks":360994,"time":124.51653063867187,"velocity":0.6929133858267716},{"duration":0.06790786230469337,"durationTicks":197,"midi":60,"name":"C4","ticks":361502,"time":124.69164329882811,"velocity":0.7007874015748031},{"duration":0.16339252148438277,"durationTicks":474,"midi":56,"name":"G#3","ticks":361502,"time":124.69164329882811,"velocity":0.7007874015748031},{"duration":0.06963141210937351,"durationTicks":202,"midi":62,"name":"D4","ticks":362007,"time":124.86572182910155,"velocity":0.6929133858267716},{"duration":0.17545737011718643,"durationTicks":509,"midi":46,"name":"A#2","ticks":362007,"time":124.86572182910155,"velocity":0.6929133858267716},{"duration":0.06963141210938772,"durationTicks":202,"midi":60,"name":"C4","ticks":362517,"time":125.04152390917967,"velocity":0.7165354330708661},{"duration":0.17545737011718643,"durationTicks":509,"midi":46,"name":"A#2","ticks":362517,"time":125.04152390917967,"velocity":0.7165354330708661},{"duration":0.06790786230469337,"durationTicks":197,"midi":60,"name":"C4","ticks":363027,"time":125.2173259892578,"velocity":0.6929133858267716},{"duration":0.16339252148438277,"durationTicks":474,"midi":46,"name":"A#2","ticks":363027,"time":125.2173259892578,"velocity":0.6929133858267716},{"duration":0.06790786230469337,"durationTicks":197,"midi":58,"name":"A#3","ticks":363532,"time":125.39140451953124,"velocity":0.7007874015748031},{"duration":0.16339252148438277,"durationTicks":474,"midi":58,"name":"A#3","ticks":363532,"time":125.39140451953124,"velocity":0.7007874015748031},{"duration":0.06859728222656258,"durationTicks":199,"midi":55,"name":"G3","ticks":364037,"time":125.56548304980467,"velocity":0.6929133858267716},{"duration":0.1744232402343755,"durationTicks":506,"midi":48,"name":"C3","ticks":364037,"time":125.56548304980467,"velocity":0.6929133858267716},{"duration":0.18648808886719337,"durationTicks":541,"midi":48,"name":"C3","ticks":364548,"time":125.74162983984374,"velocity":0.6692913385826772},{"duration":0.18648808886719337,"durationTicks":541,"midi":53,"name":"F3","ticks":364548,"time":125.74162983984374,"velocity":0.7795275590551181},{"duration":0.0689419921875043,"durationTicks":200,"midi":48,"name":"C3","ticks":365090,"time":125.92846263867186,"velocity":0.6299212598425197},{"duration":0.0689419921875043,"durationTicks":200,"midi":55,"name":"G3","ticks":365090,"time":125.92846263867186,"velocity":0.7401574803149606},{"duration":0.16339252148436856,"durationTicks":474,"midi":60,"name":"C4","ticks":365598,"time":126.10357529882812,"velocity":0.7007874015748031},{"duration":0.08341981054687153,"durationTicks":242,"midi":51,"name":"D#3","ticks":365598,"time":126.10357529882812,"velocity":0.7007874015748031},{"duration":0.07962800097656952,"durationTicks":231,"midi":50,"name":"D3","ticks":365856,"time":126.19251046874999,"velocity":0.6929133858267716},{"duration":0.17545737011718643,"durationTicks":509,"midi":48,"name":"C3","ticks":366103,"time":126.27765382910155,"velocity":0.6929133858267716},{"duration":0.17545737011718643,"durationTicks":509,"midi":48,"name":"C3","ticks":366613,"time":126.45345590917968,"velocity":0.7165354330708661},{"duration":0.16339252148436856,"durationTicks":474,"midi":48,"name":"C3","ticks":367123,"time":126.62925798925781,"velocity":0.6929133858267716},{"duration":0.16339252148436856,"durationTicks":474,"midi":60,"name":"C4","ticks":367628,"time":126.80333651953124,"velocity":0.7007874015748031},{"duration":0.16408194140625199,"durationTicks":476,"midi":58,"name":"A#3","ticks":368133,"time":126.97741504980468,"velocity":0.6929133858267716},{"duration":0.5356792792968719,"durationTicks":1554,"midi":62,"name":"D4","ticks":368644,"time":127.15356183984375,"velocity":0.7322834645669292},{"duration":0.18648808886717916,"durationTicks":541,"midi":46,"name":"A#2","ticks":368644,"time":127.15356183984375,"velocity":0.7322834645669292},{"duration":0.1644266513671795,"durationTicks":477,"midi":46,"name":"A#2","ticks":369186,"time":127.34039463867187,"velocity":0.6929133858267716},{"duration":0.16339252148438277,"durationTicks":474,"midi":58,"name":"A#3","ticks":369694,"time":127.51550729882811,"velocity":0.7007874015748031},{"duration":0.07997271093749703,"durationTicks":232,"midi":60,"name":"C4","ticks":370199,"time":127.68958582910156,"velocity":0.6929133858267716},{"duration":0.17545737011718643,"durationTicks":509,"midi":46,"name":"A#2","ticks":370199,"time":127.68958582910156,"velocity":0.6929133858267716},{"duration":0.08479865039062418,"durationTicks":246,"midi":62,"name":"D4","ticks":370447,"time":127.77507389941405,"velocity":0.6929133858267716},{"duration":0.3495359003906344,"durationTicks":1014,"midi":58,"name":"A#3","ticks":370709,"time":127.86538790917967,"velocity":0.7165354330708661},{"duration":0.17545737011718643,"durationTicks":509,"midi":46,"name":"A#2","ticks":370709,"time":127.86538790917967,"velocity":0.7165354330708661},{"duration":0.16339252148435435,"durationTicks":474,"midi":46,"name":"A#2","ticks":371219,"time":128.04118998925782,"velocity":0.6929133858267716},{"duration":0.2592218906250139,"durationTicks":752,"midi":69,"name":"A4","ticks":371724,"time":128.21526851953124,"velocity":0.7007874015748031},{"duration":0.16339252148438277,"durationTicks":474,"midi":58,"name":"A#3","ticks":371724,"time":128.21526851953124,"velocity":0.7007874015748031},{"duration":0.16408194140623777,"durationTicks":476,"midi":46,"name":"A#2","ticks":372229,"time":128.38934704980468,"velocity":0.6929133858267716},{"duration":0.08376452050782746,"durationTicks":243,"midi":65,"name":"F4","ticks":372477,"time":128.47483512011718,"velocity":0.6929133858267716},{"duration":0.2723208691406285,"durationTicks":790,"midi":63,"name":"D#4","ticks":372740,"time":128.56549383984373,"velocity":0.7322834645669292},{"duration":0.18648808886720758,"durationTicks":541,"midi":44,"name":"G#2","ticks":372740,"time":128.56549383984373,"velocity":0.7322834645669292},{"duration":0.1644266513671937,"durationTicks":477,"midi":44,"name":"G#2","ticks":373282,"time":128.75232663867186,"velocity":0.6929133858267716},{"duration":0.08376452050779903,"durationTicks":243,"midi":65,"name":"F4","ticks":373531,"time":128.8381594189453,"velocity":0.6929133858267716},{"duration":0.6956247011718801,"durationTicks":2018,"midi":67,"name":"G4","ticks":373790,"time":128.92743929882812,"velocity":0.7007874015748031},{"duration":0.16339252148438277,"durationTicks":474,"midi":56,"name":"G#3","ticks":373790,"time":128.92743929882812,"velocity":0.7007874015748031},{"duration":0.175457370117158,"durationTicks":509,"midi":44,"name":"G#2","ticks":374295,"time":129.10151782910157,"velocity":0.6929133858267716},{"duration":0.17545737011718643,"durationTicks":509,"midi":44,"name":"G#2","ticks":374805,"time":129.27731990917968,"velocity":0.7165354330708661},{"duration":0.16339252148438277,"durationTicks":474,"midi":44,"name":"G#2","ticks":375315,"time":129.4531219892578,"velocity":0.6929133858267716},{"duration":0.16339252148438277,"durationTicks":474,"midi":68,"name":"G#4","ticks":375820,"time":129.62720051953124,"velocity":0.7007874015748031},{"duration":0.16339252148438277,"durationTicks":474,"midi":56,"name":"G#3","ticks":375820,"time":129.62720051953124,"velocity":0.7007874015748031},{"duration":0.07997271093748282,"durationTicks":232,"midi":60,"name":"C4","ticks":376325,"time":129.8012790498047,"velocity":0.6929133858267716},{"duration":0.16408194140623777,"durationTicks":476,"midi":44,"name":"G#2","ticks":376325,"time":129.8012790498047,"velocity":0.6929133858267716},{"duration":0.08376452050779903,"durationTicks":243,"midi":61,"name":"C#4","ticks":376573,"time":129.88676712011718,"velocity":0.6929133858267716},{"duration":0.5356792792968861,"durationTicks":1554,"midi":62,"name":"D4","ticks":376836,"time":129.97742583984373,"velocity":0.7322834645669292},{"duration":0.18648808886720758,"durationTicks":541,"midi":46,"name":"A#2","ticks":376836,"time":129.97742583984373,"velocity":0.7322834645669292},{"duration":0.1644266513671937,"durationTicks":477,"midi":46,"name":"A#2","ticks":377378,"time":130.16425863867187,"velocity":0.6929133858267716},{"duration":0.16339252148435435,"durationTicks":474,"midi":58,"name":"A#3","ticks":377886,"time":130.33937129882813,"velocity":0.7007874015748031},{"duration":0.07997271093751124,"durationTicks":232,"midi":60,"name":"C4","ticks":378391,"time":130.51344982910155,"velocity":0.6929133858267716},{"duration":0.17545737011718643,"durationTicks":509,"midi":46,"name":"A#2","ticks":378391,"time":130.51344982910155,"velocity":0.6929133858267716},{"duration":0.08479865039060996,"durationTicks":246,"midi":62,"name":"D4","ticks":378639,"time":130.59893789941407,"velocity":0.6929133858267716},{"duration":0.2609454404296798,"durationTicks":757,"midi":58,"name":"A#3","ticks":378901,"time":130.6892519091797,"velocity":0.7165354330708661},{"duration":0.17545737011718643,"durationTicks":509,"midi":46,"name":"A#2","ticks":378901,"time":130.6892519091797,"velocity":0.7165354330708661},{"duration":0.16339252148438277,"durationTicks":474,"midi":46,"name":"A#2","ticks":379411,"time":130.8650539892578,"velocity":0.6929133858267716},{"duration":0.2623242802734467,"durationTicks":761,"midi":69,"name":"A4","ticks":379659,"time":130.9505420595703,"velocity":0.6929133858267716},{"duration":0.16339252148435435,"durationTicks":474,"midi":58,"name":"A#3","ticks":379916,"time":131.03913251953125,"velocity":0.7007874015748031},{"duration":0.1640819414062662,"durationTicks":476,"midi":65,"name":"F4","ticks":380421,"time":131.21321104980467,"velocity":0.6929133858267716},{"duration":0.1640819414062662,"durationTicks":476,"midi":46,"name":"A#2","ticks":380421,"time":131.21321104980467,"velocity":0.6929133858267716},{"duration":0.9735971718749852,"durationTicks":2822,"midi":72,"name":"C5","ticks":380932,"time":131.38935783984374,"velocity":0.7322834645669292},{"duration":0.18648808886717916,"durationTicks":541,"midi":48,"name":"C3","ticks":380932,"time":131.38935783984374,"velocity":0.7322834645669292},{"duration":0.16442665136716528,"durationTicks":477,"midi":48,"name":"C3","ticks":381474,"time":131.57619063867187,"velocity":0.6929133858267716},{"duration":0.16339252148438277,"durationTicks":474,"midi":60,"name":"C4","ticks":381982,"time":131.7513032988281,"velocity":0.7007874015748031},{"duration":0.17545737011718643,"durationTicks":509,"midi":48,"name":"C3","ticks":382487,"time":131.92538182910155,"velocity":0.6929133858267716},{"duration":0.17576820019530714,"durationTicks":509,"midi":48,"name":"C3","ticks":382997,"time":132.10118390917967,"velocity":0.7165354330708661},{"duration":0.1646127011718761,"durationTicks":474,"midi":48,"name":"C3","ticks":383507,"time":132.27729885156248,"velocity":0.6929133858267716},{"duration":0.26548667382814983,"durationTicks":761,"midi":63,"name":"D#4","ticks":383755,"time":132.3633028378906,"velocity":0.6929133858267716},{"duration":0.16558286718750992,"durationTicks":474,"midi":60,"name":"C4","ticks":384012,"time":132.45270582421873,"velocity":0.7007874015748031},{"duration":0.16726816308593584,"durationTicks":476,"midi":67,"name":"G4","ticks":384517,"time":132.6291403896484,"velocity":0.6929133858267716},{"duration":0.16726816308593584,"durationTicks":476,"midi":48,"name":"C3","ticks":384517,"time":132.6291403896484,"velocity":0.6929133858267716},{"duration":0.5356792792968861,"durationTicks":1554,"midi":72,"name":"C5","ticks":385028,"time":132.8086990898437,"velocity":0.7322834645669292},{"duration":0.18648808886720758,"durationTicks":541,"midi":41,"name":"F2","ticks":385028,"time":132.8086990898437,"velocity":0.7322834645669292},{"duration":0.1644266513671937,"durationTicks":477,"midi":41,"name":"F2","ticks":385570,"time":132.99553188867185,"velocity":0.6929133858267716},{"duration":0.16339252148435435,"durationTicks":474,"midi":53,"name":"F3","ticks":386078,"time":133.1706445488281,"velocity":0.7007874015748031},{"duration":0.07997271093751124,"durationTicks":232,"midi":70,"name":"A#4","ticks":386583,"time":133.34472307910153,"velocity":0.6929133858267716},{"duration":0.17545737011718643,"durationTicks":509,"midi":46,"name":"A#2","ticks":386583,"time":133.34472307910153,"velocity":0.6929133858267716},{"duration":0.08479865039060996,"durationTicks":246,"midi":68,"name":"G#4","ticks":386831,"time":133.43021114941405,"velocity":0.6929133858267716},{"duration":0.262573870117194,"durationTicks":757,"midi":67,"name":"G4","ticks":387093,"time":133.52052515917964,"velocity":0.7165354330708661},{"duration":0.17605120214844305,"durationTicks":509,"midi":46,"name":"A#2","ticks":387093,"time":133.52052515917964,"velocity":0.7165354330708661},{"duration":0.16582316015626475,"durationTicks":474,"midi":46,"name":"A#2","ticks":387603,"time":133.69692515917964,"velocity":0.6929133858267716},{"duration":0.268151604492175,"durationTicks":761,"midi":65,"name":"F4","ticks":387851,"time":133.78344990722653,"velocity":0.6929133858267716},{"duration":0.1673307734374987,"durationTicks":474,"midi":58,"name":"A#3","ticks":388108,"time":133.87363888281246,"velocity":0.7007874015748031},{"duration":0.17006484667970767,"durationTicks":476,"midi":67,"name":"G4","ticks":388613,"time":134.0519577646484,"velocity":0.6929133858267716},{"duration":0.17006484667970767,"durationTicks":476,"midi":46,"name":"A#2","ticks":388613,"time":134.0519577646484,"velocity":0.6929133858267716},{"duration":0.5391351738281287,"durationTicks":1554,"midi":70,"name":"A#4","ticks":389124,"time":134.23456744531248,"velocity":0.7322834645669292},{"duration":0.1899439833984502,"durationTicks":541,"midi":39,"name":"D#2","ticks":389124,"time":134.23456744531248,"velocity":0.7244094488188977},{"duration":0.1644266513671937,"durationTicks":477,"midi":39,"name":"D#2","ticks":389666,"time":134.42485613867186,"velocity":0.6850393700787402},{"duration":0.16339252148435435,"durationTicks":474,"midi":51,"name":"D#3","ticks":390174,"time":134.59996879882812,"velocity":0.7007874015748031},{"duration":0.07997271093751124,"durationTicks":232,"midi":68,"name":"G#4","ticks":390679,"time":134.77404732910153,"velocity":0.6929133858267716},{"duration":0.16511607128907713,"durationTicks":479,"midi":46,"name":"A#2","ticks":390679,"time":134.77404732910153,"velocity":0.6929133858267716},{"duration":0.08479865039060996,"durationTicks":246,"midi":67,"name":"G4","ticks":390927,"time":134.85953539941406,"velocity":0.6929133858267716},{"duration":0.2609454404296798,"durationTicks":757,"midi":65,"name":"F4","ticks":391189,"time":134.94984940917968,"velocity":0.7165354330708661},{"duration":0.17545737011718643,"durationTicks":509,"midi":44,"name":"G#2","ticks":391189,"time":134.94984940917968,"velocity":0.7165354330708661},{"duration":0.16339252148438277,"durationTicks":474,"midi":44,"name":"G#2","ticks":391699,"time":135.1256514892578,"velocity":0.6929133858267716},{"duration":0.2623242802734467,"durationTicks":761,"midi":63,"name":"D#4","ticks":391947,"time":135.21113955957028,"velocity":0.6929133858267716},{"duration":0.16339252148435435,"durationTicks":474,"midi":56,"name":"G#3","ticks":392204,"time":135.29973001953124,"velocity":0.7007874015748031},{"duration":0.1640819414062662,"durationTicks":476,"midi":65,"name":"F4","ticks":392709,"time":135.47380854980466,"velocity":0.6929133858267716},{"duration":0.1640819414062662,"durationTicks":476,"midi":44,"name":"G#2","ticks":392709,"time":135.47380854980466,"velocity":0.6929133858267716},{"duration":0.2723208691406285,"durationTicks":790,"midi":62,"name":"D4","ticks":393220,"time":135.64995533984373,"velocity":0.7322834645669292},{"duration":0.18648808886717916,"durationTicks":541,"midi":43,"name":"G2","ticks":393220,"time":135.64995533984373,"velocity":0.7322834645669292},{"duration":0.1644266513671937,"durationTicks":477,"midi":43,"name":"G2","ticks":393762,"time":135.83678813867186,"velocity":0.6929133858267716},{"duration":0.0889351699218821,"durationTicks":258,"midi":67,"name":"G4","ticks":394011,"time":135.92262091894528,"velocity":0.6929133858267716},{"duration":1.0482629912109473,"durationTicks":3041,"midi":67,"name":"G4","ticks":394270,"time":136.0119007988281,"velocity":0.6929133858267716},{"duration":0.16339252148438277,"durationTicks":474,"midi":55,"name":"G3","ticks":394270,"time":136.0119007988281,"velocity":0.7007874015748031},{"duration":0.17545737011718643,"durationTicks":509,"midi":43,"name":"G2","ticks":394775,"time":136.18597932910154,"velocity":0.6929133858267716},{"duration":0.17545737011718643,"durationTicks":509,"midi":43,"name":"G2","ticks":395285,"time":136.36178140917966,"velocity":0.7165354330708661},{"duration":0.16339252148438277,"durationTicks":474,"midi":43,"name":"G2","ticks":395795,"time":136.5375834892578,"velocity":0.6929133858267716},{"duration":0.16339252148438277,"durationTicks":474,"midi":55,"name":"G3","ticks":396300,"time":136.71166201953122,"velocity":0.7007874015748031},{"duration":0.1640819414062662,"durationTicks":476,"midi":43,"name":"G2","ticks":396805,"time":136.88574054980467,"velocity":0.6929133858267716},{"duration":0.18648808886717916,"durationTicks":541,"midi":67,"name":"G4","ticks":397316,"time":137.06188733984374,"velocity":0.7716535433070866},{"duration":0.18648808886717916,"durationTicks":541,"midi":70,"name":"A#4","ticks":397316,"time":137.06188733984374,"velocity":0.8818897637795275},{"duration":0.17614679003906986,"durationTicks":511,"midi":46,"name":"A#2","ticks":397316,"time":137.06188733984374,"velocity":0.7716535433070866},{"duration":0.17614679003906986,"durationTicks":511,"midi":55,"name":"G3","ticks":397316,"time":137.06188733984374,"velocity":0.7716535433070866},{"duration":0.18648808886717916,"durationTicks":541,"midi":58,"name":"A#3","ticks":397316,"time":137.06188733984374,"velocity":0.8818897637795275},{"duration":0.1644266513671937,"durationTicks":477,"midi":62,"name":"D4","ticks":397858,"time":137.24872013867184,"velocity":0.7322834645669292},{"duration":0.17476795019533142,"durationTicks":507,"midi":67,"name":"G4","ticks":397858,"time":137.24872013867184,"velocity":0.84251968503937},{"duration":0.1644266513671937,"durationTicks":477,"midi":43,"name":"G2","ticks":397858,"time":137.24872013867184,"velocity":0.7322834645669292},{"duration":0.1644266513671937,"durationTicks":477,"midi":50,"name":"D3","ticks":397858,"time":137.24872013867184,"velocity":0.7322834645669292},{"duration":0.17476795019533142,"durationTicks":507,"midi":55,"name":"G3","ticks":397858,"time":137.24872013867184,"velocity":0.84251968503937},{"duration":0.17545737011718643,"durationTicks":509,"midi":67,"name":"G4","ticks":398871,"time":137.59791132910155,"velocity":0.7322834645669292},{"duration":0.17545737011718643,"durationTicks":509,"midi":70,"name":"A#4","ticks":398871,"time":137.59791132910155,"velocity":0.84251968503937},{"duration":0.1651160712890487,"durationTicks":479,"midi":46,"name":"A#2","ticks":398871,"time":137.59791132910155,"velocity":0.7322834645669292},{"duration":0.1651160712890487,"durationTicks":479,"midi":55,"name":"G3","ticks":398871,"time":137.59791132910155,"velocity":0.7322834645669292},{"duration":0.17545737011718643,"durationTicks":509,"midi":58,"name":"A#3","ticks":398871,"time":137.59791132910155,"velocity":0.84251968503937},{"duration":0.16561193457033596,"durationTicks":479,"midi":62,"name":"D4","ticks":399381,"time":137.77371340917966,"velocity":0.7559055118110236},{"duration":0.17605120214844305,"durationTicks":509,"midi":67,"name":"G4","ticks":399381,"time":137.77371340917966,"velocity":0.8661417322834646},{"duration":0.16561193457033596,"durationTicks":479,"midi":43,"name":"G2","ticks":399381,"time":137.77371340917966,"velocity":0.7559055118110236},{"duration":0.16561193457033596,"durationTicks":479,"midi":50,"name":"D3","ticks":399381,"time":137.77371340917966,"velocity":0.7559055118110236},{"duration":0.17605120214844305,"durationTicks":509,"midi":55,"name":"G3","ticks":399381,"time":137.77371340917966,"velocity":0.8661417322834646},{"duration":0.17796262890624348,"durationTicks":504,"midi":67,"name":"G4","ticks":400396,"time":138.12682713281248,"velocity":0.7401574803149606},{"duration":0.17796262890624348,"durationTicks":504,"midi":70,"name":"A#4","ticks":400396,"time":138.12682713281248,"velocity":0.8503937007874016},{"duration":0.1673307734374987,"durationTicks":474,"midi":46,"name":"A#2","ticks":400396,"time":138.12682713281248,"velocity":0.7401574803149606},{"duration":0.1673307734374987,"durationTicks":474,"midi":55,"name":"G3","ticks":400396,"time":138.12682713281248,"velocity":0.7401574803149606},{"duration":0.17796262890624348,"durationTicks":504,"midi":58,"name":"A#3","ticks":400396,"time":138.12682713281248,"velocity":0.8503937007874016},{"duration":0.17006484667970767,"durationTicks":476,"midi":62,"name":"D4","ticks":400901,"time":138.30514601464841,"velocity":0.7322834645669292},{"duration":0.17006484667970767,"durationTicks":476,"midi":67,"name":"G4","ticks":400901,"time":138.30514601464841,"velocity":0.84251968503937},{"duration":0.17006484667970767,"durationTicks":476,"midi":43,"name":"G2","ticks":400901,"time":138.30514601464841,"velocity":0.7322834645669292},{"duration":0.17006484667970767,"durationTicks":476,"midi":50,"name":"D3","ticks":400901,"time":138.30514601464841,"velocity":0.7322834645669292},{"duration":0.18081756152346884,"durationTicks":506,"midi":55,"name":"G3","ticks":400901,"time":138.30514601464841,"velocity":0.84251968503937},{"duration":0.1899439833984502,"durationTicks":541,"midi":48,"name":"C3","ticks":401412,"time":138.4877556953125,"velocity":0.6299212598425197},{"duration":0.1644266513671937,"durationTicks":477,"midi":48,"name":"C3","ticks":401954,"time":138.67804438867188,"velocity":0.5905511811023622},{"duration":0.16339252148435435,"durationTicks":474,"midi":43,"name":"G2","ticks":402462,"time":138.85315704882814,"velocity":0.5984251968503937},{"duration":0.16511607128907713,"durationTicks":479,"midi":46,"name":"A#2","ticks":402967,"time":139.02723557910156,"velocity":0.5905511811023622},{"duration":0.17545737011718643,"durationTicks":509,"midi":48,"name":"C3","ticks":403477,"time":139.2030376591797,"velocity":0.6141732283464567},{"duration":0.16339252148438277,"durationTicks":474,"midi":48,"name":"C3","ticks":403987,"time":139.3788397392578,"velocity":0.5905511811023622},{"duration":0.16339252148435435,"durationTicks":474,"midi":43,"name":"G2","ticks":404492,"time":139.55291826953126,"velocity":0.5984251968503937},{"duration":0.1640819414062662,"durationTicks":476,"midi":46,"name":"A#2","ticks":404997,"time":139.72699679980468,"velocity":0.5905511811023622},{"duration":0.18648808886717916,"durationTicks":541,"midi":48,"name":"C3","ticks":405508,"time":139.90314358984375,"velocity":0.6299212598425197},{"duration":0.1644266513671937,"durationTicks":477,"midi":48,"name":"C3","ticks":406050,"time":140.0899763886719,"velocity":0.5905511811023622},{"duration":0.16339252148438277,"durationTicks":474,"midi":43,"name":"G2","ticks":406558,"time":140.26508904882812,"velocity":0.5984251968503937},{"duration":0.16511607128907713,"durationTicks":479,"midi":46,"name":"A#2","ticks":407063,"time":140.43916757910156,"velocity":0.5905511811023622},{"duration":0.11892493652345593,"durationTicks":345,"midi":48,"name":"C3","ticks":407573,"time":140.61496965917968,"velocity":0.5196850393700787},{"duration":0.11306486718751785,"durationTicks":328,"midi":48,"name":"C3","ticks":407919,"time":140.73423930566406,"velocity":0.49606299212598426},{"duration":0.0461911347656212,"durationTicks":134,"midi":48,"name":"C3","ticks":408248,"time":140.8476488828125,"velocity":0.49606299212598426},{"duration":0.16339252148438277,"durationTicks":474,"midi":43,"name":"G2","ticks":408588,"time":140.96485026953124,"velocity":0.5984251968503937},{"duration":0.1640819414062662,"durationTicks":476,"midi":46,"name":"A#2","ticks":409093,"time":141.1389287998047,"velocity":0.5905511811023622},{"duration":0.18648808886717916,"durationTicks":541,"midi":48,"name":"C3","ticks":409604,"time":141.31507558984376,"velocity":0.6299212598425197},{"duration":0.1644266513671937,"durationTicks":477,"midi":48,"name":"C3","ticks":410146,"time":141.50190838867186,"velocity":0.5905511811023622},{"duration":0.16339252148438277,"durationTicks":474,"midi":43,"name":"G2","ticks":410654,"time":141.67702104882812,"velocity":0.5984251968503937},{"duration":0.1651160712890487,"durationTicks":479,"midi":46,"name":"A#2","ticks":411159,"time":141.85109957910157,"velocity":0.5905511811023622},{"duration":0.17545737011718643,"durationTicks":509,"midi":48,"name":"C3","ticks":411669,"time":142.02690165917969,"velocity":0.6141732283464567},{"duration":0.16339252148435435,"durationTicks":474,"midi":48,"name":"C3","ticks":412179,"time":142.20270373925783,"velocity":0.5905511811023622},{"duration":0.16339252148438277,"durationTicks":474,"midi":43,"name":"G2","ticks":412684,"time":142.37678226953125,"velocity":0.5984251968503937},{"duration":0.16408194140623777,"durationTicks":476,"midi":46,"name":"A#2","ticks":413189,"time":142.5508607998047,"velocity":0.5905511811023622},{"duration":0.18648808886717916,"durationTicks":541,"midi":48,"name":"C3","ticks":413700,"time":142.72700758984377,"velocity":0.6299212598425197},{"duration":0.1644266513671937,"durationTicks":477,"midi":48,"name":"C3","ticks":414242,"time":142.91384038867187,"velocity":0.5905511811023622},{"duration":0.16339252148438277,"durationTicks":474,"midi":43,"name":"G2","ticks":414750,"time":143.08895304882813,"velocity":0.5984251968503937},{"duration":0.1651160712890487,"durationTicks":479,"midi":46,"name":"A#2","ticks":415255,"time":143.26303157910158,"velocity":0.5905511811023622},{"duration":0.1189249365234275,"durationTicks":345,"midi":48,"name":"C3","ticks":415765,"time":143.4388336591797,"velocity":0.5196850393700787},{"duration":0.11306486718748943,"durationTicks":328,"midi":48,"name":"C3","ticks":416111,"time":143.55810330566408,"velocity":0.49606299212598426},{"duration":0.0461911347656212,"durationTicks":134,"midi":48,"name":"C3","ticks":416440,"time":143.6715128828125,"velocity":0.49606299212598426},{"duration":0.16339252148438277,"durationTicks":474,"midi":43,"name":"G2","ticks":416780,"time":143.78871426953125,"velocity":0.5984251968503937},{"duration":0.16408194140623777,"durationTicks":476,"midi":46,"name":"A#2","ticks":417285,"time":143.9627927998047,"velocity":0.5905511811023622},{"duration":0.17614679003906986,"durationTicks":511,"midi":63,"name":"D#4","ticks":417796,"time":144.13893958984374,"velocity":0.6299212598425197},{"duration":0.18648808886720758,"durationTicks":541,"midi":48,"name":"C3","ticks":417796,"time":144.13893958984374,"velocity":0.6299212598425197},{"duration":0.06894199218749009,"durationTicks":200,"midi":60,"name":"C4","ticks":418338,"time":144.32577238867188,"velocity":0.5905511811023622},{"duration":0.1644266513671937,"durationTicks":477,"midi":48,"name":"C3","ticks":418338,"time":144.32577238867188,"velocity":0.5905511811023622},{"duration":0.16339252148435435,"durationTicks":474,"midi":43,"name":"G2","ticks":418846,"time":144.50088504882814,"velocity":0.5984251968503937},{"duration":0.16511607128907713,"durationTicks":479,"midi":46,"name":"A#2","ticks":419351,"time":144.67496357910156,"velocity":0.5905511811023622},{"duration":0.17545737011718643,"durationTicks":509,"midi":48,"name":"C3","ticks":419861,"time":144.8507656591797,"velocity":0.6141732283464567},{"duration":0.16339252148438277,"durationTicks":474,"midi":58,"name":"A#3","ticks":420371,"time":145.0265677392578,"velocity":0.5905511811023622},{"duration":0.16339252148438277,"durationTicks":474,"midi":48,"name":"C3","ticks":420371,"time":145.0265677392578,"velocity":0.5905511811023622},{"duration":0.06790786230467916,"durationTicks":197,"midi":60,"name":"C4","ticks":420876,"time":145.20064626953126,"velocity":0.5984251968503937},{"duration":0.16339252148435435,"durationTicks":474,"midi":43,"name":"G2","ticks":420876,"time":145.20064626953126,"velocity":0.5984251968503937},{"duration":0.3522935800781397,"durationTicks":1022,"midi":63,"name":"D#4","ticks":421381,"time":145.37472479980468,"velocity":0.5905511811023622},{"duration":0.1640819414062662,"durationTicks":476,"midi":46,"name":"A#2","ticks":421381,"time":145.37472479980468,"velocity":0.5905511811023622},{"duration":0.18648808886717916,"durationTicks":541,"midi":48,"name":"C3","ticks":421892,"time":145.55087158984375,"velocity":0.6299212598425197},{"duration":0.1644266513671937,"durationTicks":477,"midi":60,"name":"C4","ticks":422434,"time":145.7377043886719,"velocity":0.5905511811023622},{"duration":0.1644266513671937,"durationTicks":477,"midi":48,"name":"C3","ticks":422434,"time":145.7377043886719,"velocity":0.5905511811023622},{"duration":0.16339252148438277,"durationTicks":474,"midi":43,"name":"G2","ticks":422942,"time":145.91281704882812,"velocity":0.5984251968503937},{"duration":0.16511607128907713,"durationTicks":479,"midi":46,"name":"A#2","ticks":423447,"time":146.08689557910157,"velocity":0.5905511811023622},{"duration":0.11892493652345593,"durationTicks":345,"midi":48,"name":"C3","ticks":423957,"time":146.26269765917968,"velocity":0.5196850393700787},{"duration":0.11306486718748943,"durationTicks":328,"midi":48,"name":"C3","ticks":424303,"time":146.38196730566406,"velocity":0.49606299212598426},{"duration":0.16339252148438277,"durationTicks":474,"midi":65,"name":"F4","ticks":424467,"time":146.43849973925782,"velocity":0.5905511811023622},{"duration":0.0461911347656212,"durationTicks":134,"midi":48,"name":"C3","ticks":424632,"time":146.4953768828125,"velocity":0.49606299212598426},{"duration":0.3485017705078235,"durationTicks":1011,"midi":67,"name":"G4","ticks":424972,"time":146.61257826953124,"velocity":0.5984251968503937},{"duration":0.16339252148438277,"durationTicks":474,"midi":43,"name":"G2","ticks":424972,"time":146.61257826953124,"velocity":0.5984251968503937},{"duration":0.1744232402343755,"durationTicks":506,"midi":46,"name":"A#2","ticks":425477,"time":146.7866567998047,"velocity":0.5905511811023622},{"duration":0.09548465917967519,"durationTicks":277,"midi":63,"name":"D#4","ticks":425988,"time":146.96280358984376,"velocity":0.6299212598425197},{"duration":0.18648808886717916,"durationTicks":541,"midi":46,"name":"A#2","ticks":425988,"time":146.96280358984376,"velocity":0.6299212598425197},{"duration":0.08031742089843874,"durationTicks":233,"midi":62,"name":"D4","ticks":426281,"time":147.06380360839844,"velocity":0.5905511811023622},{"duration":0.1644266513671937,"durationTicks":477,"midi":60,"name":"C4","ticks":426530,"time":147.14963638867187,"velocity":0.5905511811023622},{"duration":0.1644266513671937,"durationTicks":477,"midi":46,"name":"A#2","ticks":426530,"time":147.14963638867187,"velocity":0.5905511811023622},{"duration":0.16339252148438277,"durationTicks":474,"midi":41,"name":"F2","ticks":427038,"time":147.32474904882812,"velocity":0.5984251968503937},{"duration":0.1651160712890487,"durationTicks":479,"midi":44,"name":"G#2","ticks":427543,"time":147.49882757910157,"velocity":0.5905511811023622},{"duration":0.17545737011718643,"durationTicks":509,"midi":46,"name":"A#2","ticks":428053,"time":147.6746296591797,"velocity":0.6141732283464567},{"duration":0.16339252148435435,"durationTicks":474,"midi":55,"name":"G3","ticks":428563,"time":147.85043173925783,"velocity":0.5905511811023622},{"duration":0.16339252148435435,"durationTicks":474,"midi":46,"name":"A#2","ticks":428563,"time":147.85043173925783,"velocity":0.5905511811023622},{"duration":0.16339252148438277,"durationTicks":474,"midi":63,"name":"D#4","ticks":429068,"time":148.02451026953125,"velocity":0.5984251968503937},{"duration":0.16339252148438277,"durationTicks":474,"midi":41,"name":"F2","ticks":429068,"time":148.02451026953125,"velocity":0.5984251968503937},{"duration":0.3522935800781113,"durationTicks":1022,"midi":60,"name":"C4","ticks":429573,"time":148.1985887998047,"velocity":0.5905511811023622},{"duration":0.16408194140623777,"durationTicks":476,"midi":44,"name":"G#2","ticks":429573,"time":148.1985887998047,"velocity":0.5905511811023622},{"duration":0.18648808886717916,"durationTicks":541,"midi":46,"name":"A#2","ticks":430084,"time":148.37473558984377,"velocity":0.6299212598425197},{"duration":0.1644266513671937,"durationTicks":477,"midi":58,"name":"A#3","ticks":430626,"time":148.56156838867187,"velocity":0.5905511811023622},{"duration":0.1644266513671937,"durationTicks":477,"midi":46,"name":"A#2","ticks":430626,"time":148.56156838867187,"velocity":0.5905511811023622},{"duration":0.3495359003906344,"durationTicks":1014,"midi":60,"name":"C4","ticks":431134,"time":148.73668104882813,"velocity":0.5984251968503937},{"duration":0.16339252148438277,"durationTicks":474,"midi":41,"name":"F2","ticks":431134,"time":148.73668104882813,"velocity":0.5984251968503937},{"duration":0.1651160712890487,"durationTicks":479,"midi":44,"name":"G#2","ticks":431639,"time":148.91075957910158,"velocity":0.5905511811023622},{"duration":0.1651160712890487,"durationTicks":479,"midi":58,"name":"A#3","ticks":432149,"time":149.0865616591797,"velocity":0.6141732283464567},{"duration":0.1189249365234275,"durationTicks":345,"midi":46,"name":"A#2","ticks":432149,"time":149.0865616591797,"velocity":0.5196850393700787},{"duration":0.11306486718748943,"durationTicks":328,"midi":46,"name":"A#2","ticks":432495,"time":149.20583130566408,"velocity":0.49606299212598426},{"duration":0.34781235058594007,"durationTicks":1009,"midi":60,"name":"C4","ticks":432659,"time":149.2623637392578,"velocity":0.5905511811023622},{"duration":0.0461911347656212,"durationTicks":134,"midi":46,"name":"A#2","ticks":432824,"time":149.3192408828125,"velocity":0.49606299212598426},{"duration":0.16339252148438277,"durationTicks":474,"midi":41,"name":"F2","ticks":433164,"time":149.43644226953126,"velocity":0.5984251968503937},{"duration":0.16408194140623777,"durationTicks":476,"midi":58,"name":"A#3","ticks":433669,"time":149.6105207998047,"velocity":0.5905511811023622},{"duration":0.1744232402343755,"durationTicks":506,"midi":44,"name":"G#2","ticks":433669,"time":149.6105207998047,"velocity":0.5905511811023622},{"duration":0.17614679003906986,"durationTicks":511,"midi":65,"name":"F4","ticks":434180,"time":149.78666758984374,"velocity":0.6299212598425197},{"duration":0.18648808886720758,"durationTicks":541,"midi":44,"name":"G#2","ticks":434180,"time":149.78666758984374,"velocity":0.6299212598425197},{"duration":0.06894199218749009,"durationTicks":200,"midi":63,"name":"D#4","ticks":434722,"time":149.97350038867188,"velocity":0.5905511811023622},{"duration":0.1644266513671937,"durationTicks":477,"midi":44,"name":"G#2","ticks":434722,"time":149.97350038867188,"velocity":0.5905511811023622},{"duration":0.16339252148435435,"durationTicks":474,"midi":39,"name":"D#2","ticks":435230,"time":150.14861304882814,"velocity":0.5905511811023622},{"duration":0.16511607128907713,"durationTicks":479,"midi":42,"name":"F#2","ticks":435735,"time":150.32269157910156,"velocity":0.5905511811023622},{"duration":0.17545737011718643,"durationTicks":509,"midi":44,"name":"G#2","ticks":436245,"time":150.4984936591797,"velocity":0.6141732283464567},{"duration":0.16339252148438277,"durationTicks":474,"midi":65,"name":"F4","ticks":436755,"time":150.67429573925781,"velocity":0.5905511811023622},{"duration":0.16339252148438277,"durationTicks":474,"midi":44,"name":"G#2","ticks":436755,"time":150.67429573925781,"velocity":0.5905511811023622},{"duration":0.06790786230467916,"durationTicks":197,"midi":63,"name":"D#4","ticks":437260,"time":150.84837426953126,"velocity":0.5984251968503937},{"duration":0.16339252148435435,"durationTicks":474,"midi":39,"name":"D#2","ticks":437260,"time":150.84837426953126,"velocity":0.5905511811023622},{"duration":0.1640819414062662,"durationTicks":476,"midi":42,"name":"F#2","ticks":437765,"time":151.02245279980468,"velocity":0.5905511811023622},{"duration":0.17614679003906986,"durationTicks":511,"midi":60,"name":"C4","ticks":438276,"time":151.19859958984375,"velocity":0.6299212598425197},{"duration":0.18648808886717916,"durationTicks":541,"midi":44,"name":"G#2","ticks":438276,"time":151.19859958984375,"velocity":0.6299212598425197},{"duration":0.16442665136716528,"durationTicks":477,"midi":63,"name":"D#4","ticks":438818,"time":151.3854323886719,"velocity":0.5905511811023622},{"duration":0.16442665136716528,"durationTicks":477,"midi":44,"name":"G#2","ticks":438818,"time":151.3854323886719,"velocity":0.5905511811023622},{"duration":0.16339252148438277,"durationTicks":474,"midi":39,"name":"D#2","ticks":439326,"time":151.56054504882812,"velocity":0.5905511811023622},{"duration":0.16511607128907713,"durationTicks":479,"midi":60,"name":"C4","ticks":439831,"time":151.73462357910157,"velocity":0.5905511811023622},{"duration":0.16511607128907713,"durationTicks":479,"midi":43,"name":"G2","ticks":439831,"time":151.73462357910157,"velocity":0.5905511811023622},{"duration":0.16511607128907713,"durationTicks":479,"midi":63,"name":"D#4","ticks":440341,"time":151.91042565917968,"velocity":0.6141732283464567},{"duration":0.11892493652345593,"durationTicks":345,"midi":44,"name":"G#2","ticks":440341,"time":151.91042565917968,"velocity":0.5196850393700787},{"duration":0.11306486718748943,"durationTicks":328,"midi":44,"name":"G#2","ticks":440687,"time":152.02969530566406,"velocity":0.49606299212598426},{"duration":0.16339252148435435,"durationTicks":474,"midi":65,"name":"F4","ticks":440851,"time":152.08622773925782,"velocity":0.5905511811023622},{"duration":0.0461911347656212,"durationTicks":134,"midi":44,"name":"G#2","ticks":441016,"time":152.1431048828125,"velocity":0.49606299212598426},{"duration":0.16339252148438277,"durationTicks":474,"midi":66,"name":"F#4","ticks":441356,"time":152.26030626953124,"velocity":0.5984251968503937},{"duration":0.16339252148438277,"durationTicks":474,"midi":39,"name":"D#2","ticks":441356,"time":152.26030626953124,"velocity":0.5905511811023622},{"duration":0.16408194140623777,"durationTicks":476,"midi":67,"name":"G4","ticks":441861,"time":152.4343847998047,"velocity":0.5905511811023622},{"duration":0.1744232402343755,"durationTicks":506,"midi":43,"name":"G2","ticks":441861,"time":152.4343847998047,"velocity":0.5905511811023622},{"duration":0.17614679003904143,"durationTicks":511,"midi":70,"name":"A#4","ticks":442372,"time":152.61053158984376,"velocity":0.6299212598425197},{"duration":0.18648808886717916,"durationTicks":541,"midi":43,"name":"G2","ticks":442372,"time":152.61053158984376,"velocity":0.6299212598425197},{"duration":0.1644266513671937,"durationTicks":477,"midi":67,"name":"G4","ticks":442914,"time":152.79736438867187,"velocity":0.5905511811023622},{"duration":0.1644266513671937,"durationTicks":477,"midi":43,"name":"G2","ticks":442914,"time":152.79736438867187,"velocity":0.5905511811023622},{"duration":0.16339252148438277,"durationTicks":474,"midi":38,"name":"D2","ticks":443422,"time":152.97247704882813,"velocity":0.5905511811023622},{"duration":0.1651160712890487,"durationTicks":479,"midi":41,"name":"F2","ticks":443927,"time":153.14655557910157,"velocity":0.6062992125984252},{"duration":0.06963141210937351,"durationTicks":202,"midi":58,"name":"A#3","ticks":444437,"time":153.3223576591797,"velocity":0.6141732283464567},{"duration":0.17545737011718643,"durationTicks":509,"midi":43,"name":"G2","ticks":444437,"time":153.3223576591797,"velocity":0.6141732283464567},{"duration":0.06790786230470758,"durationTicks":197,"midi":55,"name":"G3","ticks":444947,"time":153.4981597392578,"velocity":0.6141732283464567},{"duration":0.16339252148438277,"durationTicks":474,"midi":43,"name":"G2","ticks":444947,"time":153.4981597392578,"velocity":0.6141732283464567},{"duration":0.16339252148438277,"durationTicks":474,"midi":70,"name":"A#4","ticks":445452,"time":153.67223826953125,"velocity":0.6220472440944882},{"duration":0.16339252148438277,"durationTicks":474,"midi":38,"name":"D2","ticks":445452,"time":153.67223826953125,"velocity":0.6141732283464567},{"duration":0.16408194140623777,"durationTicks":476,"midi":67,"name":"G4","ticks":445957,"time":153.8463167998047,"velocity":0.6299212598425197},{"duration":0.16408194140623777,"durationTicks":476,"midi":41,"name":"F2","ticks":445957,"time":153.8463167998047,"velocity":0.6299212598425197},{"duration":0.18648808886717916,"durationTicks":541,"midi":43,"name":"G2","ticks":446468,"time":154.02246358984377,"velocity":0.6377952755905512},{"duration":0.06894199218749009,"durationTicks":200,"midi":58,"name":"A#3","ticks":447010,"time":154.20929638867187,"velocity":0.6456692913385826},{"duration":0.1644266513671937,"durationTicks":477,"midi":43,"name":"G2","ticks":447010,"time":154.20929638867187,"velocity":0.6456692913385826},{"duration":0.06790786230467916,"durationTicks":197,"midi":55,"name":"G3","ticks":447518,"time":154.38440904882813,"velocity":0.6535433070866141},{"duration":0.16339252148438277,"durationTicks":474,"midi":38,"name":"D2","ticks":447518,"time":154.38440904882813,"velocity":0.6456692913385826},{"duration":0.16511607128907713,"durationTicks":479,"midi":41,"name":"F2","ticks":448023,"time":154.55848757910155,"velocity":0.6535433070866141},{"duration":0.16537746582031332,"durationTicks":479,"midi":70,"name":"A#4","ticks":448533,"time":154.73428965917967,"velocity":0.6614173228346457},{"duration":0.11904277832033472,"durationTicks":345,"midi":43,"name":"G2","ticks":448533,"time":154.73428965917967,"velocity":0.5669291338582677},{"duration":0.11359210156248878,"durationTicks":328,"midi":43,"name":"G2","ticks":448879,"time":154.85367821875,"velocity":0.5748031496062992},{"duration":0.1646127011718761,"durationTicks":474,"midi":67,"name":"G4","ticks":449043,"time":154.91040460156248,"velocity":0.6692913385826772},{"duration":0.04653066015623608,"durationTicks":134,"midi":43,"name":"G2","ticks":449208,"time":154.96761706249998,"velocity":0.5748031496062992},{"duration":0.16558286718750992,"durationTicks":474,"midi":58,"name":"A#3","ticks":449548,"time":155.08581157421872,"velocity":0.6771653543307087},{"duration":0.16558286718750992,"durationTicks":474,"midi":38,"name":"D2","ticks":449548,"time":155.08581157421872,"velocity":0.6692913385826772},{"duration":0.16726816308593584,"durationTicks":476,"midi":59,"name":"B3","ticks":450053,"time":155.2622461396484,"velocity":0.6850393700787402},{"duration":0.16726816308593584,"durationTicks":476,"midi":41,"name":"F2","ticks":450053,"time":155.2622461396484,"velocity":0.6850393700787402},{"duration":2.8221404501953202,"durationTicks":8187,"midi":67,"name":"G4","ticks":450564,"time":155.4418048398437,"velocity":0.6929133858267716},{"duration":0.17614679003906986,"durationTicks":511,"midi":63,"name":"D#4","ticks":450564,"time":155.4418048398437,"velocity":0.7322834645669292},{"duration":0.18648808886720758,"durationTicks":541,"midi":48,"name":"C3","ticks":450564,"time":155.4418048398437,"velocity":0.7322834645669292},{"duration":0.1644266513671937,"durationTicks":477,"midi":60,"name":"C4","ticks":451106,"time":155.62863763867185,"velocity":0.6929133858267716},{"duration":0.1644266513671937,"durationTicks":477,"midi":48,"name":"C3","ticks":451106,"time":155.62863763867185,"velocity":0.6929133858267716},{"duration":0.16339252148435435,"durationTicks":474,"midi":43,"name":"G2","ticks":451614,"time":155.8037502988281,"velocity":0.7007874015748031},{"duration":0.16511607128907713,"durationTicks":479,"midi":46,"name":"A#2","ticks":452119,"time":155.97782882910153,"velocity":0.6929133858267716},{"duration":0.17545737011718643,"durationTicks":509,"midi":48,"name":"C3","ticks":452629,"time":156.15363090917967,"velocity":0.7165354330708661},{"duration":0.16339252148438277,"durationTicks":474,"midi":58,"name":"A#3","ticks":453139,"time":156.32943298925778,"velocity":0.6929133858267716},{"duration":0.16339252148438277,"durationTicks":474,"midi":48,"name":"C3","ticks":453139,"time":156.32943298925778,"velocity":0.6929133858267716},{"duration":0.06790786230467916,"durationTicks":197,"midi":60,"name":"C4","ticks":453644,"time":156.50351151953123,"velocity":0.7007874015748031},{"duration":0.16339252148438277,"durationTicks":474,"midi":43,"name":"G2","ticks":453644,"time":156.50351151953123,"velocity":0.7007874015748031},{"duration":0.3522935800781397,"durationTicks":1022,"midi":63,"name":"D#4","ticks":454149,"time":156.67759004980465,"velocity":0.6929133858267716},{"duration":0.1640819414062662,"durationTicks":476,"midi":46,"name":"A#2","ticks":454149,"time":156.67759004980465,"velocity":0.6929133858267716},{"duration":0.18648808886717916,"durationTicks":541,"midi":48,"name":"C3","ticks":454660,"time":156.85373683984372,"velocity":0.7322834645669292},{"duration":0.1644266513671937,"durationTicks":477,"midi":60,"name":"C4","ticks":455202,"time":157.04056963867185,"velocity":0.6929133858267716},{"duration":0.1644266513671937,"durationTicks":477,"midi":48,"name":"C3","ticks":455202,"time":157.04056963867185,"velocity":0.6929133858267716},{"duration":0.16339252148438277,"durationTicks":474,"midi":43,"name":"G2","ticks":455710,"time":157.21568229882809,"velocity":0.7007874015748031},{"duration":0.16511607128907713,"durationTicks":479,"midi":46,"name":"A#2","ticks":456215,"time":157.38976082910153,"velocity":0.6929133858267716},{"duration":0.1189249365234275,"durationTicks":345,"midi":48,"name":"C3","ticks":456725,"time":157.56556290917968,"velocity":0.6220472440944882},{"duration":0.11306486718751785,"durationTicks":328,"midi":48,"name":"C3","ticks":457071,"time":157.68483255566403,"velocity":0.5984251968503937},{"duration":0.16339252148438277,"durationTicks":474,"midi":65,"name":"F4","ticks":457235,"time":157.7413649892578,"velocity":0.6929133858267716},{"duration":0.0461911347656212,"durationTicks":134,"midi":48,"name":"C3","ticks":457400,"time":157.79824213281248,"velocity":0.5984251968503937},{"duration":0.3485017705077951,"durationTicks":1011,"midi":67,"name":"G4","ticks":457740,"time":157.91544351953124,"velocity":0.7007874015748031},{"duration":0.16339252148435435,"durationTicks":474,"midi":43,"name":"G2","ticks":457740,"time":157.91544351953124,"velocity":0.7007874015748031},{"duration":0.1744232402343755,"durationTicks":506,"midi":46,"name":"A#2","ticks":458245,"time":158.08952204980466,"velocity":0.6929133858267716},{"duration":2.8221404501953202,"durationTicks":8187,"midi":65,"name":"F4","ticks":458756,"time":158.26566883984373,"velocity":0.6929133858267716},{"duration":0.09548465917967519,"durationTicks":277,"midi":63,"name":"D#4","ticks":458756,"time":158.26566883984373,"velocity":0.7322834645669292},{"duration":0.18648808886717916,"durationTicks":541,"midi":46,"name":"A#2","ticks":458756,"time":158.26566883984373,"velocity":0.7322834645669292},{"duration":0.08031742089843874,"durationTicks":233,"midi":62,"name":"D4","ticks":459049,"time":158.3666688583984,"velocity":0.6929133858267716},{"duration":0.16442665136716528,"durationTicks":477,"midi":60,"name":"C4","ticks":459298,"time":158.45250163867186,"velocity":0.6929133858267716},{"duration":0.16442665136716528,"durationTicks":477,"midi":46,"name":"A#2","ticks":459298,"time":158.45250163867186,"velocity":0.6929133858267716},{"duration":0.16339252148438277,"durationTicks":474,"midi":41,"name":"F2","ticks":459806,"time":158.6276142988281,"velocity":0.7007874015748031},{"duration":0.1651160712890487,"durationTicks":479,"midi":44,"name":"G#2","ticks":460311,"time":158.80169282910154,"velocity":0.6929133858267716},{"duration":0.17545737011718643,"durationTicks":509,"midi":46,"name":"A#2","ticks":460821,"time":158.97749490917965,"velocity":0.7165354330708661},{"duration":0.16339252148435435,"durationTicks":474,"midi":55,"name":"G3","ticks":461331,"time":159.1532969892578,"velocity":0.6929133858267716},{"duration":0.16339252148435435,"durationTicks":474,"midi":46,"name":"A#2","ticks":461331,"time":159.1532969892578,"velocity":0.6929133858267716},{"duration":0.16339252148438277,"durationTicks":474,"midi":63,"name":"D#4","ticks":461836,"time":159.32737551953122,"velocity":0.7007874015748031},{"duration":0.16339252148438277,"durationTicks":474,"midi":41,"name":"F2","ticks":461836,"time":159.32737551953122,"velocity":0.7007874015748031},{"duration":0.3522935800781113,"durationTicks":1022,"midi":60,"name":"C4","ticks":462341,"time":159.50145404980466,"velocity":0.6929133858267716},{"duration":0.16408194140623777,"durationTicks":476,"midi":44,"name":"G#2","ticks":462341,"time":159.50145404980466,"velocity":0.6929133858267716},{"duration":0.18648808886717916,"durationTicks":541,"midi":46,"name":"A#2","ticks":462852,"time":159.67760083984373,"velocity":0.7322834645669292},{"duration":0.1644266513671937,"durationTicks":477,"midi":58,"name":"A#3","ticks":463394,"time":159.86443363867184,"velocity":0.6929133858267716},{"duration":0.1644266513671937,"durationTicks":477,"midi":46,"name":"A#2","ticks":463394,"time":159.86443363867184,"velocity":0.6929133858267716},{"duration":0.3495359003906344,"durationTicks":1014,"midi":60,"name":"C4","ticks":463902,"time":160.0395462988281,"velocity":0.7007874015748031},{"duration":0.16339252148438277,"durationTicks":474,"midi":41,"name":"F2","ticks":463902,"time":160.0395462988281,"velocity":0.7007874015748031},{"duration":0.1651160712890487,"durationTicks":479,"midi":44,"name":"G#2","ticks":464407,"time":160.21362482910155,"velocity":0.6929133858267716},{"duration":0.1651160712890487,"durationTicks":479,"midi":58,"name":"A#3","ticks":464917,"time":160.38942690917966,"velocity":0.7165354330708661},{"duration":0.1189249365234275,"durationTicks":345,"midi":46,"name":"A#2","ticks":464917,"time":160.38942690917966,"velocity":0.6220472440944882},{"duration":0.11306486718748943,"durationTicks":328,"midi":46,"name":"A#2","ticks":465263,"time":160.50869655566405,"velocity":0.5984251968503937},{"duration":0.34781235058594007,"durationTicks":1009,"midi":60,"name":"C4","ticks":465427,"time":160.56522898925778,"velocity":0.6929133858267716},{"duration":0.04619113476564962,"durationTicks":134,"midi":46,"name":"A#2","ticks":465592,"time":160.62210613281246,"velocity":0.5984251968503937},{"duration":0.16339252148438277,"durationTicks":474,"midi":41,"name":"F2","ticks":465932,"time":160.73930751953122,"velocity":0.7007874015748031},{"duration":0.16408194140623777,"durationTicks":476,"midi":58,"name":"A#3","ticks":466437,"time":160.91338604980467,"velocity":0.6929133858267716},{"duration":0.1744232402343755,"durationTicks":506,"midi":44,"name":"G#2","ticks":466437,"time":160.91338604980467,"velocity":0.6929133858267716},{"duration":2.1234133593750073,"durationTicks":6160,"midi":67,"name":"G4","ticks":466948,"time":161.0895328398437,"velocity":0.6929133858267716},{"duration":0.17614679003906986,"durationTicks":511,"midi":65,"name":"F4","ticks":466948,"time":161.0895328398437,"velocity":0.7322834645669292},{"duration":0.18648808886720758,"durationTicks":541,"midi":44,"name":"G#2","ticks":466948,"time":161.0895328398437,"velocity":0.7322834645669292},{"duration":0.06894199218749009,"durationTicks":200,"midi":63,"name":"D#4","ticks":467490,"time":161.27636563867185,"velocity":0.6929133858267716},{"duration":0.1644266513671937,"durationTicks":477,"midi":44,"name":"G#2","ticks":467490,"time":161.27636563867185,"velocity":0.6929133858267716},{"duration":0.16339252148435435,"durationTicks":474,"midi":39,"name":"D#2","ticks":467998,"time":161.4514782988281,"velocity":0.6929133858267716},{"duration":0.16511607128907713,"durationTicks":479,"midi":42,"name":"F#2","ticks":468503,"time":161.62555682910153,"velocity":0.6929133858267716},{"duration":0.17545737011718643,"durationTicks":509,"midi":44,"name":"G#2","ticks":469013,"time":161.80135890917967,"velocity":0.7165354330708661},{"duration":0.16339252148438277,"durationTicks":474,"midi":65,"name":"F4","ticks":469523,"time":161.97716098925778,"velocity":0.6929133858267716},{"duration":0.16339252148438277,"durationTicks":474,"midi":44,"name":"G#2","ticks":469523,"time":161.97716098925778,"velocity":0.6929133858267716},{"duration":0.06790786230467916,"durationTicks":197,"midi":63,"name":"D#4","ticks":470028,"time":162.15123951953123,"velocity":0.7007874015748031},{"duration":0.16339252148435435,"durationTicks":474,"midi":39,"name":"D#2","ticks":470028,"time":162.15123951953123,"velocity":0.6929133858267716},{"duration":0.1640819414062662,"durationTicks":476,"midi":42,"name":"F#2","ticks":470533,"time":162.32531804980465,"velocity":0.6929133858267716},{"duration":0.17614679003906986,"durationTicks":511,"midi":60,"name":"C4","ticks":471044,"time":162.50146483984372,"velocity":0.7322834645669292},{"duration":0.18648808886717916,"durationTicks":541,"midi":44,"name":"G#2","ticks":471044,"time":162.50146483984372,"velocity":0.7322834645669292},{"duration":0.1644266513671937,"durationTicks":477,"midi":63,"name":"D#4","ticks":471586,"time":162.68829763867186,"velocity":0.6929133858267716},{"duration":0.1644266513671937,"durationTicks":477,"midi":44,"name":"G#2","ticks":471586,"time":162.68829763867186,"velocity":0.6929133858267716},{"duration":0.16339252148438277,"durationTicks":474,"midi":39,"name":"D#2","ticks":472094,"time":162.8634102988281,"velocity":0.6929133858267716},{"duration":0.16511607128907713,"durationTicks":479,"midi":60,"name":"C4","ticks":472599,"time":163.03748882910153,"velocity":0.6929133858267716},{"duration":0.16511607128907713,"durationTicks":479,"midi":43,"name":"G2","ticks":472599,"time":163.03748882910153,"velocity":0.6929133858267716},{"duration":0.16511607128907713,"durationTicks":479,"midi":63,"name":"D#4","ticks":473109,"time":163.21329090917965,"velocity":0.7165354330708661},{"duration":0.11892493652345593,"durationTicks":345,"midi":44,"name":"G#2","ticks":473109,"time":163.21329090917965,"velocity":0.6220472440944882},{"duration":0.11306486718751785,"durationTicks":328,"midi":44,"name":"G#2","ticks":473455,"time":163.33256055566403,"velocity":0.5984251968503937},{"duration":0.16339252148438277,"durationTicks":474,"midi":65,"name":"F4","ticks":473619,"time":163.3890929892578,"velocity":0.6929133858267716},{"duration":0.0461911347656212,"durationTicks":134,"midi":44,"name":"G#2","ticks":473784,"time":163.44597013281248,"velocity":0.5984251968503937},{"duration":0.16339252148435435,"durationTicks":474,"midi":66,"name":"F#4","ticks":474124,"time":163.56317151953124,"velocity":0.7007874015748031},{"duration":0.16339252148435435,"durationTicks":474,"midi":39,"name":"D#2","ticks":474124,"time":163.56317151953124,"velocity":0.6929133858267716},{"duration":0.1640819414062662,"durationTicks":476,"midi":67,"name":"G4","ticks":474629,"time":163.73725004980466,"velocity":0.6929133858267716},{"duration":0.1744232402343755,"durationTicks":506,"midi":43,"name":"G2","ticks":474629,"time":163.73725004980466,"velocity":0.6929133858267716},{"duration":0.17614679003906986,"durationTicks":511,"midi":70,"name":"A#4","ticks":475140,"time":163.91339683984373,"velocity":0.7322834645669292},{"duration":0.18648808886717916,"durationTicks":541,"midi":43,"name":"G2","ticks":475140,"time":163.91339683984373,"velocity":0.7322834645669292},{"duration":0.16442665136716528,"durationTicks":477,"midi":67,"name":"G4","ticks":475682,"time":164.10022963867186,"velocity":0.6929133858267716},{"duration":0.16442665136716528,"durationTicks":477,"midi":43,"name":"G2","ticks":475682,"time":164.10022963867186,"velocity":0.6929133858267716},{"duration":0.06790786230470758,"durationTicks":197,"midi":58,"name":"A#3","ticks":476190,"time":164.2753422988281,"velocity":0.7007874015748031},{"duration":0.16339252148438277,"durationTicks":474,"midi":38,"name":"D2","ticks":476190,"time":164.2753422988281,"velocity":0.6929133858267716},{"duration":0.06963141210937351,"durationTicks":202,"midi":55,"name":"G3","ticks":476695,"time":164.44942082910154,"velocity":0.6929133858267716},{"duration":0.1651160712890487,"durationTicks":479,"midi":41,"name":"F2","ticks":476695,"time":164.44942082910154,"velocity":0.6929133858267716},{"duration":0.06963141210937351,"durationTicks":202,"midi":82,"name":"A#5","ticks":477205,"time":164.62522290917966,"velocity":0.7165354330708661},{"duration":0.17545737011718643,"durationTicks":509,"midi":43,"name":"G2","ticks":477205,"time":164.62522290917966,"velocity":0.7165354330708661},{"duration":0.06790786230467916,"durationTicks":197,"midi":79,"name":"G5","ticks":477715,"time":164.8010249892578,"velocity":0.6929133858267716},{"duration":0.16339252148435435,"durationTicks":474,"midi":43,"name":"G2","ticks":477715,"time":164.8010249892578,"velocity":0.6929133858267716},{"duration":0.16339252148438277,"durationTicks":474,"midi":70,"name":"A#4","ticks":478220,"time":164.97510351953122,"velocity":0.7007874015748031},{"duration":0.16339252148438277,"durationTicks":474,"midi":38,"name":"D2","ticks":478220,"time":164.97510351953122,"velocity":0.6929133858267716},{"duration":0.16408194140623777,"durationTicks":476,"midi":67,"name":"G4","ticks":478725,"time":165.14918204980466,"velocity":0.6929133858267716},{"duration":0.16408194140623777,"durationTicks":476,"midi":41,"name":"F2","ticks":478725,"time":165.14918204980466,"velocity":0.6929133858267716},{"duration":0.08066213085936624,"durationTicks":234,"midi":58,"name":"A#3","ticks":479236,"time":165.32532883984373,"velocity":0.7322834645669292},{"duration":0.18648808886717916,"durationTicks":541,"midi":43,"name":"G2","ticks":479236,"time":165.32532883984373,"velocity":0.7322834645669292},{"duration":0.06894199218751851,"durationTicks":200,"midi":55,"name":"G3","ticks":479778,"time":165.51216163867184,"velocity":0.6929133858267716},{"duration":0.1644266513671937,"durationTicks":477,"midi":43,"name":"G2","ticks":479778,"time":165.51216163867184,"velocity":0.6929133858267716},{"duration":0.06790786230467916,"durationTicks":197,"midi":82,"name":"A#5","ticks":480286,"time":165.6872742988281,"velocity":0.7007874015748031},{"duration":0.16339252148438277,"durationTicks":474,"midi":38,"name":"D2","ticks":480286,"time":165.6872742988281,"velocity":0.6929133858267716},{"duration":0.06963141210937351,"durationTicks":202,"midi":79,"name":"G5","ticks":480791,"time":165.86135282910155,"velocity":0.6929133858267716},{"duration":0.1651160712890487,"durationTicks":479,"midi":41,"name":"F2","ticks":480791,"time":165.86135282910155,"velocity":0.6929133858267716},{"duration":0.1651160712890487,"durationTicks":479,"midi":70,"name":"A#4","ticks":481301,"time":166.03715490917966,"velocity":0.7165354330708661},{"duration":0.1189249365234275,"durationTicks":345,"midi":43,"name":"G2","ticks":481301,"time":166.03715490917966,"velocity":0.6220472440944882},{"duration":0.11306486718748943,"durationTicks":328,"midi":43,"name":"G2","ticks":481647,"time":166.15642455566405,"velocity":0.5984251968503937},{"duration":0.16339252148438277,"durationTicks":474,"midi":67,"name":"G4","ticks":481811,"time":166.21295698925778,"velocity":0.6929133858267716},{"duration":0.0461911347656212,"durationTicks":134,"midi":43,"name":"G2","ticks":481976,"time":166.26983413281246,"velocity":0.5984251968503937},{"duration":0.16339252148438277,"durationTicks":474,"midi":58,"name":"A#3","ticks":482316,"time":166.38703551953122,"velocity":0.7007874015748031},{"duration":0.16339252148438277,"durationTicks":474,"midi":38,"name":"D2","ticks":482316,"time":166.38703551953122,"velocity":0.6929133858267716},{"duration":0.16408194140623777,"durationTicks":476,"midi":59,"name":"B3","ticks":482821,"time":166.56111404980467,"velocity":0.6929133858267716},{"duration":0.16408194140623777,"durationTicks":476,"midi":41,"name":"F2","ticks":482821,"time":166.56111404980467,"velocity":0.6929133858267716},{"duration":0.18648808886720758,"durationTicks":541,"midi":60,"name":"C4","ticks":483332,"time":166.7372608398437,"velocity":0.6299212598425197},{"duration":0.711481359375,"durationTicks":2064,"midi":44,"name":"G#2","ticks":483332,"time":166.7372608398437,"velocity":0.6299212598425197},{"duration":0.174767950195303,"durationTicks":507,"midi":60,"name":"C4","ticks":483874,"time":166.92409363867185,"velocity":0.5905511811023622},{"duration":0.16339252148435435,"durationTicks":474,"midi":60,"name":"C4","ticks":484382,"time":167.0992062988281,"velocity":0.5984251968503937},{"duration":0.16511607128907713,"durationTicks":479,"midi":62,"name":"D4","ticks":484887,"time":167.27328482910153,"velocity":0.5905511811023622},{"duration":0.17545737011718643,"durationTicks":509,"midi":63,"name":"D#4","ticks":485397,"time":167.44908690917967,"velocity":0.6141732283464567},{"duration":0.698382380859357,"durationTicks":2026,"midi":46,"name":"A#2","ticks":485397,"time":167.44908690917967,"velocity":0.6141732283464567},{"duration":0.16339252148438277,"durationTicks":474,"midi":63,"name":"D#4","ticks":485907,"time":167.62488898925778,"velocity":0.5905511811023622},{"duration":0.16339252148435435,"durationTicks":474,"midi":62,"name":"D4","ticks":486412,"time":167.79896751953123,"velocity":0.5984251968503937},{"duration":0.1640819414062662,"durationTicks":476,"midi":60,"name":"C4","ticks":486917,"time":167.97304604980465,"velocity":0.5905511811023622},{"duration":0.17614679003906986,"durationTicks":511,"midi":58,"name":"A#3","ticks":487428,"time":168.14919283984372,"velocity":0.6299212598425197},{"duration":1.410208450195313,"durationTicks":4091,"midi":48,"name":"C3","ticks":487428,"time":168.14919283984372,"velocity":0.5905511811023622},{"duration":0.06894199218749009,"durationTicks":200,"midi":60,"name":"C4","ticks":487970,"time":168.33602563867186,"velocity":0.5905511811023622},{"duration":0.86384316210939,"durationTicks":2506,"midi":55,"name":"G3","ticks":488983,"time":168.68521682910153,"velocity":0.5905511811023622},{"duration":0.18648808886717916,"durationTicks":541,"midi":60,"name":"C4","ticks":491524,"time":169.56112483984373,"velocity":0.6299212598425197},{"duration":0.711481359375,"durationTicks":2064,"midi":44,"name":"G#2","ticks":491524,"time":169.56112483984373,"velocity":0.6299212598425197},{"duration":0.17476795019533142,"durationTicks":507,"midi":60,"name":"C4","ticks":492066,"time":169.74795763867183,"velocity":0.5905511811023622},{"duration":0.16339252148438277,"durationTicks":474,"midi":60,"name":"C4","ticks":492574,"time":169.9230702988281,"velocity":0.5984251968503937},{"duration":0.1651160712890487,"durationTicks":479,"midi":62,"name":"D4","ticks":493079,"time":170.09714882910154,"velocity":0.5905511811023622},{"duration":0.17545737011718643,"durationTicks":509,"midi":63,"name":"D#4","ticks":493589,"time":170.27295090917966,"velocity":0.6141732283464567},{"duration":0.6983823808593854,"durationTicks":2026,"midi":46,"name":"A#2","ticks":493589,"time":170.27295090917966,"velocity":0.6141732283464567},{"duration":0.16339252148435435,"durationTicks":474,"midi":63,"name":"D#4","ticks":494099,"time":170.4487529892578,"velocity":0.5905511811023622},{"duration":0.16339252148438277,"durationTicks":474,"midi":65,"name":"F4","ticks":494604,"time":170.62283151953122,"velocity":0.5984251968503937},{"duration":0.16408194140623777,"durationTicks":476,"midi":63,"name":"D#4","ticks":495109,"time":170.79691004980467,"velocity":0.5905511811023622},{"duration":0.17614679003904143,"durationTicks":511,"midi":65,"name":"F4","ticks":495620,"time":170.97305683984374,"velocity":0.6299212598425197},{"duration":1.410208450195313,"durationTicks":4091,"midi":48,"name":"C3","ticks":495620,"time":170.97305683984374,"velocity":0.5905511811023622},{"duration":0.06894199218751851,"durationTicks":200,"midi":67,"name":"G4","ticks":496162,"time":171.15988963867184,"velocity":0.5905511811023622},{"duration":0.6994165107421679,"durationTicks":2029,"midi":67,"name":"G4","ticks":497175,"time":171.50908082910155,"velocity":0.5905511811023622},{"duration":0.07997271093748282,"durationTicks":232,"midi":63,"name":"D#4","ticks":499205,"time":172.20884204980467,"velocity":0.5905511811023622},{"duration":0.08376452050779903,"durationTicks":243,"midi":62,"name":"D4","ticks":499453,"time":172.29433012011717,"velocity":0.5905511811023622},{"duration":0.18648808886720758,"durationTicks":541,"midi":60,"name":"C4","ticks":499716,"time":172.38498883984371,"velocity":0.6299212598425197},{"duration":0.711481359375,"durationTicks":2064,"midi":44,"name":"G#2","ticks":499716,"time":172.38498883984371,"velocity":0.6299212598425197},{"duration":0.174767950195303,"durationTicks":507,"midi":60,"name":"C4","ticks":500258,"time":172.57182163867185,"velocity":0.5905511811023622},{"duration":0.16339252148435435,"durationTicks":474,"midi":60,"name":"C4","ticks":500766,"time":172.7469342988281,"velocity":0.5984251968503937},{"duration":0.16511607128907713,"durationTicks":479,"midi":62,"name":"D4","ticks":501271,"time":172.92101282910153,"velocity":0.5905511811023622},{"duration":0.17545737011718643,"durationTicks":509,"midi":63,"name":"D#4","ticks":501781,"time":173.09681490917967,"velocity":0.6141732283464567},{"duration":0.698382380859357,"durationTicks":2026,"midi":46,"name":"A#2","ticks":501781,"time":173.09681490917967,"velocity":0.6141732283464567},{"duration":0.16339252148438277,"durationTicks":474,"midi":63,"name":"D#4","ticks":502291,"time":173.27261698925778,"velocity":0.5905511811023622},{"duration":0.16339252148435435,"durationTicks":474,"midi":62,"name":"D4","ticks":502796,"time":173.44669551953123,"velocity":0.5984251968503937},{"duration":0.1640819414062662,"durationTicks":476,"midi":60,"name":"C4","ticks":503301,"time":173.62077404980465,"velocity":0.5905511811023622},{"duration":0.17614679003906986,"durationTicks":511,"midi":58,"name":"A#3","ticks":503812,"time":173.79692083984372,"velocity":0.6299212598425197},{"duration":1.410208450195313,"durationTicks":4091,"midi":48,"name":"C3","ticks":503812,"time":173.79692083984372,"velocity":0.5905511811023622},{"duration":0.06894199218749009,"durationTicks":200,"midi":60,"name":"C4","ticks":504354,"time":173.98375363867186,"velocity":0.5905511811023622},{"duration":0.6994165107421964,"durationTicks":2029,"midi":55,"name":"G3","ticks":505367,"time":174.33294482910154,"velocity":0.5905511811023622},{"duration":0.07997271093751124,"durationTicks":232,"midi":56,"name":"G#3","ticks":507397,"time":175.03270604980466,"velocity":0.6299212598425197},{"duration":0.08514336035156589,"durationTicks":247,"midi":68,"name":"G#4","ticks":507397,"time":175.03270604980466,"velocity":0.7401574803149606},{"duration":0.08376452050782746,"durationTicks":243,"midi":58,"name":"A#3","ticks":507645,"time":175.11819412011715,"velocity":0.6299212598425197},{"duration":0.0889351699218821,"durationTicks":258,"midi":70,"name":"A#4","ticks":507645,"time":175.11819412011715,"velocity":0.7401574803149606},{"duration":0.18648808886717916,"durationTicks":541,"midi":60,"name":"C4","ticks":507908,"time":175.20885283984373,"velocity":0.6692913385826772},{"duration":0.18648808886717916,"durationTicks":541,"midi":72,"name":"C5","ticks":507908,"time":175.20885283984373,"velocity":0.7795275590551181},{"duration":0.711481359375,"durationTicks":2064,"midi":44,"name":"G#2","ticks":507908,"time":175.20885283984373,"velocity":0.7322834645669292},{"duration":0.174767950195303,"durationTicks":507,"midi":60,"name":"C4","ticks":508450,"time":175.39568563867186,"velocity":0.6299212598425197},{"duration":0.174767950195303,"durationTicks":507,"midi":72,"name":"C5","ticks":508450,"time":175.39568563867186,"velocity":0.7086614173228346},{"duration":0.16339252148438277,"durationTicks":474,"midi":60,"name":"C4","ticks":508958,"time":175.5707982988281,"velocity":0.6377952755905512},{"duration":0.17373382031249207,"durationTicks":504,"midi":72,"name":"C5","ticks":508958,"time":175.5707982988281,"velocity":0.7480314960629921},{"duration":0.1651160712890487,"durationTicks":479,"midi":62,"name":"D4","ticks":509463,"time":175.74487682910154,"velocity":0.6299212598425197},{"duration":0.17545737011718643,"durationTicks":509,"midi":74,"name":"D5","ticks":509463,"time":175.74487682910154,"velocity":0.7401574803149606},{"duration":0.17545737011718643,"durationTicks":509,"midi":60,"name":"C4","ticks":509973,"time":175.92067890917966,"velocity":0.6535433070866141},{"duration":0.17545737011718643,"durationTicks":509,"midi":72,"name":"C5","ticks":509973,"time":175.92067890917966,"velocity":0.7637795275590551},{"duration":0.6983823808593854,"durationTicks":2026,"midi":46,"name":"A#2","ticks":509973,"time":175.92067890917966,"velocity":0.7165354330708661},{"duration":0.16339252148438277,"durationTicks":474,"midi":60,"name":"C4","ticks":510483,"time":176.09648098925777,"velocity":0.6299212598425197},{"duration":0.1737338203125205,"durationTicks":504,"midi":72,"name":"C5","ticks":510483,"time":176.09648098925777,"velocity":0.7401574803149606},{"duration":0.16339252148438277,"durationTicks":474,"midi":58,"name":"A#3","ticks":510988,"time":176.27055951953122,"velocity":0.6377952755905512},{"duration":0.1737338203125205,"durationTicks":504,"midi":70,"name":"A#4","ticks":510988,"time":176.27055951953122,"velocity":0.7480314960629921},{"duration":0.16408194140623777,"durationTicks":476,"midi":55,"name":"G3","ticks":511493,"time":176.44463804980467,"velocity":0.6299212598425197},{"duration":0.1744232402343755,"durationTicks":506,"midi":67,"name":"G4","ticks":511493,"time":176.44463804980467,"velocity":0.7401574803149606},{"duration":0.17614679003904143,"durationTicks":511,"midi":53,"name":"F3","ticks":512004,"time":176.62078483984374,"velocity":0.6692913385826772},{"duration":0.18648808886717916,"durationTicks":541,"midi":65,"name":"F4","ticks":512004,"time":176.62078483984374,"velocity":0.7795275590551181},{"duration":0.5356792792968577,"durationTicks":1554,"midi":48,"name":"C3","ticks":512004,"time":176.62078483984374,"velocity":0.7322834645669292},{"duration":0.1644266513671937,"durationTicks":477,"midi":55,"name":"G3","ticks":512546,"time":176.80761763867184,"velocity":0.6299212598425197},{"duration":0.174767950195303,"durationTicks":507,"midi":67,"name":"G4","ticks":512546,"time":176.80761763867184,"velocity":0.7401574803149606},{"duration":0.1644266513671937,"durationTicks":477,"midi":55,"name":"G3","ticks":512546,"time":176.80761763867184,"velocity":0.6929133858267716},{"duration":0.08341981054687153,"durationTicks":242,"midi":51,"name":"D#3","ticks":513054,"time":176.9827302988281,"velocity":0.6377952755905512},{"duration":0.08859045996092618,"durationTicks":257,"midi":63,"name":"D#4","ticks":513054,"time":176.9827302988281,"velocity":0.7480314960629921},{"duration":0.08341981054687153,"durationTicks":242,"midi":51,"name":"D#3","ticks":513054,"time":176.9827302988281,"velocity":0.7007874015748031},{"duration":0.07962800097655531,"durationTicks":231,"midi":50,"name":"D3","ticks":513312,"time":177.07166546874998,"velocity":0.6299212598425197},{"duration":0.08479865039060996,"durationTicks":246,"midi":62,"name":"D4","ticks":513312,"time":177.07166546874998,"velocity":0.7401574803149606},{"duration":0.07962800097655531,"durationTicks":231,"midi":50,"name":"D3","ticks":513312,"time":177.07166546874998,"velocity":0.6929133858267716},{"duration":0.8741844609374994,"durationTicks":2536,"midi":60,"name":"C4","ticks":513559,"time":177.15680882910152,"velocity":0.6929133858267716},{"duration":0.8741844609374994,"durationTicks":2536,"midi":48,"name":"C3","ticks":513559,"time":177.15680882910152,"velocity":0.6929133858267716}],"endOfTrackTicks":516097},{"channel":0,"controlChanges":{},"pitchBends":[],"instrument":{"family":"piano","number":0,"name":"acoustic grand piano"},"name":"","notes":[]},{"channel":0,"controlChanges":{},"pitchBends":[],"instrument":{"family":"piano","number":0,"name":"acoustic grand piano"},"name":"","notes":[]},{"channel":0,"controlChanges":{},"pitchBends":[],"instrument":{"family":"piano","number":0,"name":"acoustic grand piano"},"name":"","notes":[]},{"channel":0,"controlChanges":{},"pitchBends":[],"instrument":{"family":"piano","number":0,"name":"acoustic grand piano"},"name":"","notes":[]},{"channel":0,"controlChanges":{},"pitchBends":[],"instrument":{"family":"piano","number":0,"name":"acoustic grand piano"},"name":"","notes":[]},{"channel":0,"controlChanges":{},"pitchBends":[],"instrument":{"family":"piano","number":0,"name":"acoustic grand piano"},"name":"","notes":[]},{"channel":0,"controlChanges":{},"pitchBends":[],"instrument":{"family":"piano","number":0,"name":"acoustic grand piano"},"name":"","notes":[]},{"channel":0,"controlChanges":{},"pitchBends":[],"instrument":{"family":"piano","number":0,"name":"acoustic grand piano"},"name":"","notes":[]},{"channel":0,"controlChanges":{},"pitchBends":[],"instrument":{"family":"piano","number":0,"name":"acoustic grand piano"},"name":"","notes":[]},{"channel":0,"controlChanges":{},"pitchBends":[],"instrument":{"family":"piano","number":0,"name":"acoustic grand piano"},"name":"","notes":[]},{"channel":0,"controlChanges":{},"pitchBends":[],"instrument":{"family":"piano","number":0,"name":"acoustic grand piano"},"name":"","notes":[]},{"channel":0,"controlChanges":{},"pitchBends":[],"instrument":{"family":"piano","number":0,"name":"acoustic grand piano"},"name":"","notes":[]},{"channel":0,"controlChanges":{},"pitchBends":[],"instrument":{"family":"piano","number":0,"name":"acoustic grand piano"},"name":"","notes":[]},{"channel":0,"controlChanges":{},"pitchBends":[],"instrument":{"family":"piano","number":0,"name":"acoustic grand piano"},"name":"","notes":[]},{"channel":0,"controlChanges":{},"pitchBends":[],"instrument":{"family":"piano","number":0,"name":"acoustic grand piano"},"name":"","notes":[]}]}