{"header":{"keySignatures":[],"meta":[],"name":"","ppq":480,"tempos":[{"bpm":200,"ticks":0}],"timeSignatures":[{"ticks":0,"timeSignature":[4,4],"measures":0}]},"tracks":[{"channel":0,"controlChanges":{"1":[{"number":1,"ticks":0,"time":0,"value":0},{"number":1,"ticks":480,"time":0.3,"value":0.4094488188976378},{"number":1,"ticks":720,"time":0.44999999999999996,"value":0.41732283464566927},{"number":1,"ticks":960,"time":0.6,"value":0.4566929133858268},{"number":1,"ticks":1200,"time":0.75,"value":0.4409448818897638},{"number":1,"ticks":1440,"time":0.8999999999999999,"value":0.3858267716535433},{"number":1,"ticks":1680,"time":1.05,"value":0.33070866141732286},{"number":1,"ticks":1920,"time":1.2,"value":0.30708661417322836},{"number":1,"ticks":2160,"time":1.3499999999999999,"value":0.31496062992125984},{"number":1,"ticks":2400,"time":1.5,"value":0.3543307086614173},{"number":1,"ticks":2640,"time":1.65,"value":0.4015748031496063},{"number":1,"ticks":2880,"time":1.7999999999999998,"value":0.3543307086614173},{"number":1,"ticks":3120,"time":1.95,"value":0.29133858267716534},{"number":1,"ticks":3360,"time":2.1,"value":0.30708661417322836},{"number":1,"ticks":3600,"time":2.25,"value":0.3543307086614173},{"number":1,"ticks":3840,"time":2.4,"value":0.4251968503937008},{"number":1,"ticks":4080,"time":2.55,"value":0.4409448818897638},{"number":1,"ticks":4320,"time":2.6999999999999997,"value":0.36220472440944884},{"number":1,"ticks":4560,"time":2.85,"value":0.29133858267716534},{"number":1,"ticks":4800,"time":3,"value":0.28346456692913385},{"number":1,"ticks":5040,"time":3.15,"value":0.33070866141732286},{"number":1,"ticks":5280,"time":3.3,"value":0.36220472440944884},{"number":1,"ticks":5520,"time":3.4499999999999997,"value":0.41732283464566927},{"number":1,"ticks":5760,"time":3.5999999999999996,"value":0.3937007874015748},{"number":1,"ticks":6000,"time":3.75,"value":0.30708661417322836},{"number":1,"ticks":6240,"time":3.9,"value":0.31496062992125984},{"number":1,"ticks":6480,"time":4.05,"value":0.36220472440944884},{"number":1,"ticks":6720,"time":4.2,"value":0.3937007874015748},{"number":1,"ticks":6960,"time":4.35,"value":0.4094488188976378},{"number":1,"ticks":7200,"time":4.5,"value":0.33070866141732286},{"number":1,"ticks":7440,"time":4.6499999999999995,"value":0.2677165354330709},{"number":1,"ticks":7680,"time":4.8,"value":0.30708661417322836},{"number":1,"ticks":7920,"time":4.95,"value":0.3543307086614173},{"number":1,"ticks":8160,"time":5.1,"value":0.30708661417322836},{"number":1,"ticks":8400,"time":5.25,"value":0.2283464566929134},{"number":1,"ticks":8640,"time":5.3999999999999995,"value":0.36220472440944884},{"number":1,"ticks":8880,"time":5.55,"value":0.4409448818897638},{"number":1,"ticks":9120,"time":5.7,"value":0.4645669291338583},{"number":1,"ticks":9360,"time":5.85,"value":0.33070866141732286},{"number":1,"ticks":9600,"time":6,"value":0.3858267716535433},{"number":1,"ticks":9840,"time":6.1499999999999995,"value":0.4409448818897638},{"number":1,"ticks":10080,"time":6.3,"value":0.47244094488188976}],"6":[{"number":6,"ticks":0,"time":0,"value":0.5039370078740157},{"number":6,"ticks":0,"time":0,"value":0.5039370078740157},{"number":6,"ticks":0,"time":0,"value":0.09448818897637795}],"7":[{"number":7,"ticks":0,"time":0,"value":0.7874015748031497}],"10":[{"number":10,"ticks":0,"time":0,"value":0.5039370078740157}],"11":[{"number":11,"ticks":0,"time":0,"value":1}],"38":[{"number":38,"ticks":0,"time":0,"value":0}],"100":[{"number":100,"ticks":0,"time":0,"value":0.015748031496062992},{"number":100,"ticks":0,"time":0,"value":0.007874015748031496},{"number":100,"ticks":0,"time":0,"value":0}],"101":[{"number":101,"ticks":0,"time":0,"value":0},{"number":101,"ticks":0,"time":0,"value":0},{"number":101,"ticks":0,"time":0,"value":0}],"121":[{"number":121,"ticks":0,"time":0,"value":0}]},"pitchBends":[{"ticks":0,"time":0,"value":0}],"instrument":{"family":"piano","number":0,"name":"acoustic grand piano"},"name":"","notes":[{"duration":0.15,"durationTicks":240,"midi":39,"name":"D#2","ticks":0,"time":0,"velocity":1},{"duration":0.14999999999999997,"durationTicks":240,"midi":42,"name":"F#2","ticks":480,"time":0.3,"velocity":1},{"duration":0.15000000000000002,"durationTicks":240,"midi":39,"name":"D#2","ticks":960,"time":0.6,"velocity":1},{"duration":0.15000000000000013,"durationTicks":240,"midi":39,"name":"D#2","ticks":1440,"time":0.8999999999999999,"velocity":1},{"duration":0.1499999999999999,"durationTicks":240,"midi":42,"name":"F#2","ticks":1920,"time":1.2,"velocity":1},{"duration":0.1499999999999999,"durationTicks":240,"midi":39,"name":"D#2","ticks":2400,"time":1.5,"velocity":1},{"duration":0.15000000000000013,"durationTicks":240,"midi":42,"name":"F#2","ticks":2880,"time":1.7999999999999998,"velocity":1},{"duration":0.15000000000000013,"durationTicks":240,"midi":39,"name":"D#2","ticks":3120,"time":1.95,"velocity":1},{"duration":0.1499999999999999,"durationTicks":240,"midi":37,"name":"C#2","ticks":3360,"time":2.1,"velocity":1},{"duration":0.1499999999999999,"durationTicks":240,"midi":51,"name":"D#3","ticks":3840,"time":2.4,"velocity":1},{"duration":0.1499999999999999,"durationTicks":240,"midi":49,"name":"C#3","ticks":4080,"time":2.55,"velocity":1},{"duration":0.1499999999999999,"durationTicks":240,"midi":49,"name":"C#3","ticks":4560,"time":2.85,"velocity":1},{"duration":0.1499999999999999,"durationTicks":240,"midi":46,"name":"A#2","ticks":5040,"time":3.15,"velocity":1},{"duration":0.1499999999999999,"durationTicks":240,"midi":46,"name":"A#2","ticks":5520,"time":3.4499999999999997,"velocity":1},{"duration":0.1499999999999999,"durationTicks":240,"midi":47,"name":"B2","ticks":6000,"time":3.75,"velocity":1},{"duration":0.1499999999999999,"durationTicks":240,"midi":35,"name":"B1","ticks":6240,"time":3.9,"velocity":1},{"duration":0.15000000000000036,"durationTicks":240,"midi":47,"name":"B2","ticks":6480,"time":4.05,"velocity":1},{"duration":0.14999999999999947,"durationTicks":240,"midi":35,"name":"B1","ticks":6720,"time":4.2,"velocity":1},{"duration":0.15000000000000036,"durationTicks":240,"midi":36,"name":"C2","ticks":6960,"time":4.35,"velocity":1},{"duration":0.14999999999999947,"durationTicks":240,"midi":37,"name":"C#2","ticks":7200,"time":4.5,"velocity":1},{"duration":0.15000000000000036,"durationTicks":240,"midi":46,"name":"A#2","ticks":7440,"time":4.6499999999999995,"velocity":1},{"duration":0.15000000000000036,"durationTicks":240,"midi":39,"name":"D#2","ticks":7680,"time":4.8,"velocity":1},{"duration":0.15000000000000036,"durationTicks":240,"midi":39,"name":"D#2","ticks":8160,"time":5.1,"velocity":1},{"duration":0.3000000000000007,"durationTicks":480,"midi":39,"name":"D#2","ticks":8640,"time":5.3999999999999995,"velocity":1},{"duration":0.3000000000000007,"durationTicks":480,"midi":46,"name":"A#2","ticks":8640,"time":5.3999999999999995,"velocity":1},{"duration":0.3000000000000007,"durationTicks":480,"midi":51,"name":"D#3","ticks":8640,"time":5.3999999999999995,"velocity":1}],"endOfTrackTicks":10080},{"channel":0,"controlChanges":{"1":[{"number":1,"ticks":0,"time":0,"value":0}],"6":[{"number":6,"ticks":0,"time":0,"value":0.5039370078740157},{"number":6,"ticks":0,"time":0,"value":0.5039370078740157},{"number":6,"ticks":0,"time":0,"value":0.09448818897637795}],"7":[{"number":7,"ticks":0,"time":0,"value":0.7874015748031497}],"10":[{"number":10,"ticks":0,"time":0,"value":0.5039370078740157}],"11":[{"number":11,"ticks":0,"time":0,"value":1}],"38":[{"number":38,"ticks":0,"time":0,"value":0}],"100":[{"number":100,"ticks":0,"time":0,"value":0.015748031496062992},{"number":100,"ticks":0,"time":0,"value":0.007874015748031496},{"number":100,"ticks":0,"time":0,"value":0}],"101":[{"number":101,"ticks":0,"time":0,"value":0},{"number":101,"ticks":0,"time":0,"value":0},{"number":101,"ticks":0,"time":0,"value":0}],"121":[{"number":121,"ticks":0,"time":0,"value":0}]},"pitchBends":[{"ticks":0,"time":0,"value":0}],"instrument":{"family":"piano","number":0,"name":"acoustic grand piano"},"name":"","notes":[],"endOfTrackTicks":9600},{"channel":1,"controlChanges":{},"pitchBends":[],"instrument":{"family":"guitar","number":24,"name":"acoustic guitar (nylon)"},"name":"","notes":[{"duration":0.15,"durationTicks":240,"midi":51,"name":"D#3","ticks":240,"time":0.15,"velocity":1},{"duration":0.15000000000000002,"durationTicks":240,"midi":51,"name":"D#3","ticks":720,"time":0.44999999999999996,"velocity":1},{"duration":0.1499999999999999,"durationTicks":240,"midi":49,"name":"C#3","ticks":1200,"time":0.75,"velocity":1},{"duration":0.1499999999999999,"durationTicks":240,"midi":46,"name":"A#2","ticks":1680,"time":1.05,"velocity":1},{"duration":0.15000000000000013,"durationTicks":240,"midi":49,"name":"C#3","ticks":2160,"time":1.3499999999999999,"velocity":1},{"duration":0.1499999999999999,"durationTicks":240,"midi":51,"name":"D#3","ticks":2640,"time":1.65,"velocity":1},{"duration":0.15000000000000013,"durationTicks":240,"midi":54,"name":"F#3","ticks":2880,"time":1.7999999999999998,"velocity":1},{"duration":0.1499999999999999,"durationTicks":240,"midi":58,"name":"A#3","ticks":3600,"time":2.25,"velocity":1},{"duration":0.1499999999999999,"durationTicks":240,"midi":61,"name":"C#4","ticks":4080,"time":2.55,"velocity":1},{"duration":0.2999999999999998,"durationTicks":480,"midi":61,"name":"C#4","ticks":4560,"time":2.85,"velocity":1},{"duration":0.1499999999999999,"durationTicks":240,"midi":54,"name":"F#3","ticks":5040,"time":3.15,"velocity":1},{"duration":0.1499999999999999,"durationTicks":240,"midi":54,"name":"F#3","ticks":5280,"time":3.3,"velocity":1},{"duration":0.15000000000000036,"durationTicks":240,"midi":58,"name":"A#3","ticks":5760,"time":3.5999999999999996,"velocity":1},{"duration":0.1499999999999999,"durationTicks":240,"midi":58,"name":"A#3","ticks":6240,"time":3.9,"velocity":1},{"duration":0.15000000000000036,"durationTicks":240,"midi":63,"name":"D#4","ticks":7680,"time":4.8,"velocity":1},{"duration":0.14999999999999947,"durationTicks":240,"midi":63,"name":"D#4","ticks":7920,"time":4.95,"velocity":1},{"duration":0.15000000000000036,"durationTicks":240,"midi":58,"name":"A#3","ticks":8160,"time":5.1,"velocity":1},{"duration":0.14999999999999947,"durationTicks":240,"midi":54,"name":"F#3","ticks":8400,"time":5.25,"velocity":1},{"duration":0.15000000000000036,"durationTicks":240,"midi":54,"name":"F#3","ticks":8880,"time":5.55,"velocity":1},{"duration":0.14999999999999947,"durationTicks":240,"midi":51,"name":"D#3","ticks":9120,"time":5.7,"velocity":1},{"duration":0.15000000000000036,"durationTicks":240,"midi":54,"name":"F#3","ticks":9360,"time":5.85,"velocity":1}]}]}
